<svg width="26" height="24" viewBox="0 0 26 24" fill="none" xmlns="http://www.w3.org/2000/svg">
<path d="M9.64768 7.62951C9.7583 7.51952 9.84606 7.38872 9.90591 7.24465C9.96575 7.10059 9.9965 6.94611 9.99636 6.79011C9.99624 6.63411 9.96524 6.47968 9.90515 6.33572C9.84508 6.19175 9.7571 6.0611 9.6463 5.95128C9.53549 5.84147 9.40405 5.75467 9.25955 5.69589C9.11505 5.63711 8.96034 5.6075 8.80436 5.60877C8.64836 5.61005 8.49416 5.64218 8.35063 5.70331C8.20712 5.76445 8.07711 5.85339 7.96812 5.965C6.98306 6.96008 6.31513 8.22485 6.04876 9.59947C5.78238 10.9741 5.92952 12.3968 6.47158 13.6878C7.01363 14.9788 7.92626 16.0801 9.09411 16.8525C10.262 17.625 11.6326 18.0339 13.0328 18.0274C14.4329 18.0211 15.7998 17.5997 16.9605 16.8166C18.1213 16.0335 19.0238 14.9239 19.554 13.6279C20.0842 12.332 20.2183 10.908 19.9393 9.53588C19.6604 8.16376 18.9809 6.90515 17.9868 5.91913C17.8765 5.80984 17.7457 5.72334 17.6019 5.66458C17.4582 5.60582 17.3044 5.57595 17.149 5.57667C16.9937 5.57739 16.8401 5.60869 16.6969 5.66879C16.5537 5.72888 16.4238 5.81659 16.3144 5.9269C16.2052 6.03721 16.1187 6.16797 16.06 6.31171C16.0012 6.45545 15.9714 6.60936 15.972 6.76465C15.9727 6.91993 16.004 7.07355 16.0641 7.21675C16.1242 7.35994 16.212 7.48989 16.3223 7.59918C16.9852 8.25621 17.4385 9.09508 17.6247 10.0097C17.8109 10.9243 17.7216 11.8736 17.3684 12.7375C17.0151 13.6014 16.4136 14.3413 15.6398 14.8633C14.8662 15.3854 13.9551 15.6663 13.0217 15.6707C12.0883 15.6749 11.1746 15.4023 10.3962 14.8873C9.61773 14.3723 9.00945 13.6381 8.64827 12.7774C8.28709 11.9168 8.18923 10.9684 8.36705 10.0521C8.54488 9.13581 8.99041 8.29284 9.6473 7.62976L9.64768 7.62951Z" fill="url(#paint0_angular)"/>
<path d="M17.9664 0.000155916C17.1898 0.00156107 16.4211 0.157001 15.7049 0.457479C14.9887 0.757958 14.3392 1.19751 13.794 1.75068C13.5731 1.97312 13.2731 2.09885 12.9596 2.10026C12.6461 2.10169 12.3448 1.9787 12.1219 1.75826C11.0073 0.656405 9.50114 0.0416343 7.93383 0.0488114C6.36653 0.0559887 4.86606 0.684527 3.76157 1.79655C1.953 3.62338 0.726632 5.94541 0.237503 8.4691C-0.251625 10.9928 0.0184396 13.6049 1.01356 15.975C2.00868 18.3453 3.6842 20.3673 5.82827 21.7855C7.97236 23.2036 10.4888 23.9543 13.0594 23.9425C15.6301 23.9308 18.1394 23.1571 20.2705 21.7195C22.4016 20.2818 24.0585 18.2445 25.0319 15.8654C26.0053 13.4862 26.2516 10.8717 25.7393 8.35259C25.2272 5.83348 23.9797 3.52275 22.1545 1.71252C21.6043 1.16437 20.9509 0.730781 20.2319 0.436853C19.5131 0.142925 18.7431 -0.00550286 17.9664 0.000155916ZM20.4897 3.3922C21.9848 4.8736 23.0069 6.76505 23.427 8.82739C23.847 10.8897 23.6461 13.0302 22.8496 14.9784C22.0531 16.9266 20.6968 18.5947 18.9521 19.7721C17.2076 20.9493 15.153 21.5829 13.0483 21.5924C10.9437 21.6021 8.88347 20.9875 7.12817 19.8261C5.37287 18.6649 4.00134 17.0091 3.18703 15.0684C2.37272 13.1277 2.15221 10.989 2.55337 8.9229C2.95452 6.85681 3.95935 4.95607 5.44075 3.46106C6.10351 2.79385 7.00384 2.41673 7.94426 2.41242C8.88469 2.40811 9.78843 2.77696 10.4573 3.43806C11.126 4.09922 12.0296 4.46811 12.97 4.46383C13.9104 4.45954 14.8105 4.08241 15.4732 3.41519C16.1353 2.747 17.0359 2.36919 17.9766 2.36488C18.9173 2.36056 19.8212 2.7301 20.4895 3.3922" fill="url(#paint1_angular)"/>
<path d="M12.9999 13.0443C14.061 13.0443 14.921 12.1842 14.921 11.1232C14.921 10.0622 14.061 9.20215 12.9999 9.20215C11.9389 9.20215 11.0789 10.0622 11.0789 11.1232C11.0789 12.1842 11.9389 13.0443 12.9999 13.0443Z" fill="url(#paint2_angular)"/>
<defs>
<radialGradient id="paint0_angular" cx="0" cy="0" r="1" gradientUnits="userSpaceOnUse" gradientTransform="translate(13.0004 11.8021) rotate(90) scale(6.22541 7.08093)">
<stop stop-color="#4E4E9D"/>
<stop offset="1" stop-color="#24246C"/>
</radialGradient>
<radialGradient id="paint1_angular" cx="0" cy="0" r="1" gradientUnits="userSpaceOnUse" gradientTransform="translate(13 11.9713) rotate(90) scale(11.9713 13)">
<stop stop-color="#4E4E9D"/>
<stop offset="1" stop-color="#24246C"/>
</radialGradient>
<radialGradient id="paint2_angular" cx="0" cy="0" r="1" gradientUnits="userSpaceOnUse" gradientTransform="translate(12.9999 11.1232) rotate(90) scale(1.92106)">
<stop stop-color="#4E4E9D"/>
<stop offset="1" stop-color="#24246C"/>
</radialGradient>
</defs>
</svg>
