<svg width="24" height="24" viewBox="0 0 24 24" fill="none" xmlns="http://www.w3.org/2000/svg">
<path d="M5.66002 4.19989L6.05002 4.5899C6.44002 4.9699 6.44002 5.60989 6.05002 5.98989L6.04002 5.9999C5.65002 6.38989 5.03002 6.38989 4.64002 5.9999L4.25002 5.6099C3.86002 5.2299 3.86002 4.5999 4.25002 4.2099L4.26002 4.19989C4.64002 3.81989 5.27002 3.8099 5.66002 4.19989Z" fill="#4E4E9D"/>
<path d="M1.99 10.9502H3.01C3.56 10.9502 4 11.3902 4 11.9502V11.9602C4 12.5102 3.56 12.9502 3 12.9402H1.99C1.44 12.9402 1 12.5002 1 11.9502V11.9402C1 11.3902 1.44 10.9502 1.99 10.9502Z" fill="#4E4E9D"/>
<path d="M12 1H12.01C12.56 1 13 1.44 13 1.99V2.96C13 3.51 12.56 3.95 12 3.94H11.99C11.44 3.94 11 3.5 11 2.95V1.99C11 1.44 11.44 1 12 1Z" fill="#4E4E9D"/>
<path d="M18.34 4.19978C18.73 3.81978 19.36 3.81978 19.75 4.20978C20.14 4.59978 20.14 5.21978 19.75 5.60978L19.36 5.99978C18.98 6.38978 18.35 6.38978 17.96 5.99978L17.95 5.98978C17.56 5.60978 17.56 4.97978 17.95 4.58978L18.34 4.19978Z" fill="#4E4E9D"/>
<path d="M18.3299 19.7001L17.9399 19.3101C17.5499 18.9201 17.5499 18.3001 17.9499 17.9001C18.3299 17.5201 18.9599 17.5101 19.3499 17.9001L19.7399 18.2901C20.1299 18.6801 20.1299 19.3101 19.7399 19.7001C19.3499 20.0901 18.7199 20.0901 18.3299 19.7001Z" fill="#4E4E9D"/>
<path d="M20 11.9502V11.9402C20 11.3902 20.44 10.9502 20.99 10.9502H22C22.55 10.9502 22.99 11.3902 22.99 11.9402V11.9502C22.99 12.5002 22.55 12.9402 22 12.9402H20.99C20.44 12.9402 20 12.5002 20 11.9502Z" fill="#4E4E9D"/>
<path fill-rule="evenodd" clip-rule="evenodd" d="M6 11.9502C6 8.6402 8.69 5.9502 12 5.9502C15.31 5.9502 18 8.6402 18 11.9502C18 15.2602 15.31 17.9502 12 17.9502C8.69 17.9502 6 15.2602 6 11.9502ZM12 16.0002C14.2091 16.0002 16 14.2093 16 12.0002C16 9.79106 14.2091 8.0002 12 8.0002C9.79086 8.0002 8 9.79106 8 12.0002C8 14.2093 9.79086 16.0002 12 16.0002Z" fill="#4E4E9D"/>
<path d="M12 22.9H11.99C11.44 22.9 11 22.46 11 21.91V20.95C11 20.4 11.44 19.96 11.99 19.96H12C12.55 19.96 12.99 20.4 12.99 20.95V21.91C12.99 22.46 12.55 22.9 12 22.9Z" fill="#4E4E9D"/>
<path d="M5.66006 19.6902C5.27006 20.0802 4.64006 20.0802 4.25006 19.6902C3.86006 19.3002 3.86006 18.6802 4.24006 18.2802L4.63006 17.8902C5.02006 17.5002 5.65006 17.5002 6.04006 17.8902L6.05006 17.9002C6.43006 18.2802 6.44006 18.9102 6.05006 19.3002L5.66006 19.6902Z" fill="#4E4E9D"/>
</svg>
