<svg width="27" height="24" viewBox="0 0 27 24" fill="none" xmlns="http://www.w3.org/2000/svg">
<path d="M25.45 8.1902L14.45 21.4802H14.39H14.24H14.11H14.05H14L25.45 8.1902ZM25.45 8.1902C25.4514 8.17022 25.4514 8.15018 25.45 8.1302V8.1902ZM10.0703 6.13215L8.21703 3.5002H11.9258L10.7614 5.15206L10.7613 5.15212L10.0703 6.13215ZM23.0519 8.8702L16.3441 17.0322L18.4379 8.8702H23.0519ZM6.28072 4.23551L8.14214 6.8602H4.42567L6.28072 4.23551ZM25.9969 7.35408L25.9969 7.35405L25.9929 7.34814L22.4991 2.23439C22.4982 2.22504 22.4971 2.2157 22.4959 2.20637L22.4849 2.12105L22.4461 2.04431C22.3527 1.85992 22.2045 1.70901 22.0218 1.61231C21.8503 1.52148 21.6562 1.48267 21.4634 1.5002H6.28001H6.26082L6.24168 1.50167C6.09984 1.51258 5.96202 1.55392 5.8376 1.6229L5.80343 1.64184L5.77262 1.66585C5.73071 1.69852 5.69161 1.73459 5.65573 1.77367C5.61709 1.80499 5.58097 1.83935 5.54772 1.87644L5.52927 1.89702L5.5132 1.91951L1.6832 7.27951L1.68319 7.2795L1.68148 7.28193C1.58518 7.4184 1.52472 7.57664 1.50534 7.74212C1.48247 7.85714 1.48023 7.97521 1.49864 8.09083C1.49877 8.11389 1.49976 8.13696 1.5016 8.15997L1.51494 8.32714L1.62637 8.45245L13.5064 21.8124L13.6555 21.9802H13.88H14H14.05H14.11H14.24H14.39H14.45H14.6852L14.8352 21.799L25.8083 8.54154C25.8215 8.53662 25.839 8.52981 25.8571 8.52163C25.8669 8.51717 25.8955 8.50413 25.928 8.48322C25.9426 8.47384 25.9788 8.44985 26.0171 8.41065L26.0177 8.41004C26.036 8.39133 26.1234 8.3019 26.1514 8.15343C26.1777 8.02621 26.1784 7.89507 26.1535 7.76764C26.1328 7.61993 26.0793 7.4786 25.9969 7.35408ZM13.1268 5.2209L13.8445 4.23014L15.7057 6.8702H11.9642L13.1268 5.2209ZM11.4308 8.8702H16.404L14.1542 17.5534L11.4308 8.8702ZM9.33252 8.8602L11.8713 16.9768L4.71723 8.8602H9.33252ZM23.2516 6.8702H19.5884L21.42 4.24419L23.2516 6.8702ZM15.8384 3.5002H19.5017L17.67 6.1262L15.8384 3.5002Z" fill="#938E96" stroke="#938E96"/>
</svg>
