<svg width="29" height="27" viewBox="0 0 29 27" fill="none" xmlns="http://www.w3.org/2000/svg">
<path d="M26.6553 12.8069L23.7693 15.6351L19.1221 14.9821L21.4204 12.1731C21.6778 11.8586 21.6549 11.4002 21.3675 11.1128L14.6556 4.40084C14.3682 4.11349 13.9099 4.0906 13.5954 4.34795L12.4512 5.28404C12.0936 4.0385 11.3327 3.07072 10.2824 2.58092C9.08708 2.02351 7.68656 2.13578 6.33898 2.89706C5.07762 3.60961 4.00073 4.82182 3.30658 6.31041C2.23982 8.59809 2.29867 11.0871 3.38284 12.7037L1.28996 14.416C0.927779 14.7124 0.90099 15.257 1.23158 15.5875L10.181 24.5369C10.5119 24.8679 11.0565 24.8402 11.3525 24.4785L13.4316 21.9374L23.7648 20.4753L26.6497 23.3602C27.1458 23.8565 28 23.5056 28 22.8009V13.3719C28 12.6729 27.1551 12.3171 26.6553 12.8069ZM4.74033 6.97898C5.29631 5.7867 6.14038 4.8262 7.11703 4.27443C8.00756 3.77135 8.89413 3.67911 9.61375 4.01472C10.4095 4.38576 10.938 5.26927 11.0672 6.41635L4.61466 11.6957C3.92152 10.5355 3.94678 8.68078 4.74033 6.97898ZM10.6815 22.8001L2.96829 15.0869L14.0431 6.0257L19.7427 11.7254L10.6815 22.8001ZM17.9498 16.415L23.2539 17.1603V18.9497L14.91 20.1303L17.9498 16.415ZM26.4179 20.8911L24.8359 19.3091V16.805L26.4179 15.2546V20.8911Z" fill="#938E96" stroke="#938E96" stroke-width="2"/>
</svg>
