<svg width="28" height="28" viewBox="0 0 28 28" fill="none" xmlns="http://www.w3.org/2000/svg">
<path d="M5.83325 14H22.1666V23.3333C22.1666 23.6428 22.0437 23.9395 21.8249 24.1583C21.6061 24.3771 21.3093 24.5 20.9999 24.5H6.99992C6.6905 24.5 6.39375 24.3771 6.17496 24.1583C5.95617 23.9395 5.83325 23.6428 5.83325 23.3333V14Z" stroke="#524F9E" stroke-width="4" stroke-linecap="round" stroke-linejoin="round"/>
<path d="M6.73167 4.29334L3.5 14H24.5L21.2683 4.29334C21.1901 4.06161 21.041 3.86035 20.8421 3.71799C20.6432 3.57563 20.4046 3.49937 20.16 3.5H7.84C7.59542 3.49937 7.35682 3.57563 7.15793 3.71799C6.95905 3.86035 6.80993 4.06161 6.73167 4.29334Z" stroke="#524F9E" stroke-width="4" stroke-linecap="round" stroke-linejoin="round"/>
</svg>
