<svg width="23" height="26" viewBox="0 0 23 26" fill="none" xmlns="http://www.w3.org/2000/svg">
<path d="M19.0392 7.74993L21.9642 1.53474C22.0189 1.4185 22.0099 1.28237 21.9413 1.174C21.8727 1.06562 21.7534 1 21.6248 1H3.62497H2.87498C1.84112 1 1 1.84112 1 2.87498V23.4998C1 24.327 1.67274 24.9997 2.49998 24.9997C3.32723 24.9997 3.99997 24.327 3.99997 23.4998V14.4999H21.6248C21.7534 14.4999 21.8727 14.4342 21.9417 14.3259C22.0103 14.2175 22.0189 14.0814 21.9646 13.9651L19.0392 7.74993ZM3.24998 23.4998C3.24998 23.9134 2.9136 24.2497 2.49998 24.2497C2.08636 24.2497 1.74999 23.9134 1.74999 23.4998V2.87498C1.74999 2.25474 2.25474 1.74999 2.87498 1.74999H3.24998V23.4998ZM3.99997 13.7499V1.74999H21.0338L18.2855 7.59018C18.2382 7.69143 18.2382 7.80843 18.2855 7.90968L21.0338 13.7499H3.99997Z" fill="#938E96" stroke="#938E96" stroke-width="2"/>
</svg>
