<svg width="144" height="16" viewBox="0 0 144 16" fill="none" xmlns="http://www.w3.org/2000/svg">
<path d="M14.3438 1.69531L15.082 13.2881L10.5996 13.666L10.3623 7.7334L9.45703 11.8115L5.43164 12.374L3.79688 8.16406L4.38574 13.1562L0.28125 14L0.84375 1.69531L4.87793 1.15918L7.11035 8.19043L9.81738 1.37012L14.3438 1.69531ZM22.6846 14C20.7041 14 19.0137 13.3994 17.6133 12.1982C16.2188 10.9971 15.5215 9.54688 15.5215 7.84766C15.5215 6.14844 16.2188 4.69824 17.6133 3.49707C19.0137 2.2959 20.7041 1.69531 22.6846 1.69531C24.6592 1.69531 26.3438 2.2959 27.7383 3.49707C29.1387 4.69824 29.8389 6.14844 29.8389 7.84766C29.8389 9.54688 29.1387 10.9971 27.7383 12.1982C26.3438 13.3994 24.6592 14 22.6846 14ZM22.1924 10.1592C23.0361 10.1592 23.7568 9.90137 24.3545 9.38574C24.958 8.87012 25.2598 8.24902 25.2598 7.52246C25.2598 6.7959 24.958 6.1748 24.3545 5.65918C23.7568 5.14355 23.0361 4.88574 22.1924 4.88574C21.3428 4.88574 20.6162 5.14355 20.0127 5.65918C19.415 6.1748 19.1162 6.7959 19.1162 7.52246C19.1162 8.24902 19.415 8.87012 20.0127 9.38574C20.6162 9.90137 21.3428 10.1592 22.1924 10.1592ZM34.6904 7.84766L35.5605 12.8838L31.1748 14L30.2871 2.45996L34.6904 1.69531L39.0322 7.44336L39.085 1.69531L44.5342 1.13281L42.6006 14L39.1113 14.5098L34.6904 7.84766ZM47.6279 9.13965C45.5127 8.84082 44.5781 7.52539 44.8242 5.19336C45.0703 2.86133 47.7891 1.48145 52.9805 1.05371L53.7188 5.02637C51.1465 4.96777 49.7666 5.27246 49.5791 5.94043C49.3916 6.6084 50.376 6.99219 52.5322 7.0918C54.6885 7.19141 55.7432 8.50391 55.6963 11.0293C55.6494 13.5547 52.8105 14.9023 47.1797 15.0723L45.624 10.915C48.5068 11.2256 50.0918 11.082 50.3789 10.4844C50.666 9.88086 49.749 9.43262 47.6279 9.13965ZM61.585 5.43945L62.0156 12.9277L57.252 14.1582L58.0693 5.21094L54.4746 4.90332L54.7559 1.65137L65.0654 1.03613L65.4434 5.84375L61.585 5.43945ZM74.6367 0.113281L74.8652 4.77148L69.3984 5.36035L69.4688 6.42383L73.0547 6.08984L73.3711 9.27148L69.627 9.54395L69.6885 10.4053L74.9971 10.001L75.7881 14L65.3203 14.3604L66.3838 1.67773L74.6367 0.113281ZM80.543 4.5957L80.666 6.96875C83.5957 6.96875 85.0605 6.67578 85.0605 6.08984C85.0605 5.50391 83.5547 5.00586 80.543 4.5957ZM81.1318 13.2881L76.2363 13.9736L77.2559 0.851562C84.8027 1.41406 88.7021 2.92578 88.9541 5.38672C89.2119 7.8418 87.9141 9.54102 85.0605 10.4844L88.5762 12.3916L84.9727 15.582L80.8506 10.4844L81.1318 13.2881Z" fill="#524F9E"/>
<path d="M92.9619 9.13965C90.8467 8.84082 89.9121 7.52539 90.1582 5.19336C90.4043 2.86133 93.123 1.48145 98.3145 1.05371L99.0527 5.02637C96.4805 4.96777 95.1006 5.27246 94.9131 5.94043C94.7256 6.6084 95.71 6.99219 97.8662 7.0918C100.022 7.19141 101.077 8.50391 101.03 11.0293C100.983 13.5547 98.1445 14.9023 92.5137 15.0723L90.958 10.915C93.8408 11.2256 95.4258 11.082 95.7129 10.4844C96 9.88086 95.083 9.43262 92.9619 9.13965ZM110.268 7.84766L108.51 14L105.038 14.457L99.8086 4.1123L104.115 1.69531L106.752 8.72656L108.817 3.17188L112.333 3.65527L113.783 8.72656L115.893 1.44043L120.674 4.05957L115.541 14L111.612 13.1562L110.268 7.84766ZM122.203 12.2422L121.588 14L118.125 11.9082L122.467 1.69531L125.771 1.4668L130.966 12.04L126.861 14L125.956 11.5303L122.203 12.2422ZM125.209 8.39258L124.225 5.21094L123.064 8.72656L125.209 8.39258ZM136.16 10.458L136.872 13.0859L132.284 14L131.414 2.23145C139.219 0.97168 143.317 2.25781 143.71 6.08984C143.71 9.01953 141.193 10.4756 136.16 10.458ZM134.956 5.25488L135.448 6.96875C138.612 6.96875 140.101 6.55273 139.913 5.7207C139.726 4.88867 138.073 4.7334 134.956 5.25488Z" fill="#46C3B1"/>
</svg>
