<svg width="31" height="30" viewBox="0 0 31 30" fill="none" xmlns="http://www.w3.org/2000/svg">
<rect x="2" width="16" height="16" rx="8" fill="#938E96"/>
<rect x="4" y="2" width="7" height="7" rx="3.5" fill="white"/>
<path d="M8.63184 3.7749L7.21094 7H6.58838L8.00684 3.92139H6.16846V3.44531H8.63184V3.7749Z" fill="#938E96"/>
<rect x="13.5" y="6.5" width="17" height="17" rx="8.5" fill="#938E96" stroke="white"/>
<rect x="0.5" y="12.5" width="17" height="17" rx="8.5" fill="#938E96" stroke="white"/>
<rect x="3" y="16" width="7" height="7" rx="3.5" fill="white"/>
<rect x="22.8743" y="11.7739" width="7" height="7" rx="3.5" transform="rotate(38.52 22.8743 11.7739)" fill="white"/>
<path d="M5.48228 19.4204L5.36087 17.6222L7.24101 17.2904L7.33009 17.7953L5.93561 18.0414L5.98706 18.895C6.13254 18.7735 6.30706 18.6948 6.51063 18.6589C6.84402 18.6 7.12168 18.661 7.34362 18.8416C7.56717 19.022 7.71075 19.2925 7.77438 19.6531C7.83716 20.009 7.78463 20.3108 7.6168 20.5586C7.44868 20.8047 7.1859 20.9593 6.82846 21.0224C6.50789 21.079 6.22584 21.0353 5.98231 20.8916C5.7401 20.7459 5.58388 20.5255 5.51365 20.2305L6.07865 20.1308C6.13107 20.2968 6.21502 20.4166 6.33052 20.4905C6.44573 20.5627 6.58348 20.5847 6.74377 20.5564C6.92329 20.5247 7.05142 20.436 7.12818 20.2902C7.20653 20.1442 7.2262 19.9606 7.18717 19.7394C7.14956 19.5262 7.06457 19.3677 6.9322 19.2638C6.79954 19.1583 6.63624 19.1226 6.4423 19.1568C6.33651 19.1755 6.2493 19.2058 6.18066 19.2476C6.11173 19.2879 6.0412 19.3565 5.96907 19.4535L5.48228 19.4204Z" fill="#938E96"/>
<path d="M23.286 15.9964L23.6035 16.1689C23.7645 16.2545 23.9136 16.2818 24.0508 16.2507C24.1895 16.2205 24.3008 16.1282 24.3847 15.9737C24.4655 15.825 24.4887 15.6885 24.4543 15.5642C24.4222 15.4393 24.326 15.3333 24.1658 15.2463C24.0257 15.1702 23.8884 15.1484 23.754 15.181C23.6204 15.2121 23.5182 15.2927 23.4475 15.4229L22.9262 15.1397C23.0133 14.9795 23.1347 14.8565 23.2906 14.7708C23.4479 14.6859 23.6221 14.6481 23.8133 14.6575C24.0068 14.6663 24.1979 14.7219 24.3867 14.8245C24.6984 14.9939 24.9003 15.2054 24.9921 15.4591C25.0862 15.7121 25.0575 15.978 24.906 16.2569C24.8298 16.3971 24.7129 16.5049 24.5552 16.5804C24.3997 16.6552 24.2341 16.6856 24.0583 16.6716C24.1981 16.8235 24.2781 16.9864 24.2984 17.1605C24.3201 17.3353 24.2836 17.5099 24.1888 17.6844C24.0365 17.9647 23.8188 18.1354 23.5356 18.1964C23.2538 18.2582 22.9563 18.204 22.6431 18.0338C22.3428 17.8706 22.1403 17.6569 22.0357 17.3926C21.9311 17.1283 21.951 16.8632 22.0955 16.5972L22.6168 16.8804C22.5422 17.0177 22.5274 17.1541 22.5723 17.2896C22.6186 17.4259 22.7198 17.5364 22.8757 17.6211C23.0373 17.7089 23.1879 17.7352 23.3274 17.6999C23.467 17.6646 23.5811 17.5654 23.6697 17.4023C23.759 17.2379 23.7792 17.0849 23.7301 16.9434C23.681 16.8019 23.5606 16.6791 23.369 16.5749L23.0622 16.4083L23.286 15.9964Z" fill="#938E96"/>
</svg>
