<svg width="28" height="28" viewBox="0 0 28 28" fill="none" xmlns="http://www.w3.org/2000/svg">
<path d="M13.9999 2.3335C16.3074 2.3335 18.563 3.01773 20.4816 4.29968C22.4001 5.58163 23.8955 7.40372 24.7785 9.53552C25.6615 11.6673 25.8926 14.0131 25.4424 16.2762C24.9923 18.5393 23.8811 20.6181 22.2495 22.2497C20.6179 23.8814 18.5391 24.9925 16.276 25.4427C14.0129 25.8928 11.6671 25.6618 9.53528 24.7788C7.40347 23.8957 5.58139 22.4004 4.29944 20.4818C3.01749 18.5632 2.33325 16.3076 2.33325 14.0002M13.9999 2.3335C10.9057 2.3335 7.93826 3.56266 5.75034 5.75058C3.56242 7.93851 2.33325 10.906 2.33325 14.0002M13.9999 2.3335V14.0002M2.33325 14.0002H13.9999M13.9999 14.0002L22.2366 22.2368" stroke="#938E96" stroke-width="4" stroke-linecap="round" stroke-linejoin="round"/>
</svg>
