<svg width="12" height="14" viewBox="0 0 12 14" fill="none" xmlns="http://www.w3.org/2000/svg">
<path d="M0.0800004 7.37981C0.127594 7.50256 0.198961 7.61471 0.290001 7.70981L5.29 12.7098C5.38324 12.8031 5.49393 12.877 5.61575 12.9275C5.73757 12.9779 5.86814 13.0039 6 13.0039C6.2663 13.0039 6.5217 12.8981 6.71 12.7098C6.80324 12.6166 6.8772 12.5059 6.92766 12.3841C6.97812 12.2622 7.00409 12.1317 7.00409 11.9998C7.00409 11.7335 6.8983 11.4781 6.71 11.2898L3.41 7.99981L11 7.99981C11.2652 7.99981 11.5196 7.89446 11.7071 7.70692C11.8946 7.51938 12 7.26503 12 6.99981C12 6.7346 11.8946 6.48024 11.7071 6.29271C11.5196 6.10517 11.2652 5.99981 11 5.99981L3.41 5.99981L6.71 2.70981C6.80373 2.61685 6.87812 2.50625 6.92889 2.38439C6.97966 2.26253 7.0058 2.13183 7.0058 1.99981C7.0058 1.8678 6.97966 1.7371 6.92889 1.61524C6.87812 1.49338 6.80373 1.38278 6.71 1.28982C6.61704 1.19609 6.50644 1.12169 6.38458 1.07092C6.26272 1.02015 6.13201 0.994016 6 0.994016C5.86799 0.994016 5.73728 1.02015 5.61542 1.07092C5.49357 1.12169 5.38296 1.19609 5.29 1.28982L0.290002 6.28981C0.198961 6.38492 0.127595 6.49706 0.0800005 6.61981C-0.0200171 6.86327 -0.0200171 7.13635 0.0800004 7.37981Z" fill="white"/>
</svg>
