<svg width="29" height="29" viewBox="0 0 29 29" fill="none" xmlns="http://www.w3.org/2000/svg">
<path d="M14.4846 20.5444C16.1551 18.8739 16.157 16.1675 14.4889 14.4994C12.8208 12.8313 10.1143 12.8332 8.44386 14.5037L5.42775 17.5198C3.75728 19.1902 3.75537 21.8967 5.42348 23.5648C7.09159 25.2329 9.79804 25.231 11.4685 23.5605L14.4846 20.5444Z" stroke="#938E96" stroke-width="4" stroke-linecap="round" stroke-linejoin="round"/>
<path d="M24.1558 10.8774C25.8262 9.20695 25.8281 6.5005 24.16 4.83239C22.4919 3.16428 19.7855 3.16619 18.115 4.83666L15.0989 7.85277C13.4284 9.52324 13.4265 12.2297 15.0946 13.8978C16.7627 15.5659 19.4692 15.564 21.1396 13.8935L24.1558 10.8774Z" stroke="#938E96" stroke-width="4" stroke-linecap="round" stroke-linejoin="round"/>
<path d="M12.0833 16.9168L16.9166 12.0835" stroke="#938E96" stroke-width="4" stroke-linecap="round" stroke-linejoin="round"/>
</svg>
