<svg width="18" height="18" viewBox="0 0 18 18" fill="none" xmlns="http://www.w3.org/2000/svg">
<path d="M9 0C4.02985 0 0 4.02985 0 8.9904C0 13.9606 4.02985 18 9 18C13.9701 18 18 13.9606 18 8.9904C18 4.02985 13.9701 0 9 0ZM13.4328 5.65139C13.3753 6.48614 11.8305 12.7228 11.8305 12.7228C11.8305 12.7228 11.7345 13.0874 11.3987 13.097C11.2836 13.097 11.1301 13.0874 10.9574 12.9243C10.6023 12.6269 9.7964 12.0512 9.0384 11.5235C9.0096 11.5522 8.9808 11.581 8.9424 11.6098C8.7697 11.7633 8.5107 11.984 8.2324 12.2527C8.1269 12.3486 8.0117 12.4542 7.8966 12.5693L7.887 12.5789C7.8198 12.6461 7.7623 12.694 7.7143 12.7324C7.3401 13.0394 7.3017 12.7804 7.3017 12.6461L7.5032 10.4488V10.4296L7.5128 10.4104C7.5224 10.3817 7.5416 10.3721 7.5416 10.3721C7.5416 10.3721 11.4659 6.87953 11.5714 6.50533C11.581 6.48614 11.5522 6.46695 11.5043 6.48614C11.2452 6.57249 6.72601 9.4318 6.22708 9.7484C6.19829 9.7676 6.11194 9.758 6.11194 9.758L3.91471 9.0384C3.91471 9.0384 3.65565 8.9328 3.742 8.693C3.76119 8.645 3.78998 8.597 3.89552 8.5299C4.38486 8.1844 12.8955 5.12367 12.8955 5.12367C12.8955 5.12367 13.1354 5.04691 13.2793 5.09488C13.3465 5.12367 13.3849 5.15245 13.4232 5.2484C13.4328 5.28678 13.4424 5.36354 13.4424 5.44989C13.4424 5.49787 13.4328 5.55544 13.4328 5.65139Z" fill="#4E4E9D"/>
</svg>
