<svg width="27" height="27" viewBox="0 0 27 27" fill="none" xmlns="http://www.w3.org/2000/svg">
<path d="M7.875 3.375C6.98499 3.375 6.11496 3.63892 5.37494 4.13339C4.63491 4.62785 4.05814 5.33066 3.71754 6.15292C3.37695 6.97519 3.28783 7.87999 3.46147 8.75291C3.6351 9.62582 4.06368 10.4276 4.69302 11.057C5.32236 11.6863 6.12418 12.1149 6.9971 12.2885C7.87001 12.4622 8.77481 12.3731 9.59708 12.0325C10.4193 11.6919 11.1221 11.1151 11.6166 10.3751C12.1111 9.63504 12.375 8.76502 12.375 7.875C12.375 6.68153 11.9009 5.53693 11.057 4.69302C10.2131 3.84911 9.06848 3.375 7.875 3.375ZM19.125 23.625C20.015 23.625 20.885 23.3611 21.6251 22.8666C22.3651 22.3721 22.9419 21.6693 23.2825 20.8471C23.6231 20.0248 23.7122 19.12 23.5385 18.2471C23.3649 17.3742 22.9363 16.5724 22.307 15.943C21.6776 15.3137 20.8758 14.8851 20.0029 14.7115C19.13 14.5378 18.2252 14.6269 17.4029 14.9675C16.5807 15.3081 15.8779 15.8849 15.3834 16.6249C14.8889 17.365 14.625 18.235 14.625 19.125C14.625 20.3185 15.0991 21.4631 15.943 22.307C16.7869 23.1509 17.9315 23.625 19.125 23.625Z" stroke="#938E96" stroke-width="4" stroke-linecap="round" stroke-linejoin="round"/>
<path d="M19.8676 5.13264C18.889 4.1593 17.6995 3.4241 16.3914 2.98389C16.3914 2.98389 17.5975 3.44803 18.2945 3.8841C18.9594 4.30009 19.2533 4.64505 19.8676 5.13264ZM19.8676 5.13264C20.9047 6.17164 22.0588 9.09987 22.5 10.5M19.8676 5.13264C20.4601 5.7262 20.758 6.10479 21.1958 6.82014C21.6493 7.56129 22.5 10.5 22.5 10.5M22.5 10.5L18.2945 8.83735M22.5 10.5L24.8296 6.82014" stroke="#938E96" stroke-width="3" stroke-linecap="round" stroke-linejoin="round"/>
<path d="M5.31879 19.685C4.93014 19.0508 4.6189 18.3693 4.39375 17.6548C4.39375 17.6548 4.86208 18.9387 5.3156 19.6798C5.31666 19.6815 5.31772 19.6833 5.31879 19.685ZM5.31879 19.685C5.69172 20.2936 6.13592 20.8585 6.64375 21.3673M5.31879 19.685C5.75477 20.397 6.05274 20.7752 6.64375 21.3673M6.64375 21.3673C7.12668 21.8476 7.66539 22.3887 8.23991 22.7462M6.64375 21.3673C7.26572 21.8594 7.56795 22.3279 8.23991 22.7462M8.23991 22.7462C8.82965 23.1132 10.5 24 11.5 24C11.5 24 10.8255 23.9226 10.077 23.6592C9.39517 23.4192 8.65547 23.0049 8.23991 22.7462ZM8.23991 17.8029L4 15.5L2 20" stroke="#938E96" stroke-width="3" stroke-linecap="round" stroke-linejoin="round"/>
</svg>
