<svg width="18" height="15" viewBox="0 0 18 15" fill="none" xmlns="http://www.w3.org/2000/svg">
<path d="M5.65854 15C12.4488 15 16.1659 9.2338 16.1659 4.23717C16.1659 4.07728 16.1659 3.91739 16.1561 3.7475C16.878 3.21785 17.5024 2.5483 18 1.78881C17.3366 2.08861 16.6244 2.28847 15.8732 2.38841C16.6341 1.91872 17.2195 1.17921 17.5024 0.28981C16.7902 0.72951 16 1.03931 15.1512 1.20919C14.478 0.45969 13.522 0 12.4585 0C10.4195 0 8.761 1.69887 8.761 3.78747C8.761 4.08728 8.8 4.36709 8.8585 4.6469C5.79512 4.497 3.07317 2.97801 1.24878 0.68954C0.92683 1.25916 0.75122 1.90873 0.75122 2.59827C0.75122 3.90739 1.40488 5.06662 2.39024 5.74617C1.78537 5.72618 1.21951 5.5563 0.72195 5.27648C0.72195 5.28648 0.72195 5.30646 0.72195 5.32645C0.72195 7.1552 2 8.6942 3.67805 9.034C3.36585 9.1239 3.0439 9.1639 2.70244 9.1639C2.46829 9.1639 2.23415 9.1439 2.00976 9.0939C2.47805 10.6029 3.8439 11.6922 5.46341 11.7222C4.19512 12.7415 2.60488 13.3411 0.87805 13.3411C0.58537 13.3411 0.28293 13.3311 0 13.2911C1.62927 14.3704 3.57073 15 5.65854 15Z" fill="#4E4E9D"/>
</svg>
