<svg width="558" height="141" viewBox="0 0 558 141" fill="none" xmlns="http://www.w3.org/2000/svg">
<g clip-path="url(#clip0)">
<path d="M116.3 66.8008C120.8 66.8008 124.3 67.7008 126.7 69.4008C129.1 71.1008 130.3 73.9008 130.3 77.5008C130.3 79.8008 129.8 81.7008 128.8 83.1008C127.8 84.5008 126.4 85.7008 124.6 86.5008C125.2 87.3008 125.8 88.3008 126.5 89.3008C127.2 90.4008 127.8 91.5008 128.5 92.6008C129.2 93.7008 129.8 94.9008 130.4 96.2008C131 97.4008 131.6 98.7008 132.1 99.9008H124.5C123.9 98.8008 123.4 97.7008 122.8 96.6008C122.2 95.5008 121.6 94.4008 121 93.4008C120.4 92.4008 119.8 91.4008 119.2 90.5008C118.6 89.6008 118 88.7008 117.4 88.0008H114V99.9008H107.2V67.7008C108.7 67.4008 110.2 67.2008 111.8 67.0008C113.6 66.9008 115 66.8008 116.3 66.8008ZM116.7 73.1008C116.2 73.1008 115.8 73.1008 115.4 73.1008C115 73.1008 114.6 73.2008 114.3 73.2008V82.1008H116.2C118.8 82.1008 120.6 81.8008 121.7 81.1008C122.8 80.4008 123.4 79.2008 123.4 77.6008C123.4 76.0008 122.8 74.9008 121.7 74.2008C120.5 73.4008 118.8 73.1008 116.7 73.1008Z" fill="#370379"/>
<path d="M134.2 99.9012V67.2012H154.6V73.4012H141V79.8012H153.1V85.8012H141V93.7012H155.6V99.9012H134.2Z" fill="#370379"/>
<path d="M158.3 99.9012V67.2012H178.5V73.4012H165.1V80.2012H177.1V86.4012H165.1V99.9012H158.3Z" fill="#370379"/>
<path d="M181 99.9012V67.2012H201.4V73.4012H187.8V79.8012H199.9V85.8012H187.8V93.7012H202.4V99.9012H181Z" fill="#370379"/>
<path d="M214 66.8008C218.5 66.8008 222 67.7008 224.4 69.4008C226.8 71.1008 228 73.9008 228 77.5008C228 79.8008 227.5 81.7008 226.5 83.1008C225.5 84.5008 224.1 85.7008 222.3 86.5008C222.9 87.3008 223.5 88.3008 224.2 89.3008C224.9 90.4008 225.5 91.5008 226.2 92.6008C226.9 93.7008 227.5 94.9008 228.1 96.2008C228.7 97.4008 229.3 98.7008 229.8 99.9008H222.2C221.6 98.8008 221.1 97.7008 220.5 96.6008C219.9 95.5008 219.3 94.4008 218.7 93.4008C218.1 92.4008 217.5 91.4008 216.9 90.5008C216.3 89.6008 215.7 88.7008 215.1 88.0008H211.7V99.9008H204.9V67.7008C206.4 67.4008 207.9 67.2008 209.5 67.0008C211.3 66.9008 212.7 66.8008 214 66.8008ZM214.4 73.1008C213.9 73.1008 213.5 73.1008 213.1 73.1008C212.7 73.1008 212.3 73.2008 212 73.2008V82.1008H213.9C216.5 82.1008 218.3 81.8008 219.4 81.1008C220.5 80.4008 221.1 79.2008 221.1 77.6008C221.1 76.0008 220.5 74.9008 219.4 74.2008C218.2 73.4008 216.6 73.1008 214.4 73.1008Z" fill="#370379"/>
<path d="M260.4 99.9004C260.1 98.8004 259.7 97.6004 259.3 96.4004C258.9 95.2004 258.5 94.0004 258.1 92.8004H246.3C245.9 94.0004 245.5 95.2004 245.2 96.4004C244.8 97.6004 244.5 98.8004 244.1 99.9004H237C238.1 96.4004 239.2 93.1004 240.2 90.2004C241.2 87.3004 242.2 84.4004 243.2 81.8004C244.2 79.2004 245.1 76.7004 246.1 74.3004C247.1 71.9004 248 69.6004 249.1 67.4004H255.6C256.6 69.7004 257.6 72.0004 258.5 74.3004C259.4 76.6004 260.4 79.2004 261.4 81.8004C262.4 84.4004 263.4 87.2004 264.4 90.2004C265.4 93.2004 266.5 96.4004 267.6 99.9004H260.4ZM252.2 74.6004C252.1 75.1004 251.8 75.7004 251.5 76.5004C251.2 77.3004 250.9 78.3004 250.5 79.3004C250.1 80.4004 249.7 81.5004 249.2 82.8004C248.7 84.1004 248.3 85.4004 247.8 86.8004H256.4C255.9 85.4004 255.5 84.0004 255.1 82.7004C254.7 81.4004 254.3 80.2004 253.9 79.2004C253.5 78.1004 253.2 77.2004 252.9 76.4004C252.6 75.7004 252.4 75.1004 252.2 74.6004Z" fill="#370379"/>
<path d="M116.4 139.799V107.199H136.6V113.399H123.2V120.199H135.2V126.399H123.2V139.899H116.4V139.799Z" fill="#370379"/>
<path d="M148 106.799C152.5 106.799 156 107.699 158.4 109.399C160.8 111.099 162 113.899 162 117.499C162 119.799 161.5 121.699 160.5 123.099C159.5 124.499 158.1 125.699 156.3 126.499C156.9 127.299 157.5 128.299 158.2 129.299C158.9 130.399 159.5 131.499 160.2 132.599C160.9 133.699 161.5 134.899 162.1 136.199C162.7 137.399 163.3 138.699 163.8 139.899H156.2C155.6 138.799 155.1 137.699 154.5 136.599C153.9 135.499 153.3 134.399 152.7 133.399C152.1 132.399 151.5 131.399 150.9 130.499C150.3 129.599 149.7 128.699 149.1 127.999H145.7V139.899H138.9V107.699C140.4 107.399 141.9 107.199 143.5 106.999C145.3 106.899 146.7 106.799 148 106.799ZM148.4 113.099C147.9 113.099 147.5 113.099 147.1 113.099C146.7 113.099 146.3 113.199 146 113.199V122.099H147.9C150.5 122.099 152.3 121.799 153.4 121.099C154.5 120.399 155.1 119.199 155.1 117.599C155.1 115.999 154.5 114.899 153.4 114.199C152.2 113.399 150.6 113.099 148.4 113.099Z" fill="#370379"/>
<path d="M165.9 107.199H172.7V139.799H165.9V107.199Z" fill="#370379"/>
<path d="M177.4 139.799V107.199H197.8V113.399H184.2V119.799H196.3V125.799H184.2V133.699H198.8V139.899H177.4V139.799Z" fill="#370379"/>
<path d="M221.8 139.8C219.9 136.1 217.7 132.4 215.5 128.7C213.2 125.1 210.8 121.6 208.3 118.4V139.8H201.6V107.2H207.1C208.1 108.2 209.1 109.5 210.3 111C211.5 112.5 212.6 114.1 213.9 115.8C215.1 117.5 216.3 119.3 217.5 121.1C218.7 122.9 219.8 124.7 220.9 126.4V107.1H227.7V139.7H221.8V139.8Z" fill="#370379"/>
<path d="M258.6 123.499C258.6 126.299 258.2 128.799 257.4 130.899C256.6 132.999 255.4 134.699 253.9 136.099C252.4 137.499 250.6 138.499 248.4 139.199C246.2 139.899 243.8 140.199 241.2 140.199C240 140.199 238.6 140.099 236.9 139.999C235.3 139.899 233.7 139.699 232.1 139.299V107.499C233.7 107.199 235.3 106.999 237 106.899C238.7 106.799 240.2 106.699 241.4 106.699C244 106.699 246.3 106.999 248.4 107.599C250.5 108.199 252.3 109.199 253.8 110.599C255.3 111.999 256.5 113.699 257.3 115.799C258.2 117.999 258.6 120.499 258.6 123.499ZM239 133.899C239.3 133.899 239.7 133.999 240.1 133.999C240.5 133.999 241 133.999 241.6 133.999C245 133.999 247.5 133.099 249.2 131.199C250.8 129.299 251.7 126.799 251.7 123.499C251.7 120.099 250.9 117.499 249.3 115.699C247.7 113.899 245.2 113.099 241.8 113.099C241.3 113.099 240.9 113.099 240.4 113.099C239.9 113.099 239.4 113.199 239 113.199V133.899Z" fill="#370379"/>
<path d="M74.9 41.4994C74.2 42.1994 73.2 42.4994 72.3 42.3994C69.5 42.0994 66.9 40.2994 65.2 37.9994C63 35.0994 62 31.3994 63.5 28.3994C67.4 25.4994 71.3 22.5994 71.9 15.9994C72 14.8994 72.9 14.1994 73.9 14.4994C76.7 15.4994 78.7 17.6994 79.9 20.4994C82.3 26.6994 80.9 35.6994 74.9 41.4994Z" fill="#F9993E"/>
<path opacity="0.6" d="M79.2 19.499C78 17.999 76.5 16.799 74.7 16.099C73.8 15.799 72.8 16.499 72.7 17.599C72.1 24.199 68.2 27.099 64.3 29.999C63.1 32.399 63.5 35.299 64.9 37.899C62.8 34.999 61.9 31.399 63.3 28.499C67.2 25.599 71.1 22.699 71.7 16.099C71.8 14.999 72.7 14.299 73.7 14.599C76.2 15.399 78 17.199 79.2 19.499Z" fill="white"/>
<path d="M74.9 41.499C83.7 33.099 82.7 17.799 73.8 14.599C72.9 14.299 71.9 14.999 71.8 16.099C71.2 22.699 67.3 25.599 63.5 28.499C60.8 33.799 66.1 41.799 72.4 42.499C73.2 42.499 74.2 42.199 74.9 41.499Z" stroke="#370379" stroke-width="1.9322" stroke-miterlimit="10" stroke-linecap="round" stroke-linejoin="round"/>
<path opacity="0.3" d="M74.9 41.5C74.2 42.2 73.2 42.5 72.3 42.4C69.5 42.1 66.9 40.3 65.2 38C74.2 40.7 81.2 32.7 79.8 20.5C82.3 26.7 80.9 35.7 74.9 41.5Z" fill="#370379"/>
<path d="M75.5 61.5008C75.5 61.5008 82.9 55.9008 86.5 53.2008C90.2 50.5008 98.2 51.4008 94.6 62.1008C91 72.8008 82.7 81.0008 81 82.3008" fill="#9A7AC6"/>
<path opacity="0.3" d="M94.6 62.0996C91 72.7996 82.7 80.9996 81 82.2996L79.8 77.6996C83.2 74.6996 89.2 68.2996 92.5 60.2996C93.9 56.7996 94 54.2996 93.3 52.5996C95.3 53.8996 96.4 56.6996 94.6 62.0996Z" fill="#370379"/>
<path opacity="0.6" d="M95.3 55.4002C93.4 53.1002 89.7 53.4002 87.5 55.0002C83.8 57.7002 76.5 63.3002 76.5 63.3002L81.5 82.0002C81.4 82.1002 81.3 82.2002 81.2 82.3002L75.7 61.5002C75.7 61.5002 83.1 55.9002 86.7 53.2002C89.2 51.2002 94.2 51.2002 95.3 55.4002Z" fill="white"/>
<path d="M75.5 61.5008C75.5 61.5008 82.9 55.9008 86.5 53.2008C90.2 50.5008 98.2 51.4008 94.6 62.1008C91 72.8008 82.7 81.0008 81 82.3008" stroke="#370379" stroke-width="2.028" stroke-miterlimit="10" stroke-linecap="round" stroke-linejoin="round"/>
<path d="M72.8 139.5H60.8H53C51.9 139.5 51 138.7 50.9 137.6L49.6 126.2L49.5 125.4L71.3 119.4L68.9 133.5C73.2 135.1 72.8 139.5 72.8 139.5Z" fill="#9A7AC6"/>
<path d="M49.4 125.301L50.8 137.501C50.9 138.601 51.8 139.401 52.9 139.401H72.7C72.7 139.401 73.1 135.001 68.8 133.401L71.2 119.301" stroke="#370379" stroke-width="2.028" stroke-miterlimit="10" stroke-linecap="round" stroke-linejoin="round"/>
<path d="M79.9 111.9C74 120.7 62.8 126.1 45.7 125.4L44.3 137.6C44.2 138.7 43.3 139.5 42.2 139.5H22.4C22.4 139.5 22 135.1 26.3 133.5L24.2 120.9C21 119.3 18.4 117.2 16.3 114.9C16.3 114.9 16.2 114.8 16.1 114.7C10.5 108.8 8.19996 101.7 7.29996 97.9002C3.19996 98.4002 1.29996 95.9002 1.09996 91.7002C0.699964 83.8002 14.7 67.0002 14.7 67.0002C16.7 57.0002 18.6 39.9002 18.6 39.9002C18.6 39.9002 20.9 30.2002 28.5 25.8002C36.1 21.4002 64.8 27.3002 64.8 27.3002C72.8 32.3002 76.2 44.0002 76.5 55.7002C76.6 58.7002 77 61.7002 77.9 64.6002C78.1 65.5002 78.4 66.3002 78.8 67.2002C85.5 85.4002 89.8 96.9002 79.9 111.9Z" fill="#9A7AC6"/>
<path opacity="0.3" d="M35.4 29C35.4 29 39.2 36 48.6 37C58 38 66.3 38.7 70.5 33.9L69.5 32.5" fill="#370379"/>
<path opacity="0.6" d="M26 122.301L28.1 134.901C25.4 135.901 24.5 138.101 24.3 139.501H22.3C22.3 139.501 21.9 135.101 26.2 133.501L24.1 121.301C24.8 121.601 25.4 122.001 26 122.301Z" fill="white"/>
<path opacity="0.6" d="M66.7 28.8002C66.7 28.8002 66.6 28.7002 66.7 28.8002C66.6 28.8002 38 22.9002 30.4 27.3002C22.8 31.7002 20.5 41.4002 20.5 41.4002C20.5 41.4002 18.6 58.5002 16.6 68.5002C16.6 68.5002 2.59996 85.3002 2.89996 93.3002C2.99996 95.2002 3.39996 96.7002 4.29996 97.8002C2.19996 97.0002 1.19996 94.8002 1.09996 91.9002C0.699964 83.8002 14.7 67.0002 14.7 67.0002C16.7 57.0002 18.6 39.9002 18.6 39.9002C18.6 39.9002 20.9 30.2002 28.5 25.8002C36.1 21.4002 64.8 27.3002 64.8 27.3002C65.4 27.8002 66.1 28.3002 66.7 28.8002Z" fill="white"/>
<path d="M79.9 111.9C74 120.7 62.8 126.1 45.7 125.4L44.3 137.6C44.2 138.7 43.3 139.5 42.2 139.5H22.4C22.4 139.5 22 135.1 26.3 133.5L24.2 120.9C12.6 114.9 8.59996 103.3 7.29996 98.0002C3.19996 98.5002 1.29996 96.0002 1.09996 91.8002C0.699964 83.8002 14.7 67.0002 14.7 67.0002C16.7 57.0002 18.6 39.9002 18.6 39.9002C18.6 39.9002 20.9 30.2002 28.5 25.8002C36.1 21.4002 64.8 27.3002 64.8 27.3002C72.8 32.3002 76.2 44.0002 76.5 55.7002C76.6 59.6002 77.3 63.5002 78.7 67.1002C85.5 85.4002 89.8 96.9002 79.9 111.9Z" stroke="#370379" stroke-width="2.028" stroke-miterlimit="10" stroke-linecap="round" stroke-linejoin="round"/>
<path d="M25.2 87C22.6 89.5 20 91.9 17.1 94C15.7 95.1 14.2 96.1 12.6 97C11 97.9 9.29998 98.7 7.39998 99C6.79998 99.1 6.29998 98.7 6.19998 98.2C5.99998 97.7 6.39998 97.1 6.99998 97H7.09998C8.69998 96.9 10.3 96.3 11.9 95.6C13.5 94.9 15 94.1 16.5 93.1C19.5 91.4 22.4 89.2 25.2 87Z" fill="#370379"/>
<path d="M33.7 124.001C30.3 123.801 26.9 123.101 23.7 121.801C23.2 121.601 22.9 121.001 23.1 120.501C23.3 120.001 23.9 119.701 24.4 119.901C24.5 119.901 24.5 120.001 24.6 120.001C27.3 121.801 30.4 123.101 33.7 124.001Z" fill="#370379"/>
<path d="M40.9 5.10009C40.9 -0.299914 50 -0.299914 50 5.20009L40.9 5.10009Z" fill="#EF565D"/>
<path d="M68.5001 24.6995L38.1001 27.9995C38.1001 27.9995 37.4001 28.0995 36.2001 28.2995C34.0001 28.7995 30.1001 29.8995 24.8001 32.1995C24.6001 32.2995 24.3001 32.3995 24.1001 32.3995C16.7001 34.1995 18.7001 6.39952 43.8001 4.49952C43.8001 4.49952 45.0001 4.39952 46.9001 4.49952C49.3001 4.69952 52.8001 5.29952 56.3001 6.99952C61.6001 9.79952 66.8001 14.7995 68.5001 24.6995Z" fill="#EF565D"/>
<path d="M68.5 24.6996L38.1 27.9996C38.1 27.9996 37.4 28.0996 36.2 28.2996L35.9 27.1996C35.9 27.1996 34.8 21.1996 35.4 13.2996C36 5.39961 47 4.59961 47 4.59961C47 4.59961 47 4.59961 47.1 4.59961C53 5.19961 65.7 8.09961 68.5 24.6996Z" fill="white"/>
<path opacity="0.3" d="M68.5 24.6996L38.1 27.9996C38.1 27.9996 37.4 28.0996 36.2 28.2996C34 28.7996 30.1 29.8996 24.8 32.1996C24.6 32.2996 24.3 32.3996 24.1 32.3996C22.6 28.0996 23.1 24.3996 23.8 25.0996C25.2 26.3996 30.2 27.6996 36.3 22.9996C42.4 18.2996 56.4 21.5996 60.7 18.2996C65 14.9996 56.4 7.09961 56.4 7.09961C61.6 9.79961 66.8 14.7996 68.5 24.6996Z" fill="#370379"/>
<path opacity="0.6" d="M63.7 13.0991C58.7 7.49913 51.9 6.19913 48 5.89913C46.1 5.79913 44.9 5.89913 44.9 5.89913C24.2 7.39913 19.2 26.4991 22.2 32.1991C17.4 28.7991 21.4 6.29913 43.9 4.59913C43.9 4.59913 45.1 4.49913 47 4.59913C51.2 4.99913 58.6 6.59913 63.7 13.0991Z" fill="white"/>
<path d="M38.1 28.0999C38.1 28.0999 33 28.6999 24.9 32.3999C16.8 36.0999 18.1 6.59994 43.9 4.69994C43.9 4.69994 64.7 2.89994 68.5 24.7999L38.1 28.0999Z" stroke="#370379" stroke-width="2.028" stroke-miterlimit="10" stroke-linecap="round" stroke-linejoin="round"/>
<path d="M46.9001 4.69922C46.9001 4.69922 35.9001 5.49922 35.3001 13.3992C34.7001 21.2992 35.8001 27.2992 35.8001 27.2992" stroke="#370379" stroke-width="2" stroke-miterlimit="10" stroke-linecap="round" stroke-linejoin="round"/>
<path d="M69.2 25.4997C68 21.9997 38.6 21.9997 35.4 28.0997C49 39.8997 76.5 34.6997 69.2 25.4997Z" fill="#EF565D"/>
<path opacity="0.3" d="M34.8 28.0992C35 27.5992 35.4001 27.1992 35.9001 26.8992C48.3001 35.2992 68.5001 32.3992 68.8001 25.6992C75.6001 34.6992 48.4 39.7992 34.8 28.0992Z" fill="#370379"/>
<path d="M69.2 25.4997C68 21.9997 38.6 21.9997 35.4 28.0997C49 39.8997 76.5 34.6997 69.2 25.4997Z" stroke="#370379" stroke-width="2.028" stroke-miterlimit="10" stroke-linecap="round" stroke-linejoin="round"/>
<path d="M40.9 5.10009C40.9 -0.299914 50 -0.299914 50 5.20009" stroke="#370379" stroke-width="2.028" stroke-miterlimit="10" stroke-linecap="round" stroke-linejoin="round"/>
<path d="M16.1 43.2001C16.8 43.9001 17.9 44.3001 18.9 44.2001C22 44.0001 24.9 42.4001 27 40.1001C29.6 37.3001 30.8 33.6001 29.4 30.6001C25.3 27.5001 21.1 24.5001 20.8 17.8001C20.8 16.7001 19.7 16.0001 18.7 16.3001C15.6 17.2001 13.2 19.3001 11.8 22.0001C8.59997 28.0001 9.79997 37.1001 16.1 43.2001Z" fill="#F9993E"/>
<path opacity="0.6" d="M12.4 21.0001C13.7 19.5001 15.5 18.4001 17.6 17.8001C18.6 17.5001 19.6 18.3001 19.7 19.3001C20 25.9001 24.1 29.0001 28.3 32.1001C29.5 34.5001 28.9 37.4001 27.2 39.9001C29.7 37.1001 30.9 33.5001 29.4 30.6001C25.3 27.5001 21.1 24.5001 20.8 17.8001C20.8 16.7001 19.7 16.0001 18.7 16.3001C16 17.1001 13.9 18.7001 12.4 21.0001Z" fill="white"/>
<path d="M16.1 43.2002C6.89997 34.4002 8.69997 19.2002 18.7 16.3002C19.7 16.0002 20.7 16.8002 20.8 17.8002C21.1 24.5002 25.2 27.5002 29.3 30.6002C32 36.0002 25.8 43.7002 18.9 44.2002C17.9 44.2002 16.8 43.9002 16.1 43.2002Z" stroke="#370379" stroke-width="2.028" stroke-miterlimit="10" stroke-linecap="round" stroke-linejoin="round"/>
<path opacity="0.3" d="M16.1 43.2C16.8 43.9 17.9 44.3 18.9 44.2C22 44 24.9 42.4 27 40.1C16.9 42.4 9.69997 34 11.8 22C8.59997 28 9.79997 37.1 16.1 43.2Z" fill="#370379"/>
<path d="M65.8931 54.8799C66.6488 45.9651 60.659 38.1785 52.5146 37.4882C44.3703 36.7978 37.1553 43.465 36.3996 52.3798C35.644 61.2946 41.6337 69.0811 49.7781 69.7715C57.9225 70.4619 65.1374 63.7947 65.8931 54.8799Z" fill="white"/>
<path opacity="0.3" d="M65.9001 54.8C65.1001 63.7 57.9001 70.4 49.8001 69.7C43.1001 69.1 37.9001 63.8 36.7001 57C39.1001 61 43.1001 63.7 47.8001 64.1C55.9001 64.8 63.2001 58.1 63.9001 49.2C64.0001 47.6 63.9001 46 63.7001 44.5C65.3001 47.5 66.2001 51.1 65.9001 54.8Z" fill="#370379"/>
<path d="M65.6632 55.2196C66.1994 48.8356 61.6372 43.2406 55.4732 42.7229C49.3093 42.2052 43.8778 46.9608 43.3416 53.3449C42.8054 59.729 47.3676 65.324 53.5315 65.8417C59.6955 66.3594 65.127 61.6037 65.6632 55.2196Z" fill="#370379"/>
<path d="M62.3025 50.2734C63.2929 48.4232 62.4774 46.0571 60.4811 44.9885C58.4849 43.92 56.0637 44.5536 55.0734 46.4038C54.083 48.254 54.8984 50.6201 56.8947 51.6887C58.891 52.7573 61.3121 52.1236 62.3025 50.2734Z" fill="white"/>
<path d="M65.8931 54.8799C66.6488 45.9651 60.659 38.1785 52.5146 37.4882C44.3703 36.7978 37.1553 43.465 36.3996 52.3798C35.644 61.2946 41.6337 69.0811 49.7781 69.7715C57.9225 70.4619 65.1374 63.7947 65.8931 54.8799Z" stroke="#370379" stroke-width="2" stroke-miterlimit="10" stroke-linecap="round" stroke-linejoin="round"/>
<path d="M65.6632 55.2196C66.1994 48.8356 61.6372 43.2406 55.4732 42.7229C49.3093 42.2052 43.8778 46.9608 43.3416 53.3449C42.8054 59.729 47.3676 65.324 53.5315 65.8417C59.6955 66.3594 65.127 61.6037 65.6632 55.2196Z" stroke="#370379" stroke-width="1.9936" stroke-miterlimit="10" stroke-linecap="round" stroke-linejoin="round"/>
<path d="M50.9 88.3996C48.5 89.2996 45.8 89.2996 43.3 88.6996C40.9 88.0996 38.5 86.6996 36.9 84.6996C34.9 82.1996 33.9 78.4996 35 73.5996C43 77.1996 50.9 79.1996 58.2 77.7996C57.3 83.7996 54.4 87.0996 50.9 88.3996Z" fill="#370379"/>
<path d="M40.7001 75.7988C40.3001 80.8988 48.8001 83.7988 51.0001 77.7988L40.7001 75.7988Z" fill="white"/>
<path d="M50.9 88.3986C48.5 89.2986 45.8 89.2986 43.3 88.6986C40.9 88.0986 38.5 86.6986 36.9 84.6986C39.4 83.8986 45.4 82.9986 50.9 88.3986Z" fill="#F83D42"/>
<path d="M50.9 88.3996C48.5 89.2996 45.8 89.2996 43.3 88.6996C40.9 88.0996 38.5 86.6996 36.9 84.6996C34.9 82.1996 33.9 78.4996 35 73.5996C43 77.1996 50.9 79.1996 58.2 77.7996C57.3 83.7996 54.4 87.0996 50.9 88.3996Z" stroke="#370379" stroke-width="2.028" stroke-miterlimit="10" stroke-linecap="round" stroke-linejoin="round"/>
<path opacity="0.3" d="M30.9 123.4C30.4 123.3 22.3 121 16.2 114.9C16.2 114.9 16.1 114.8 16 114.7C10.4 108.8 8.1 101.7 7.2 97.9C3.1 98.4 1.2 95.9 1 91.7C1 91.7 1.7 98.1 10.2 93.3C18.8 88.5 26.1 84 26.1 84C26.1 84 25.8 87.4 19.4 91.6C13 95.9 11.4 112.9 30.9 123.4Z" fill="#370379"/>
<path opacity="0.3" d="M79.9 111.899C74 120.699 62.8 126.099 45.7 125.399L44.2999 137.599C44.1999 138.699 43.3 139.499 42.2 139.499H32.7C44.4 137.199 42.7 124.499 42.7 124.499L39.7 122.999C71.9 121.799 89.9 107.399 77.8 64.6992C78 65.5992 78.2999 66.3992 78.6999 67.2992C85.4999 85.3992 89.7999 96.8992 79.9 111.899Z" fill="#370379"/>
<path opacity="0.3" d="M61.1 138.9C61.1 138.9 61 139.1 60.8 139.4H53C51.9 139.4 51 138.6 50.9 137.5L49.6 126.1L62.8 124C61.7 124.2 55.9 125.8 56.4 132C56.8 139 61.1 138.9 61.1 138.9Z" fill="#370379"/>
<path d="M383.6 117.4C385.9 125 378.5 126.9 370.3 122C369.5 122.9 368.6 123.8 367.5 124.7L366.9 133.2C366.9 133.6 367 134 367.2 134.3C368.2 135.5 369 136.9 369.7 138.4C370 139 369.6 139.7 368.9 139.7H349.6L349.1 131.1C346.1 131.4 343 131.5 340 131.2C339.3 131.2 338.6 131.1 337.9 131L337.4 139.7H318.1C317.5 139.7 317 139 317.3 138.4C318 136.9 318.8 135.5 319.8 134.3C320 134 320.2 133.6 320.1 133.2L319.4 123.7C319 123.4 318.7 123.1 318.4 122.8C318.1 122.5 317.8 122.3 317.5 122C313.4 121.9 307.3 121.3 301.9 118.8C297.3 116.7 296.3 114.6 296.4 113C296.5 111.4 297.7 110.4 297.7 110.4C300.4 107.6 308 105.9 308 105.9C306.8 99.4004 307.2 92.2004 308.3 88.9004L303.9 89.2004C305.3 87.7004 306.9 86.5004 308.7 85.6004L303.2 80.8004L311.7 83.0004C316.1 73.7004 323.6 67.5004 333.9 64.2004C334.8 62.2004 335.9 60.4004 337.3 58.9004L338.1 62.8004C341.8 58.7004 345.8 55.4004 350 53.4004C348.4 56.6004 347.2 59.8004 346.5 63.0004C350.9 60.7004 355 60.8004 355 60.8004L353.5 64.2004C362.8 67.7004 371.1 72.7004 375.4 83.0004L378.1 82.3004L383.9 80.8004L378.4 85.6004C380.2 86.5004 381.8 87.7004 383.2 89.2004L378.7 88.9004C380.3 94.0004 380.1 103.1 378 108.5C380 110.9 381.5 113.1 382.4 114.9C383 115.8 383.3 116.7 383.6 117.4Z" fill="#43BAA7"/>
<path opacity="0.7" d="M310.4 90C309.3 93.3 308.9 100.5 310.1 107C310.1 107 302.5 108.6 299.8 111.5C299.8 111.5 295.9 114.8 301.5 118.5C293.2 114.3 297.9 110.4 297.9 110.4C300.6 107.6 308.2 105.9 308.2 105.9C307.1 100.1 307.3 93.8 308.2 90.1L310.4 90Z" fill="white"/>
<path opacity="0.7" d="M321.4 124.7L322.1 134.2C322.1 134.6 322 135 321.8 135.3C320.8 136.5 320 137.9 319.3 139.4C319.3 139.5 319.2 139.5 319.2 139.6H318.2C317.6 139.6 317.1 138.9 317.4 138.3C318.1 136.8 318.9 135.4 319.9 134.2C320.1 133.9 320.3 133.5 320.2 133.1L319.5 123.6C319.3 123.4 319 123.2 318.8 123C319 123 319.3 123 319.5 123C320.1 123.6 320.8 124.2 321.4 124.7Z" fill="white"/>
<path opacity="0.7" d="M337.5 58.9004L338 61.6004C337.2 62.7004 336.5 63.9004 335.9 65.3004C325.5 68.6004 318 74.8004 313.7 84.1004L305.2 81.9004L310.7 86.7004C309.5 87.3004 308.3 88.1004 307.3 89.0004L304.1 89.2004C305.5 87.7004 307.1 86.5004 308.9 85.6004L303.4 80.8004L311.9 83.0004C316.3 73.7004 323.8 67.5004 334.1 64.2004C335 62.3004 336.1 60.5004 337.5 58.9004Z" fill="white"/>
<path opacity="0.7" d="M350.9 130.9L351.4 139.6H349.6L349.1 131.1C349.7 131 350.3 131 350.9 130.9Z" fill="white"/>
<path d="M378.2 108.5C390.6 123.2 381 128.4 370.3 122C369.5 122.9 368.6 123.8 367.5 124.7L366.9 133.2C366.9 133.6 367 134 367.2 134.3C368.2 135.5 369 136.9 369.7 138.4C370 139 369.6 139.7 368.9 139.7H349.6L349.1 131.1C345.5 131.5 341.7 131.5 337.9 131L337.4 139.7H318.1C317.5 139.7 317 139 317.3 138.4C318 136.9 318.8 135.5 319.8 134.3C320 134 320.2 133.6 320.1 133.2L319.4 123.7C318.7 123.2 318.1 122.6 317.5 122C313.4 121.9 307.3 121.3 301.9 118.8C292.8 114.6 297.7 110.4 297.7 110.4C300.4 107.6 308 105.9 308 105.9C306.8 99.4004 307.2 92.2004 308.3 88.9004L303.9 89.2004C305.3 87.7004 306.9 86.5004 308.7 85.6004L303.2 80.8004L311.7 83.0004C316.1 73.7004 323.6 67.5004 333.9 64.2004C334.8 62.2004 335.9 60.4004 337.3 58.9004L338.1 62.8004C341.8 58.7004 345.8 55.4004 350 53.4004C348.4 56.6004 347.2 59.8004 346.5 63.0004C350.9 60.7004 355 60.8004 355 60.8004L353.5 64.2004C362.8 67.7004 371.1 72.7004 375.4 83.0004L383.9 80.8004L378.4 85.6004C380.2 86.5004 381.8 87.7004 383.2 89.2004L378.7 88.9004C380.5 94.1004 380.3 103.1 378.2 108.5Z" stroke="#370379" stroke-width="2" stroke-miterlimit="10" stroke-linecap="round" stroke-linejoin="round"/>
<path d="M310.8 113.5C309.2 111.3 308.1 108.8 307.2 106.1C307 105.6 307.3 105 307.9 104.8C308.4 104.6 309 104.9 309.2 105.5C309.2 105.6 309.2 105.7 309.2 105.7C309.4 108.4 309.8 111 310.8 113.5Z" fill="#370379"/>
<path d="M345.5 37.4009C346.1 32.0009 355.3 33.0009 354.7 38.4009L345.5 37.4009Z" fill="#EF565D"/>
<path d="M373.8 72.6004L368.3 72.2004C368.6 71.9004 368.9 71.6004 369.1 71.2004C368.6 70.6004 368.1 70.1004 367.5 69.5004C355.7 58.4004 332.3 57.5004 320.7 63.9004C318.5 65.1004 316.8 66.5004 315.6 68.1004C312.7 48.0004 332.4 35.9004 349.8 37.4004C351.1 37.6004 352.3 37.8004 353.6 38.0004C353.7 38.0004 353.8 38.0004 353.9 38.1004C354 38.1004 354.1 38.2004 354.3 38.2004C359.5 39.4004 364 41.6004 367.6 44.4004C376.3 51.5004 379.3 62.3004 373.8 72.6004Z" fill="#EF565D"/>
<path d="M367.5 69.5004C353.5 56.3004 323.2 57.5004 315.6 68.1004C312.7 48.0004 332.4 35.9004 349.8 37.4004C351.1 37.6004 352.3 37.8004 353.6 38.0004C353.7 38.0004 353.8 38.0004 353.9 38.1004C354 38.1004 354.1 38.2004 354.3 38.2004C357.7 39.2004 370.7 44.5004 367.5 69.5004Z" fill="white"/>
<path opacity="0.3" d="M373.8 72.6L368.3 72.2C368.6 71.9 368.9 71.6 369.1 71.2C368.6 70.6 368.1 70.1 367.5 69.5C355.7 58.4 332.3 57.5 320.7 63.9C320.9 63.7 321.1 63.5 321.4 63.3C328.5 58.1 342 56 360.8 60.3C379.6 64.6 367.6 44.5 367.6 44.5C376.3 51.5 379.3 62.3 373.8 72.6Z" fill="#370379"/>
<path d="M315.6 68.2C312.7 48.1 332.4 36 349.8 37.5C370.9 40.1 382.1 57 373.8 72.6" stroke="#370379" stroke-width="2" stroke-miterlimit="10" stroke-linecap="round" stroke-linejoin="round"/>
<path d="M374.2 85.0004C387.6 78.6004 381.6 56.9004 373.6 53.9004C377.7 64.8004 373.5 70.1004 366.3 73.6004C364 77.9004 366.4 86.6004 374.2 85.0004Z" fill="#EFD03A"/>
<path opacity="0.3" d="M374.2 85.0012C370.6 85.7012 368.2 84.3012 366.8 82.0012C368 82.7012 369.6 83.0012 371.4 82.7012C382.1 78.3012 381.4 63.9012 376.9 56.2012C383 62.8012 385.7 79.5012 374.2 85.0012Z" fill="#370379"/>
<path d="M367.6 74.5004C366.1 77.3004 366.6 82.0004 369.3 84.5004C365.5 82.5004 364.6 76.8004 366.3 73.6004C373.5 70.1004 377.7 64.8004 373.6 53.9004C374.4 54.2004 375.2 54.7004 375.9 55.3004C375.6 55.1004 375.2 55.0004 374.9 54.8004C379 65.7004 374.8 71.0004 367.6 74.5004Z" fill="white"/>
<path d="M374.2 85.0004C387.6 78.6004 381.6 56.9004 373.6 53.9004C377.7 64.8004 373.5 70.1004 366.3 73.6004C364 77.9004 366.4 86.6004 374.2 85.0004Z" stroke="#370379" stroke-width="2" stroke-miterlimit="10" stroke-linecap="round" stroke-linejoin="round"/>
<path d="M312.9 81.7C311.8 81.8 310.6 81.5 309.3 80.6C299.9 70.3 310.3 51.9 317.7 51.5C317.2 52.2 316.8 52.9 316.4 53.6C311.9 61.5 314.1 67.3 318.7 72.3C319.3 76.1 316.9 81.4 312.9 81.7Z" fill="#EFD03A"/>
<path d="M310.4 81.2C310 81 309.6 80.8 309.2 80.6C299.8 70.3 310.2 51.9 317.6 51.5C317.3 52 317 52.4 316.7 52.9C309.8 56.1 302.2 71.9 310.4 81.2Z" fill="white"/>
<path d="M309.3 80.6C299.9 70.3 310.3 51.9 317.7 51.5C311.5 60.4 313.7 66.8 318.7 72.3C319.5 77.1 315.3 84.5 309.3 80.6Z" stroke="#370379" stroke-width="2" stroke-miterlimit="10" stroke-linecap="round" stroke-linejoin="round"/>
<path opacity="0.3" d="M312.9 81.6992C313.1 81.3992 313.3 81.1992 313.6 80.9992C317.1 77.9992 315 74.5992 315 74.5992C311.2 71.0992 309.8 58.9992 316.1 53.1992L316.5 53.5992C312 61.4992 314.2 67.2992 318.8 72.2992C319.3 76.0992 316.9 81.3992 312.9 81.6992Z" fill="#370379"/>
<path d="M369.1 71.2004C368.8 71.6004 368.6 71.9004 368.3 72.2004C367.1 73.4004 365.8 74.1004 364.6 74.4004C362.3 75.1004 359.9 74.5004 357.9 73.2004C356.9 72.6004 355.6 71.8004 353.7 71.0004C352.1 70.3004 350.1 69.7004 347.7 69.2004C345.6 68.7004 343.2 68.4004 340.5 68.2004C335.5 67.8004 331.8 68.4004 329.1 69.2004C324.6 70.6004 322.6 72.7004 320.9 72.9004C318.3 73.3004 315.7 68.1004 315.7 68.1004C322.4 58.8004 346.6 56.7004 361.8 65.3004C364.6 66.9004 367.1 68.9004 369.1 71.2004Z" fill="#EF565D"/>
<path d="M315.6 68.2007C315.6 68.2007 318.3 73.4007 320.8 73.0007C323.4 72.6007 327.1 67.3007 340.4 68.2007C349.8 68.9007 355.4 71.7007 357.8 73.3007C359.8 74.6007 362.2 75.1007 364.5 74.5007C366 74.1007 367.6 73.1007 369.1 71.3007C356.1 56.2007 323.6 57.2007 315.6 68.2007Z" stroke="#370379" stroke-width="2" stroke-miterlimit="10" stroke-linecap="round" stroke-linejoin="round"/>
<path d="M353.6 38.1016C353.6 38.1016 371.2 40.9016 367.6 69.6016" stroke="#370379" stroke-width="2" stroke-miterlimit="10" stroke-linecap="round" stroke-linejoin="round"/>
<path opacity="0.3" d="M369.1 71.2008C368.8 71.6008 368.6 71.9008 368.3 72.2008C367.1 73.4008 365.8 74.1008 364.6 74.4008C362.3 75.1008 359.9 74.5008 357.9 73.2008C356.9 72.6008 355.6 71.8008 353.7 71.0008C352.1 70.3008 350.1 69.7008 347.7 69.2008C362.8 70.3008 361.5 65.3008 361.5 65.3008H361.8C364.6 66.9008 367.1 68.9008 369.1 71.2008Z" fill="#370379"/>
<path d="M345.5 37.4009C346.1 32.0009 355.3 33.0009 354.7 38.4009" stroke="#370379" stroke-width="2" stroke-miterlimit="10" stroke-linecap="round" stroke-linejoin="round"/>
<path d="M359.4 110.4C359.4 110.4 355.5 117.3 345.3 118" stroke="#370379" stroke-width="2" stroke-miterlimit="10" stroke-linecap="round" stroke-linejoin="round"/>
<path d="M358.8 92.3001C358.8 101.7 351.2 109.4 341.7 109.4C332.3 109.4 324.6 101.8 324.6 92.3001C324.6 90.6001 324.8 89.0001 325.3 87.4001C327.4 85.4001 329.9 84.0001 332.7 83.0001C338.4 81.1001 345.1 81.3001 350.8 83.3001C353.5 84.3001 356 85.6001 358 87.4001C358.5 88.9001 358.8 90.6001 358.8 92.3001Z" fill="white"/>
<path opacity="0.3" d="M358.8 92.3004C358.8 101.7 351.2 109.4 341.7 109.4C336.5 109.4 331.8 107 328.6 103.3C331.5 105.7 335.3 107.2 339.4 107.2C348.8 107.2 356.5 99.6004 356.5 90.1004C356.5 88.6004 356.3 87.2004 356 85.9004C356.7 86.4004 357.4 86.9004 358 87.4004C358.5 88.9004 358.8 90.6004 358.8 92.3004Z" fill="#370379"/>
<path d="M358.5 108.5C358.5 108.5 359 111.2 361.9 111.4" stroke="#370379" stroke-width="2" stroke-miterlimit="10" stroke-linecap="round" stroke-linejoin="round"/>
<path d="M353.6 90.9001C353.6 97.5001 348.3 102.8 341.7 102.8C335.1 102.8 329.8 97.5001 329.8 90.9001C329.8 87.9001 330.9 85.1001 332.8 83.0001C338.5 81.1001 345.2 81.3001 350.9 83.3001C352.6 85.4001 353.6 88.0001 353.6 90.9001Z" fill="#370379"/>
<path d="M358.8 92.3001C358.8 101.7 351.2 109.4 341.7 109.4C332.3 109.4 324.6 101.8 324.6 92.3001C324.6 90.6001 324.8 89.0001 325.3 87.4001C327.4 85.4001 329.9 84.0001 332.7 83.0001C338.4 81.1001 345.1 81.3001 350.8 83.3001C353.5 84.3001 356 85.6001 358 87.4001C358.5 88.9001 358.8 90.6001 358.8 92.3001Z" stroke="#370379" stroke-width="2" stroke-miterlimit="10" stroke-linecap="round" stroke-linejoin="round"/>
<path d="M346.4 93.2992C348.499 93.2992 350.2 91.5979 350.2 89.4992C350.2 87.4005 348.499 85.6992 346.4 85.6992C344.301 85.6992 342.6 87.4005 342.6 89.4992C342.6 91.5979 344.301 93.2992 346.4 93.2992Z" fill="white"/>
<path d="M372.5 118.5C372.2 119.9 371.6 121.2 371 122.5L369.4 121.3C370.5 120.5 371.6 119.6 372.5 118.5Z" fill="#370379"/>
<path d="M317 122.701C316.5 121.701 316.1 120.701 315.6 119.801L318.4 121.301L317 122.701Z" fill="#370379"/>
<path d="M320.2 122.8C320.6 123.3 321.1 123.7 321.6 124.2C322.1 124.6 322.6 125.1 323.1 125.5C324.2 126.3 325.3 127 326.5 127.6C325.2 127.3 323.8 126.9 322.6 126.3C322 126 321.3 125.7 320.7 125.4C320.1 125.1 319.5 124.7 318.8 124.3C318.3 124 318.2 123.4 318.5 122.9C318.8 122.4 319.4 122.3 319.9 122.6C320.1 122.7 320.1 122.8 320.2 122.8Z" fill="#370379"/>
<path d="M337.8 131.9C337.1 131.7 336.5 131.6 335.9 131.4C335.3 131.2 334.7 131 334.1 130.7C332.9 130.2 331.8 129.7 330.7 129C331.9 129.3 333.1 129.6 334.3 129.7C334.9 129.8 335.5 129.8 336.1 129.9C336.7 129.9 337.3 129.9 337.9 129.9C338.5 129.9 338.9 130.3 338.9 130.9C338.9 131.5 338.5 131.9 337.9 131.9C338 131.9 337.9 131.9 337.8 131.9Z" fill="#370379"/>
<path d="M348.8 130.001L353.6 129.701L349.4 132.001C348.9 132.301 348.3 132.101 348 131.601C347.7 131.101 347.9 130.501 348.4 130.201C348.6 130.101 348.7 130.101 348.8 130.001Z" fill="#370379"/>
<path d="M367.9 125.5C367.4 125.7 366.9 125.9 366.4 126C365.9 126.2 365.4 126.3 364.9 126.4C363.9 126.7 362.9 126.9 361.8 127C362.7 126.5 363.6 126 364.4 125.5C364.8 125.2 365.2 124.9 365.6 124.6C366 124.3 366.4 124 366.8 123.7C367.2 123.3 367.9 123.4 368.2 123.8C368.5 124.2 368.5 124.9 368.1 125.2C368.1 125.4 368.1 125.4 367.9 125.5Z" fill="#370379"/>
<path opacity="0.3" d="M383.3 89.3004L378.8 89.0004C380.4 94.1004 380.2 103.2 378.1 108.6C380.1 111 381.6 113.2 382.5 115C382.2 114.9 381.9 114.6 381.6 114.2C377.4 109.2 372.5 107.7 372.5 107.7C376.9 100.9 374.5 88.0004 374.5 88.0004L376.6 87.4004L374.5 86.7004L371 85.2004L374.5 84.9004L376.2 83.9004C376.2 83.9004 377.2 83.2004 378.3 82.4004L384.1 80.9004L378.6 85.7004C380.3 86.5004 381.9 87.8004 383.3 89.3004Z" fill="#370379"/>
<path opacity="0.3" d="M370.2 122C369.4 122.9 368.5 123.8 367.4 124.7L366.8 133.2C366.8 133.6 366.9 134 367.1 134.3C368.1 135.5 368.9 136.9 369.6 138.4C369.9 139 369.5 139.7 368.8 139.7H355.8C366.6 138.2 362 138.9 362.2 133.9C362.4 128.9 360.8 127.2 360.8 127.2L357.3 126.6C366.1 123.4 371.4 118.1 371.4 118.1C382.7 124 383.6 117.5 383.6 117.5C385.9 125.1 378.4 126.9 370.2 122Z" fill="#370379"/>
<path opacity="0.3" d="M340 131.102C339.3 131.102 338.6 131.002 337.9 130.902L337.4 139.602H326C332.8 138.902 332 138.002 332.5 134.402C333 130.902 330.1 128.802 329.8 128.602C331.4 129.502 336.2 130.402 336.2 130.402L340 131.102Z" fill="#370379"/>
<path opacity="0.3" d="M319 122.5L318.6 122.7C318.3 122.4 318 122.2 317.7 121.9C313.6 121.8 307.5 121.2 302.1 118.7C297.5 116.6 296.5 114.5 296.6 112.9C296.8 113.1 296.9 113.2 297.1 113.4C299.9 117.5 313.2 117.3 313.2 117.3L319 122.5Z" fill="#370379"/>
<path d="M501 92.4017L500.1 90.9017C500.1 90.9017 499.2 95.2017 496 97.4017L495.6 95.3017C495.6 95.3017 486.9 102.302 478.6 103.602C474.6 104.202 474.2 99.9016 475 95.2016C475.8 90.2016 477.8 84.8017 477.8 84.8017L480.5 81.3017C480.5 81.3017 485.7 80.7017 488.8 79.1017C491.4 77.7017 496.8 76.0016 500 78.7016C500.4 79.0016 500.7 79.4017 501 79.8017C501.3 80.2017 501.5 80.7017 501.7 81.3017C503.9 87.4017 501 92.4017 501 92.4017Z" fill="#797A75"/>
<path opacity="0.3" d="M501 92.4012L500.1 90.9012C500.1 90.9012 499.2 95.2012 496 97.4012L495.6 95.3012C495.6 95.3012 486.9 102.301 478.6 103.601C474.6 104.201 474.2 99.9012 475 95.2012C475.6 94.5012 476.1 93.9012 476.2 93.8012C476.5 93.5012 489.1 93.5012 487.7 84.7012L488.3 82.6012C488.3 82.6012 490 89.3012 496.3 87.7012C502.4 86.2012 500.1 79.1012 500 78.7012C500.1 78.8012 500.4 79.2012 501 79.8012C501.3 80.2012 501.5 80.7012 501.7 81.3012C503.9 87.4012 501 92.4012 501 92.4012Z" fill="#370379"/>
<path d="M480.5 81.3004C480.5 81.3004 485.7 80.7004 488.8 79.1004C492 77.4004 499.6 75.2004 501.7 81.3004C503.8 87.4004 501 92.5004 501 92.5004L500.1 91.0004C500.1 91.0004 499.2 95.3004 496 97.5004L495.6 95.4004C495.6 95.4004 486.9 102.5 478.6 103.7C470.3 104.9 477.8 84.9004 477.8 84.9004" stroke="#370379" stroke-width="2" stroke-miterlimit="10" stroke-linecap="round" stroke-linejoin="round"/>
<path d="M491.4 79.0004C491.2 79.1004 490.8 79.3004 490.5 79.6004C490.2 79.8004 489.9 80.1004 489.7 80.4004C489.2 81.0004 488.9 81.8004 488.8 82.6004C488.7 83.4004 488.7 84.3004 488.8 85.1004C488.8 85.5004 489 86.0004 489.1 86.4004C489.2 86.8004 489.3 87.2004 489.4 87.7004C489.7 88.5004 490 89.3004 490.6 89.8004C491.2 90.4004 491.9 90.7004 492.8 90.8004C493.7 90.9004 494.6 90.8004 495.5 90.5004C496.4 90.2004 497.3 89.8004 498 89.2004C497.4 90.0004 496.6 90.5004 495.7 90.9004C494.8 91.3004 493.9 91.6004 492.8 91.7004C491.8 91.7004 490.7 91.5004 489.8 90.8004C488.9 90.2004 488.3 89.2004 487.8 88.3004C487.6 87.8004 487.4 87.3004 487.2 86.8004C487.1 86.3004 487 85.8004 486.9 85.3004C486.7 84.3004 486.8 83.2004 486.9 82.2004C487.1 81.1004 487.5 80.1004 488.1 79.2004C488.4 78.8004 488.8 78.3004 489.3 78.0004C489.8 77.6004 490.2 77.4004 490.8 77.1004C491.3 76.9004 491.9 77.1004 492.1 77.7004C492.2 78.2004 492 78.7004 491.4 79.0004Z" fill="#370379"/>
<path d="M388.3 104.3C388.1 106.3 388.6 108.9 391 111.3L391.2 110.6C391.2 110.6 394.5 112.1 397.3 111.7L396.6 111.1C400.6 110.6 402.4 105.4 404.8 100.9L406.2 82C406.2 82 402.8 83.8 399.3 86.4C396.8 88.2 394.3 90.4 392.7 92.6L394.7 92.8C394.7 92.8 389.1 97.2 387.6 101.5L389.3 100.8C389.3 100.7 388.5 102.2 388.3 104.3Z" fill="#797A75"/>
<path opacity="0.3" d="M391 111.3L391.2 110.6C391.2 110.6 394.5 112.1 397.3 111.7L396.6 111.1C400.6 110.6 402.4 105.4 404.8 100.9L406.2 82C406.2 82 402.8 83.8 399.3 86.4C399.3 86.4 402.8 91.5 401.6 97.9C400.4 104.4 394 109.1 389.4 105.1C389 104.8 388.6 104.5 388.2 104.3C388.1 106.3 388.5 108.8 391 111.3Z" fill="#370379"/>
<path d="M406.2 82C406.2 82 396.6 87.2 392.7 92.6L394.7 92.8C394.7 92.8 389.1 97.2 387.6 101.5L389.3 100.8C389.3 100.8 386 106.4 391 111.3L391.2 110.6C391.2 110.6 394.5 112.1 397.3 111.7L396.6 111.1C400.6 110.6 402.4 105.4 404.8 100.9" stroke="#370379" stroke-width="2" stroke-miterlimit="10" stroke-linecap="round" stroke-linejoin="round"/>
<path d="M480.9 77.5016C482 85.5016 482.4 93.1016 482.3 100.402L480 99.0016C480 99.0016 480.8 104.802 479.4 115.102L478 113.602C478 113.602 476.4 118.902 472.2 123.102V134.702C472.2 137.302 470.2 139.402 467.6 139.502C466.4 139.502 465.1 139.602 463.9 139.602C462.3 139.602 460.7 139.602 459 139.502C456.4 139.402 454.4 137.302 454.4 134.702V130.502C450.3 131.202 446.3 131.602 442.3 131.602C440.1 131.602 437.8 131.502 435.6 131.302C434.6 131.202 433.6 131.102 432.7 130.902C432 130.802 431.3 130.702 430.6 130.602V134.702C430.6 137.302 428.6 139.402 426 139.502C423.5 139.602 421 139.602 418.6 139.602C418.2 139.602 417.8 139.602 417.5 139.602C414.9 139.502 412.9 137.402 412.9 134.802V123.902C411.7 122.802 410.8 121.702 409.9 120.602C409 119.402 408.3 118.302 407.8 117.202C406.7 115.202 406.3 113.702 406.3 113.702L404.9 115.202C403.6 104.902 404.3 99.1016 404.3 99.1016L402 100.602C401.8 93.3016 402.3 85.7016 403.4 77.7016L401.1 76.8016C403.1 75.8016 403.5 69.6016 406.6 65.6016L405.1 64.7016L406.7 62.6016L404.5 61.2016C406.4 61.0016 408.1 60.4016 409.5 59.0016C412.6 55.0016 416.4 51.8016 421.5 50.0016L419.6 47.6016L433.5 44.4016L432.2 40.8016C432.2 40.8016 434.9 41.6016 436.4 43.5016C436.4 43.5016 442.5 39.2016 447.4 38.1016L443.9 43.6016C443.9 43.6016 447.3 42.1016 452.6 42.0016L450.5 44.3016L464.4 47.5016L462.5 49.9016C467.6 51.7016 471.4 54.9016 474.5 58.9016C475.9 60.3016 477.6 60.9016 479.5 61.1016L477.3 62.5016L478.9 64.6016L477.4 65.5016C480.5 69.5016 480.9 75.7016 482.9 76.7016L480.9 77.5016Z" fill="#797A75"/>
<path opacity="0.3" d="M480.9 77.5C482 85.5 482.4 93.1 482.3 100.4L480 99C480 99 480.8 104.8 479.4 115.1L478 113.6C478 113.6 476.4 118.9 472.2 123.1V134.7C472.2 137.3 470.2 139.4 467.6 139.5C466.4 139.5 465.1 139.6 463.9 139.6C466.4 137.2 466 134 466 134V127.2C466 127.2 462.8 129.3 454.4 130.5C449.8 131.2 443.7 131.6 435.6 131.3C433.8 131.2 432.2 131.1 430.6 130.9V134.7C430.6 137.3 428.6 139.4 426 139.5C423.5 139.6 421 139.6 418.6 139.6C424.3 138.8 424.5 134.7 424.5 134.7V129.7C416.6 127.5 412.2 123.5 409.9 120.6C408.4 118.7 407.9 117.4 407.8 117.2C436.4 138.5 487 123.9 477.6 65.5C480.7 69.5 481.1 75.7 483.1 76.7L480.9 77.5Z" fill="#370379"/>
<path opacity="0.7" d="M420.9 50.1016L422.3 51.9016C417.2 53.7016 413.4 56.9016 410.3 60.9016C409.2 62.0016 408 62.6016 406.6 62.9016L407 62.4016L404.8 61.0016C406.7 60.8016 408.4 60.2016 409.8 58.8016C412.7 55.0016 416.2 51.9016 420.9 50.1016Z" fill="white"/>
<path opacity="0.7" d="M433.5 44.2012L434.2 46.2012L421.3 49.2012L419.8 47.3012L433.5 44.2012Z" fill="white"/>
<path opacity="0.7" d="M445.8 40.6008C441.5 42.2008 437.1 45.3008 437.1 45.3008C435.9 43.8008 433.9 43.0008 433.2 42.7008L432.4 40.5008C432.4 40.5008 435.1 41.3008 436.6 43.2008C436.6 43.2008 442.7 38.9008 447.6 37.8008L445.8 40.6008Z" fill="white"/>
<path opacity="0.7" d="M452.8 41.8008L450.7 44.1008C446.8 44.5008 444.5 45.5008 444.5 45.5008L446.3 42.7008C447.9 42.2008 450.1 41.8008 452.8 41.8008Z" fill="white"/>
<path opacity="0.7" d="M463.3 49L451.2 46.2L452.7 44.5L464.6 47.3L463.3 49Z" fill="white"/>
<path opacity="0.7" d="M477.6 62.4004L477.7 62.5004C476.8 62.2004 476 61.6004 475.2 60.9004C472.1 56.9004 468.3 53.7004 463.2 51.9004L464.4 50.4004C468.7 52.3004 472 55.2004 474.8 58.8004C476.2 60.2004 477.9 60.8004 479.8 61.0004L477.6 62.4004Z" fill="white"/>
<path d="M452.4 108.601C474 108.601 472.5 82.9015 452.4 86.6015C446 87.7015 439 87.3015 431.8 86.0015C417.6 83.6015 411.9 100.001 426.5 106.701C434.2 108.801 442.7 109.601 452.4 108.601Z" fill="#F3535F"/>
<path opacity="0.7" d="M466.9 91.901C464.5 88.701 459.9 86.801 453.3 88.001C446.9 89.101 439.9 88.701 432.7 87.401C422 85.601 416.1 94.401 420.1 101.701C414.5 94.201 420.4 84.101 431.8 86.001C439 87.301 446 87.701 452.4 86.601C459.9 85.301 464.8 88.001 466.9 91.901Z" fill="white"/>
<path opacity="0.7" d="M444.7 106.301C439 106.301 433.5 105.601 428.3 104.201C423.3 101.801 422 98.3008 422.5 95.9008C423.1 93.1008 425.8 91.3008 429.4 91.3008C430 91.3008 430.7 91.4008 431.4 91.5008C436.3 92.4008 440.7 92.8008 444.8 92.8008C447.8 92.8008 450.7 92.6008 453.4 92.1008H453.5C454.6 91.9008 455.6 91.8008 456.6 91.8008C462.3 91.8008 464.3 95.1008 464.3 97.9008C464.3 99.8008 463.4 101.601 461.9 103.001C459.8 104.801 456.7 105.801 452.8 105.801H452.6H452.4C449.8 106.201 447.2 106.301 444.7 106.301Z" fill="white"/>
<path d="M444.3 104.9C438.6 104.9 433.1 104.2 427.9 102.8C422.9 100.4 421.6 96.9004 422.1 94.5004C422.7 91.7004 425.4 89.9004 429 89.9004C429.6 89.9004 430.3 90.0004 431 90.1004C435.9 91.0004 440.3 91.4004 444.4 91.4004C447.4 91.4004 450.3 91.2004 453 90.7004H453.1C454.2 90.5004 455.2 90.4004 456.2 90.4004C461.9 90.4004 463.9 93.7004 463.9 96.5004C463.9 98.4004 463 100.2 461.5 101.6C459.4 103.4 456.3 104.4 452.4 104.4H452.2H452C449.4 104.8 446.8 104.9 444.3 104.9Z" fill="#370379"/>
<path d="M427.7 100.2C436.1 94.6999 451.4 96.4999 456.5 101.4L456.9 103.6C446.2 105.7 436.2 105.4 427 102.3" fill="#F73131"/>
<path d="M437.8 71.7004C437.8 77.7004 433 82.5004 427 82.5004C421 82.5004 416.2 77.7004 416.2 71.7004C416.2 69.6004 416.8 67.7004 417.8 66.1004C418 65.8004 418.2 65.4004 418.5 65.1004C420.5 62.6004 423.6 60.9004 427 60.9004C432.5 60.9004 437 65.0004 437.7 70.3004C437.8 70.7004 437.8 71.2004 437.8 71.7004Z" fill="white"/>
<path d="M468.5 71.7004C468.5 77.7004 463.7 82.5004 457.7 82.5004C451.7 82.5004 446.9 77.7004 446.9 71.7004C446.9 71.2004 446.9 70.7004 447 70.3004C447.7 65.0004 452.2 60.9004 457.7 60.9004C461.6 60.9004 465 63.0004 466.9 66.1004C468 67.7004 468.5 69.6004 468.5 71.7004Z" fill="white"/>
<path opacity="0.3" d="M468.5 71.7C468.5 77.7 463.7 82.5 457.7 82.5C454.4 82.5 451.4 81 449.4 78.6C451.1 79.6 453 80.2 455.1 80.2C461.1 80.2 465.9 75.4 465.9 69.4C465.9 67.3 465.3 65.4 464.3 63.8C464 63.3 463.7 62.9 463.4 62.5C464.8 63.4 466 64.6 466.9 66C468 67.7 468.5 69.6 468.5 71.7Z" fill="#370379"/>
<path d="M437.7 70.3004L417.8 66.1004L418.5 65.1004C420.5 62.6004 423.6 60.9004 427 60.9004C432.5 60.9004 437 65.0004 437.7 70.3004Z" fill="#797A75"/>
<path opacity="0.7" d="M437.4 68.7008C435.7 64.9008 431.9 62.2008 427.5 62.2008C424.1 62.2008 421 63.8008 419.1 66.3008L417.9 66.0008L418.6 65.0008C420.6 62.5008 423.7 60.8008 427.1 60.8008C432 60.9008 436.1 64.2008 437.4 68.7008Z" fill="white"/>
<path d="M427 82.5004C432.965 82.5004 437.8 77.6651 437.8 71.7004C437.8 65.7357 432.965 60.9004 427 60.9004C421.035 60.9004 416.2 65.7357 416.2 71.7004C416.2 77.6651 421.035 82.5004 427 82.5004Z" stroke="#370379" stroke-width="1.9362" stroke-miterlimit="10" stroke-linecap="round" stroke-linejoin="round"/>
<path d="M467 66.1004L447.1 70.3004C447.8 65.0004 452.3 60.9004 457.8 60.9004C461.6 60.9004 465.1 63.0004 467 66.1004Z" fill="#797A75"/>
<path opacity="0.7" d="M464.4 63.3004C462.8 62.4004 460.9 61.8004 458.9 61.8004C453.8 61.8004 449.6 65.3004 448.4 70.0004L446.9 70.3004C447.6 65.0004 452.1 60.9004 457.6 60.9004C460.3 60.9004 462.6 61.8004 464.4 63.3004Z" fill="white"/>
<path opacity="0.3" d="M437.8 71.7004C437.8 77.7004 433 82.5004 427 82.5004C423.5 82.5004 420.4 80.9004 418.5 78.3004C420.3 79.6004 422.5 80.3004 424.8 80.3004C430.8 80.3004 435.6 75.5004 435.6 69.5004C435.6 69.0004 435.6 68.5004 435.5 68.1004C435.2 66.2004 434.5 64.4004 433.3 62.9004C435.6 64.6004 437.3 67.2004 437.7 70.2004C437.8 70.7004 437.8 71.2004 437.8 71.7004Z" fill="#370379"/>
<path d="M437.7 70.3016L417.8 66.1016" stroke="#370379" stroke-width="1.9362" stroke-miterlimit="10" stroke-linecap="round" stroke-linejoin="round"/>
<path d="M457.8 82.5004C463.765 82.5004 468.6 77.6651 468.6 71.7004C468.6 65.7357 463.765 60.9004 457.8 60.9004C451.835 60.9004 447 65.7357 447 71.7004C447 77.6651 451.835 82.5004 457.8 82.5004Z" stroke="#370379" stroke-width="1.9362" stroke-miterlimit="10" stroke-linecap="round" stroke-linejoin="round"/>
<path d="M467 66.1016L447.1 70.3016" stroke="#370379" stroke-width="1.9362" stroke-miterlimit="10" stroke-linecap="round" stroke-linejoin="round"/>
<path d="M460.6 71.8004C461.2 74.0004 460.1 76.5004 458 77.5004C455.6 78.6004 452.7 77.6004 451.5 75.1004C450.4 72.7004 451.4 69.8004 453.8 68.6004C455.5 67.8004 457.5 68.1004 458.9 69.2004C458.8 69.2004 458.8 69.2004 458.7 69.3004C457.9 69.7004 457.6 70.6004 457.9 71.4004C458.3 72.2004 459.2 72.5004 460 72.2004C460.3 72.1004 460.4 71.9004 460.6 71.8004Z" fill="#370379"/>
<path d="M433.7 72.6001C433.9 74.9001 432.5 77.1001 430.2 77.8001C427.6 78.5001 424.9 77.0001 424.2 74.4001C423.5 71.8001 425 69.1001 427.6 68.4001C429.4 67.9001 431.3 68.5001 432.5 69.8001C432.4 69.8001 432.4 69.8001 432.3 69.8001C431.5 70.0001 431 70.9001 431.2 71.8001C431.4 72.6001 432.3 73.1001 433.2 72.9001C433.3 72.8001 433.5 72.7001 433.7 72.6001Z" fill="#370379"/>
<path d="M480.9 77.5004C482 85.5004 482.4 93.1004 482.3 100.4L480 99.0004C480 99.0004 480.8 104.8 479.4 115.1L478 113.6C478 113.6 476.4 118.9 472.2 123.1V134.7C472.2 137.3 470.2 139.4 467.6 139.5C464.8 139.6 461.9 139.6 459 139.5C456.4 139.4 454.4 137.3 454.4 134.7V130.5C450.3 131.2 446.3 131.6 442.3 131.6C438.4 131.6 434.5 131.3 430.6 130.6V134.7C430.6 137.3 428.6 139.4 426 139.5C423.1 139.6 420.3 139.6 417.4 139.5C414.8 139.4 412.8 137.3 412.8 134.7V123.8C408 119.4 406.2 113.5 406.2 113.5L404.8 115C403.5 104.7 404.2 98.9004 404.2 98.9004L401.9 100.4C401.7 93.1004 402.2 85.5004 403.3 77.5004L401 76.6004C403 75.6004 403.4 69.4004 406.5 65.4004L405 64.5004L406.6 62.4004L404.4 61.0004C406.3 60.8004 408 60.2004 409.4 58.8004C412.5 54.8004 416.3 51.6004 421.4 49.8004L419.5 47.4004L433.4 44.2004L432.1 40.6004C432.1 40.6004 434.8 41.4004 436.3 43.3004C436.3 43.3004 442.4 39.0004 447.3 37.9004L443.8 43.4004C443.8 43.4004 447.2 41.9004 452.5 41.8004L450.4 44.1004L464.3 47.3004L462.4 49.7004C467.5 51.5004 471.3 54.7004 474.4 58.7004C475.8 60.1004 477.5 60.7004 479.4 60.9004L477.2 62.3004L478.8 64.4004L477.3 65.3004C480.4 69.3004 480.8 75.5004 482.8 76.5004L480.9 77.5004Z" stroke="#370379" stroke-width="2" stroke-miterlimit="10" stroke-linecap="round" stroke-linejoin="round"/>
<path d="M472.9 123.7C471.3 124.9 469.6 125.8 467.8 126.4C469.3 125.2 470.6 123.9 471.6 122.4C471.9 122 472.5 121.9 472.9 122.2C473.3 122.5 473.4 123.1 473.1 123.5C473.1 123.6 473 123.7 472.9 123.7Z" fill="#370379"/>
<path d="M416.7 126.401C415.2 126.001 413.8 125.301 412.4 124.501C411.9 124.201 411.8 123.601 412.1 123.201C412.4 122.701 413 122.601 413.4 122.901C413.5 123.001 413.6 123.101 413.7 123.201C414.5 124.301 415.5 125.401 416.7 126.401Z" fill="#370379"/>
<path d="M460.3 129.201L454.7 131.401C454.2 131.601 453.6 131.401 453.5 130.901C453.3 130.401 453.5 129.801 454 129.701C454.1 129.701 454.2 129.601 454.3 129.601H454.4L460.3 129.201Z" fill="#370379"/>
<path d="M430.5 131.501L424.5 129.201L430.8 129.601H430.9C431.4 129.601 431.8 130.101 431.8 130.601C431.8 131.101 431.3 131.501 430.8 131.501C430.7 131.601 430.6 131.501 430.5 131.501Z" fill="#370379"/>
<path d="M452.4 108.601C474 108.601 472.5 82.9015 452.4 86.6015C446 87.7015 439 87.3015 431.8 86.0015C417.6 83.6015 411.9 100.001 426.5 106.701C434.2 108.801 442.7 109.601 452.4 108.601Z" stroke="#370379" stroke-width="1.8891" stroke-miterlimit="10" stroke-linecap="round" stroke-linejoin="round"/>
<path d="M460.2 102.601L457 100.001L455.6 104.301L453.1 100.701L449 104.801L445.1 100.701L442.2 104.901L439.4 100.601L435.2 104.401L432.8 99.7008L428 103.001L427.4 98.3008L424.1 100.401C432 108.001 455.1 104.901 460.2 102.601Z" fill="white"/>
<path d="M456.4 91L454.1 94L452.3 91.4L451 91.6L449.7 95.1L447.3 91.9L445.8 92L443.3 95.3C443.3 95.3 441.3 91.9 441.4 91.9C441.5 91.9 439.2 91.8 439.2 91.8L436.4 94.9L435.2 91.4L434 91.2L430.9 94.2L429.2 90.5L437.9 91.6L450.2 91.7L456.4 91Z" fill="white"/>
<path d="M444.3 104.9C438.6 104.9 433.1 104.2 427.9 102.8C422.9 100.4 421.6 96.9004 422.1 94.5004C422.7 91.7004 425.4 89.9004 429 89.9004C429.6 89.9004 430.3 90.0004 431 90.1004C435.9 91.0004 440.3 91.4004 444.4 91.4004C447.4 91.4004 450.3 91.2004 453 90.7004H453.1C454.2 90.5004 455.2 90.4004 456.2 90.4004C461.9 90.4004 463.9 93.7004 463.9 96.5004C463.9 98.4004 463 100.2 461.5 101.6C459.4 103.4 456.3 104.4 452.4 104.4H452.2H452C449.4 104.8 446.8 104.9 444.3 104.9Z" stroke="#370379" stroke-width="1.6596" stroke-miterlimit="10" stroke-linecap="round" stroke-linejoin="round"/>
<path d="M504.6 77.1012C500.1 75.7012 495.1 77.2012 495.1 77.2012C486.6 79.8012 480.7 75.0012 483.1 69.7012C483.9 67.8012 485.8 65.8012 489 64.1012C490.5 63.3012 491.9 62.4012 493.1 61.2012C496.3 58.3012 496.8 56.4012 496.8 56.2012L501.9 69.7012L504.6 77.1012Z" fill="#4C98F2"/>
<path opacity="0.7" d="M497.5 58.1016C497.2 58.8016 496.4 60.5016 493.9 62.7016C492.7 63.8016 491.3 64.8016 489.8 65.6016C484.3 68.6016 482.7 72.3016 483.7 75.2016C481.4 72.3016 482.3 67.7016 488.9 64.1016C490.4 63.3016 491.8 62.4016 493 61.2016C496.4 58.1016 496.7 56.1016 496.7 56.1016L497.5 58.1016Z" fill="white"/>
<path d="M506.6 77.2C505.9 77.4 505.2 77.4 504.6 77.1C504 76.8 503.6 76.3 503.4 75.7L501.2 69.3L497 57.3C496.9 56.9 496.8 56.5 496.9 56.2C497 55.2 497.6 54.4 498.6 54.1C498.9 54 499.2 54 499.4 54C500.4 54 501.4 54.7 501.8 55.7L505.8 67.1L508.2 74.1C508.6 75.3 507.9 76.7 506.6 77.2Z" fill="#4C98F2"/>
<path opacity="0.7" d="M503.7 76.3004C503.5 76.1004 503.4 75.9004 503.3 75.6004L496.8 57.2004C496.3 55.9004 497 54.4004 498.4 54.0004C498.7 53.9004 499 53.9004 499.2 53.9004C500.2 53.9004 501.2 54.6004 501.6 55.6004L502 56.7004C501.5 56.1004 500.8 55.7004 500 55.7004C499.7 55.7004 499.4 55.7004 499.2 55.8004C497.9 56.3004 497.2 57.7004 497.6 59.0004L503.7 76.3004Z" fill="white"/>
<path d="M506.6 77.2009C505.3 77.7009 503.8 77.0009 503.4 75.6009L496.9 57.2009C496.4 55.9009 497.1 54.4009 498.5 54.0009C499.8 53.5009 501.3 54.2009 501.7 55.6009L508.2 74.0009C508.6 75.3009 507.9 76.7009 506.6 77.2009Z" stroke="#370379" stroke-width="2" stroke-miterlimit="10" stroke-linecap="round" stroke-linejoin="round"/>
<path d="M496.8 56.1016C496.8 56.1016 496.5 58.0016 493.1 61.2016C491.9 62.3016 490.5 63.3016 489 64.1016C476.9 70.8016 483.7 80.7016 495.2 77.3016C495.2 77.3016 500.1 75.8016 504.7 77.2016" stroke="#370379" stroke-width="2" stroke-miterlimit="10" stroke-linecap="round" stroke-linejoin="round"/>
<path d="M503.9 61.9001C509 60.1001 511.2 66.4001 506.1 68.2001L503.9 61.9001Z" fill="#43BAA7"/>
<path d="M503.9 61.9001C509 60.1001 511.2 66.4001 506.1 68.2001L503.9 61.9001Z" stroke="#370379" stroke-width="2" stroke-miterlimit="10" stroke-linecap="round" stroke-linejoin="round"/>
<path d="M515.2 55.1016L512.1 58.3016" stroke="#370379" stroke-width="2" stroke-miterlimit="10" stroke-linecap="round" stroke-linejoin="round"/>
<path d="M514 62.2016L517.8 61.6016" stroke="#370379" stroke-width="2" stroke-miterlimit="10" stroke-linecap="round" stroke-linejoin="round"/>
<path d="M514.3 66.7012L517.3 68.6012" stroke="#370379" stroke-width="2" stroke-miterlimit="10" stroke-linecap="round" stroke-linejoin="round"/>
<path opacity="0.3" d="M506.6 77.2016C505.9 77.4016 505.2 77.4016 504.6 77.1016C500.1 75.7016 495.1 77.2016 495.1 77.2016C486.6 79.8016 480.7 75.0016 483.1 69.7016C482.9 77.1016 490.7 74.2016 495.5 72.0016C500.3 69.8016 501.7 72.3016 501.7 72.3016L501.1 69.3016C501.4 69.5016 501.6 69.6016 501.8 69.7016C506 71.7016 505.7 67.1016 505.7 67.1016L508.1 74.1016C508.6 75.3016 507.9 76.7016 506.6 77.2016Z" fill="#370379"/>
<path d="M438.6 23.9007C438.7 17.5007 447.8 17.6007 447.7 24.0007L438.6 23.9007Z" fill="#EF565D"/>
<path d="M476.9 57.9004L472.2 57.8004C472.3 57.5004 472.4 57.3004 472.4 57.3004C470.4 55.5004 468.4 53.9004 466.3 52.6004C466.2 52.5004 466.1 52.5004 466 52.4004C463.8 50.9004 461.5 49.8004 459.1 48.8004C456.5 47.7004 453.8 46.9004 451.2 46.4004C451 46.4004 450.9 46.3004 450.7 46.3004C448.2 45.8004 445.7 45.6004 443.3 45.6004C437.5 45.5004 431.4 46.7004 425.5 49.3004C421.5 51.1004 417.5 53.5004 413.9 56.6004C413.9 56.6004 414 56.8004 414.1 57.1004L409.4 57.0004C407.3 23.0004 443.5 23.5004 443.5 23.5004C443.5 23.5004 458.8 23.7004 468.7 33.2004C469.8 34.3004 470.9 35.5004 471.9 36.8004C475.5 41.8004 477.7 48.6004 476.9 57.9004Z" fill="#EF565D"/>
<path d="M457.6 26.401C457.6 26.401 474.4 32.201 469.6 55.001C451.1 42.401 433.6 42.901 416.9 54.301C412.5 31.401 429.5 26.001 429.5 26.001C438.9 22.601 448.3 22.701 457.6 26.401Z" fill="white"/>
<path d="M414.2 56.4004C410.9 58.9004 409.5 57.0004 409.5 57.0004C407.4 23.0004 443.6 23.5004 443.6 23.5004C443.6 23.5004 479.8 23.9004 476.9 57.9004C476.9 57.9004 474.3 59.2004 472.4 57.3004" stroke="#370379" stroke-width="2" stroke-miterlimit="10" stroke-linecap="round" stroke-linejoin="round"/>
<path d="M472.4 57.3015C472.4 57.3015 472.3 57.5015 472.2 57.8015C471.7 59.0015 470 61.8015 466.3 60.7015C464.8 59.6015 463.3 58.6015 461.8 57.7015C459.4 56.3015 457 55.1015 454.6 54.2015C452.5 53.4015 450.4 52.9015 448.4 52.5015C440.5 51.1015 432.6 52.7015 424.7 57.2015C423.2 58.0015 421.7 59.0015 420.2 60.1015C416.4 61.2015 414.8 58.3015 414.3 57.1015C414.2 56.8015 414.1 56.6015 414.1 56.6015C423 49.0015 433.7 45.5015 443.4 45.7015C445.9 45.7015 448.4 46.0015 450.8 46.4015C451 46.4015 451.1 46.5015 451.3 46.5015C453.9 47.0015 456.5 47.8015 459 48.8015C459.1 48.8015 459.1 48.8015 459.2 48.9015C461.5 49.9015 463.8 51.0015 466.1 52.5015C466.2 52.5015 466.3 52.6015 466.4 52.7015C468.3 53.9015 470.4 55.5015 472.4 57.3015Z" fill="#EF565D"/>
<path d="M472.4 57.3015C472.4 57.3015 470.9 62.2015 466.2 60.7015C451 49.4015 435.6 49.2015 420 60.1015C415.3 61.4015 413.9 56.6015 413.9 56.6015C422.8 49.0015 433.5 45.5015 443.2 45.7015C453 45.8015 463.2 49.0015 472.4 57.3015Z" stroke="#370379" stroke-width="2" stroke-miterlimit="10" stroke-linecap="round" stroke-linejoin="round"/>
<path d="M429.5 26C429.5 26 412.5 31.4 416.9 54.3" stroke="#370379" stroke-width="2" stroke-miterlimit="10" stroke-linecap="round" stroke-linejoin="round"/>
<path d="M457.6 26.4004C457.6 26.4004 474.4 32.2004 469.6 55.0004" stroke="#370379" stroke-width="2" stroke-miterlimit="10" stroke-linecap="round" stroke-linejoin="round"/>
<path d="M438.6 23.9007C438.7 17.5007 447.8 17.6007 447.7 24.0007" stroke="#370379" stroke-width="2" stroke-miterlimit="10" stroke-linejoin="round"/>
<path opacity="0.3" d="M477 57.6008C477.1 58.3008 476 58.2008 475.2 58.4008C474.5 58.5008 474 57.9008 473.1 58.0008C472.7 58.0008 472.3 57.5008 472.2 56.9008C472.3 56.6008 472.4 56.4008 472.4 56.4008C472.3 56.3008 472.1 56.2008 472 56.1008C470.1 54.4008 468.2 53.0008 466.3 51.7008C466.2 51.6008 466.1 51.6008 466 51.5008C463.8 50.0008 461.5 48.9008 459.1 47.9008C456.5 46.8008 453.8 46.0008 451.2 45.5008C451 45.5008 450.9 45.4008 450.7 45.4008C448.2 44.9008 445.7 44.7008 443.3 44.7008C437.5 44.6008 431.4 45.8008 425.5 48.4008C426.1 47.7008 426.7 47.2008 427.6 46.8008C434 43.7008 445.2 40.1008 463.9 47.3008C482.2 54.4008 469.3 33.1008 468.8 32.3008C469.9 33.4008 471 34.6008 472 35.9008C475.4 40.7008 477.6 47.3008 476.9 56.3008C477.1 56.7008 476.9 57.0008 477 57.6008Z" fill="#370379"/>
<path opacity="0.3" d="M472.4 57.3008C472.4 57.3008 472.3 57.5008 472.2 57.8008C471.7 59.0008 470 61.8008 466.3 60.7008C464.8 59.6008 463.3 58.6008 461.8 57.7008C459.4 56.3008 457 55.1008 454.6 54.2008C463.8 55.9008 461.1 51.3008 459 48.8008C459.1 48.8008 459.1 48.8008 459.2 48.9008C461.5 49.9008 463.8 51.0008 466.1 52.5008C466.2 52.5008 466.3 52.6008 466.4 52.7008C468.3 53.9008 470.4 55.5008 472.4 57.3008Z" fill="#370379"/>
<path opacity="0.3" d="M472.4 56.3C472.4 56.3 472.4 56.5 472.2 56.8C472.1 56.4 472 56.1 472 56C472.1 56.1 472.3 56.2 472.4 56.3Z" fill="#370379"/>
<path d="M534.8 133H508.2C507.3 133 506.7 133.7 506.7 134.5V138C506.7 138.9 507.4 139.5 508.2 139.5H534.8C535.7 139.5 536.3 138.8 536.3 138V134.5C536.4 133.7 535.7 133 534.8 133Z" fill="#FFD402"/>
<path opacity="0.7" d="M522.9 139.1H520.2C519.5 139.1 519 138.6 519 137.9V134.7C519 134 519.5 133.5 520.2 133.5H522.9C523.6 133.5 524.1 134 524.1 134.7V137.9C524.1 138.5 523.6 139.1 522.9 139.1Z" fill="white"/>
<path opacity="0.3" d="M536.4 134.5V138C536.4 138.9 535.7 139.5 534.9 139.5H531C531.8 139.5 532.5 138.8 532.5 138V134.5C532.5 133.7 531.8 133 531 133H534.9C535.7 133 536.4 133.7 536.4 134.5Z" fill="#370379"/>
<path opacity="0.3" d="M506.7 138V134.5C506.7 133.6 507.4 133 508.2 133H512.1C511.3 133 510.6 133.7 510.6 134.5V138C510.6 138.8 511.3 139.5 512.1 139.5H508.2C507.4 139.6 506.7 138.9 506.7 138Z" fill="#370379"/>
<path d="M534.8 133H508.2C507.3 133 506.7 133.7 506.7 134.5V138C506.7 138.9 507.4 139.5 508.2 139.5H534.8C535.7 139.5 536.3 138.8 536.3 138V134.5C536.4 133.7 535.7 133 534.8 133Z" stroke="#370379" stroke-width="2" stroke-miterlimit="10" stroke-linecap="round" stroke-linejoin="round"/>
<path d="M529.4 126.4H502.8C501.9 126.4 501.3 127.1 501.3 127.9V131.4C501.3 132.3 502 132.9 502.8 132.9H529.4C530.3 132.9 530.9 132.2 530.9 131.4V128C530.9 127.1 530.2 126.4 529.4 126.4Z" fill="#FFD402"/>
<path opacity="0.7" d="M517.4 132.5H514.7C514 132.5 513.5 132 513.5 131.3V128.1C513.5 127.4 514 126.9 514.7 126.9H517.4C518.1 126.9 518.6 127.4 518.6 128.1V131.3C518.6 132 518.1 132.5 517.4 132.5Z" fill="white"/>
<path opacity="0.3" d="M530.9 128V131.5C530.9 132.4 530.2 133 529.4 133H525.5C526.3 133 527 132.3 527 131.5V128C527 127.2 526.3 126.5 525.5 126.5H529.4C530.2 126.4 530.9 127.1 530.9 128Z" fill="#370379"/>
<path opacity="0.3" d="M501.2 131.5V128C501.2 127.1 501.9 126.5 502.7 126.5H506.6C505.8 126.5 505.1 127.2 505.1 128V131.5C505.1 132.3 505.8 133 506.6 133H502.7C501.9 133 501.2 132.3 501.2 131.5Z" fill="#370379"/>
<path d="M529.4 126.4H502.8C501.9 126.4 501.3 127.1 501.3 127.9V131.4C501.3 132.3 502 132.9 502.8 132.9H529.4C530.3 132.9 530.9 132.2 530.9 131.4V128C530.9 127.1 530.2 126.4 529.4 126.4Z" stroke="#370379" stroke-width="2" stroke-miterlimit="10" stroke-linecap="round" stroke-linejoin="round"/>
<path d="M536.9 119.801H510.3C509.4 119.801 508.8 120.501 508.8 121.301V124.801C508.8 125.701 509.5 126.301 510.3 126.301H536.9C537.8 126.301 538.4 125.601 538.4 124.801V121.301C538.5 120.501 537.8 119.801 536.9 119.801Z" fill="#FFD402"/>
<path opacity="0.7" d="M525 125.901H522.3C521.6 125.901 521.1 125.401 521.1 124.701V121.501C521.1 120.801 521.6 120.301 522.3 120.301H525C525.7 120.301 526.2 120.801 526.2 121.501V124.701C526.2 125.401 525.7 125.901 525 125.901Z" fill="white"/>
<path opacity="0.3" d="M538.5 121.4V124.9C538.5 125.8 537.8 126.4 537 126.4H533C533.8 126.4 534.5 125.7 534.5 124.9V121.4C534.5 120.6 533.8 119.9 533 119.9H536.9C537.8 119.8 538.5 120.5 538.5 121.4Z" fill="#370379"/>
<path opacity="0.3" d="M508.8 124.9V121.4C508.8 120.5 509.5 119.9 510.3 119.9H514.2C513.4 119.9 512.7 120.6 512.7 121.4V124.9C512.7 125.7 513.4 126.4 514.2 126.4H510.3C509.5 126.4 508.8 125.7 508.8 124.9Z" fill="#370379"/>
<path d="M536.9 119.801H510.3C509.4 119.801 508.8 120.501 508.8 121.301V124.801C508.8 125.701 509.5 126.301 510.3 126.301H536.9C537.8 126.301 538.4 125.601 538.4 124.801V121.301C538.5 120.501 537.8 119.801 536.9 119.801Z" stroke="#370379" stroke-width="2" stroke-miterlimit="10" stroke-linecap="round" stroke-linejoin="round"/>
<path d="M533.8 113.301H507.2C506.3 113.301 505.7 114.001 505.7 114.801V118.301C505.7 119.201 506.4 119.801 507.2 119.801H533.8C534.7 119.801 535.3 119.101 535.3 118.301V114.801C535.3 114.001 534.6 113.301 533.8 113.301Z" fill="#FFD402"/>
<path opacity="0.7" d="M521.8 119.301H519.1C518.4 119.301 517.9 118.801 517.9 118.101V115.001C517.9 114.301 518.4 113.801 519.1 113.801H521.8C522.5 113.801 523 114.301 523 115.001V118.201C523 118.801 522.5 119.301 521.8 119.301Z" fill="white"/>
<path opacity="0.3" d="M535.3 114.801V118.301C535.3 119.201 534.6 119.801 533.8 119.801H529.9C530.7 119.801 531.4 119.101 531.4 118.301V114.801C531.4 114.001 530.7 113.301 529.9 113.301H533.8C534.6 113.301 535.3 114.001 535.3 114.801Z" fill="#370379"/>
<path opacity="0.3" d="M505.7 118.301V114.801C505.7 113.901 506.4 113.301 507.2 113.301H511.1C510.3 113.301 509.6 114.001 509.6 114.801V118.301C509.6 119.101 510.3 119.801 511.1 119.801H507.2C506.3 119.801 505.7 119.201 505.7 118.301Z" fill="#370379"/>
<path d="M533.8 113.301H507.2C506.3 113.301 505.7 114.001 505.7 114.801V118.301C505.7 119.201 506.4 119.801 507.2 119.801H533.8C534.7 119.801 535.3 119.101 535.3 118.301V114.801C535.3 114.001 534.6 113.301 533.8 113.301Z" stroke="#370379" stroke-width="2" stroke-miterlimit="10" stroke-linecap="round" stroke-linejoin="round"/>
<path d="M11.1 139.6H553.4" stroke="#370379" stroke-width="2" stroke-miterlimit="10" stroke-linecap="round" stroke-linejoin="round"/>
<path d="M541.4 139.6C549.574 139.6 556.2 132.974 556.2 124.8C556.2 116.626 549.574 110 541.4 110C533.226 110 526.6 116.626 526.6 124.8C526.6 132.974 533.226 139.6 541.4 139.6Z" fill="#FFD402"/>
<path opacity="0.3" d="M556.2 124.799C556.2 132.999 549.6 139.599 541.4 139.599C537 139.599 533 137.699 530.3 134.599C532.7 136.399 535.8 137.399 539 137.399C547.2 137.399 553.8 130.799 553.8 122.599C553.8 118.799 552.4 115.399 550.1 112.799C553.8 115.499 556.2 119.799 556.2 124.799Z" fill="#370379"/>
<path opacity="0.7" d="M553.2 115.699C550.5 112.899 546.7 111.199 542.6 111.199C539.8 111.199 537.2 111.999 535 113.299C535 116.199 533 116.699 530.9 116.999C528.9 119.499 527.8 122.699 527.8 126.099C527.8 129.499 529 132.699 530.9 135.199C528.3 132.499 526.6 128.899 526.6 124.799C526.6 116.599 533.2 109.999 541.4 109.999C546.2 109.899 550.4 112.199 553.2 115.699Z" fill="white"/>
<path d="M541.4 139.6C549.574 139.6 556.2 132.974 556.2 124.8C556.2 116.626 549.574 110 541.4 110C533.226 110 526.6 116.626 526.6 124.8C526.6 132.974 533.226 139.6 541.4 139.6Z" stroke="#370379" stroke-width="2" stroke-miterlimit="10" stroke-linecap="round" stroke-linejoin="round"/>
<path d="M534.8 130.5L538.6 129.5L537.9 125.1L539.8 128.8C539.8 128.8 543.3 128.1 543.3 128C543.3 127.9 544.1 124.2 544.1 124.2L544.7 129.8L548.7 129L547.5 118.5H543.4L541.1 124.7L538.2 118.5L534.6 119.1L534.8 130.5Z" fill="#370379"/>
<path d="M286.2 104.099C293.877 104.099 300.1 97.8756 300.1 90.1988C300.1 82.5221 293.877 76.2988 286.2 76.2988C278.523 76.2988 272.3 82.5221 272.3 90.1988C272.3 97.8756 278.523 104.099 286.2 104.099Z" fill="#FFD402"/>
<path opacity="0.3" d="M300.1 90.2C300.1 97.9 293.9 104.1 286.2 104.1C282 104.1 278.3 102.3 275.7 99.4C278 101.1 280.8 102.1 283.9 102.1C291.6 102.1 297.8 95.9 297.8 88.2C297.8 84.7 296.5 81.5 294.3 79C297.8 81.4 300.1 85.5 300.1 90.2Z" fill="#370379"/>
<path opacity="0.7" d="M297.2 81.6992C294.7 79.0992 291.1 77.4992 287.2 77.4992C284.6 77.4992 282.1 78.1992 280.1 79.4992C280.1 82.1992 278.3 82.6992 276.2 82.8992C274.4 85.2992 273.3 88.1992 273.3 91.3992C273.3 94.5992 274.4 97.5992 276.2 99.8992C273.7 97.3992 272.2 93.8992 272.2 90.0992C272.2 82.3992 278.4 76.1992 286.1 76.1992C290.7 76.1992 294.7 78.3992 297.2 81.6992Z" fill="white"/>
<path d="M286.2 104.099C293.877 104.099 300.1 97.8756 300.1 90.1988C300.1 82.5221 293.877 76.2988 286.2 76.2988C278.523 76.2988 272.3 82.5221 272.3 90.1988C272.3 97.8756 278.523 104.099 286.2 104.099Z" stroke="#370379" stroke-width="1.8809" stroke-miterlimit="10" stroke-linecap="round" stroke-linejoin="round"/>
<path d="M280 95.5988L283.6 94.6988L282.9 90.4988L284.7 93.9988L288 93.2988L288.8 89.6988L289.4 94.8988L293.1 94.1988L291.9 84.2988H288L285.8 90.0988L283.1 84.2988L279.7 84.8988L280 95.5988Z" fill="#370379"/>
<path d="M496.7 126.599C494.1 132.499 489.8 136.499 486 137.099C485.1 137.199 484.3 137.199 483.5 136.899H483.4L482.5 136.499C478.7 134.299 478.2 126.999 481.4 119.799C484.6 112.599 490.4 108.099 494.6 109.499H494.7L495.5 109.899C496.2 110.299 496.8 110.899 497.3 111.699C499.4 114.799 499.3 120.699 496.7 126.599Z" fill="#FFD402"/>
<path opacity="0.7" d="M498 112.999C497.6 112.399 497 111.899 496.4 111.499L495.6 111.099H495.5C491.3 109.699 485.5 114.199 482.3 121.399C480.1 126.499 479.7 131.599 481 134.899C478.7 131.799 478.8 125.699 481.4 119.699C484.6 112.499 490.4 107.999 494.6 109.399H494.7L495.5 109.799C496.2 110.199 496.8 110.799 497.3 111.599C497.6 111.999 497.8 112.499 498 112.999Z" fill="white"/>
<path opacity="0.3" d="M496.7 126.6C494.1 132.5 489.8 136.5 486 137.1C485.1 137.2 484.3 137.2 483.5 136.9H483.4L482.5 136.5C481.1 135.7 480.1 134.1 479.6 132C480.1 132.7 480.6 133.2 481.3 133.6L482.2 134H482.3C483.1 134.2 483.9 134.3 484.8 134.2C488.6 133.6 492.9 129.6 495.5 123.7C497.5 119.3 498 114.8 497.2 111.5C497.2 111.5 497.2 111.5 497.2 111.6C499.4 114.8 499.3 120.7 496.7 126.6Z" fill="#370379"/>
<path d="M501.9 128.898C501.7 129.398 501.5 129.798 501.2 130.298C497.8 136.898 492.2 140.798 488.2 139.098L483.5 136.998C484.3 137.198 485.1 137.298 486 137.198C489.4 136.698 493.2 133.398 495.8 128.498C496.1 127.898 496.4 127.298 496.7 126.698C499.3 120.798 499.4 114.898 497.3 111.698C496.8 110.998 496.2 110.398 495.5 109.898L500.3 111.998C504.5 113.798 505.2 121.398 501.9 128.898Z" fill="#FFD402"/>
<path d="M496.7 126.599C494.1 132.499 489.8 136.499 486 137.099C485.1 137.199 484.3 137.199 483.5 136.899H483.4L482.5 136.499C478.7 134.299 478.2 126.999 481.4 119.799C484.6 112.599 490.4 108.099 494.6 109.499H494.7L495.5 109.899C496.2 110.299 496.8 110.899 497.3 111.699C499.4 114.799 499.3 120.699 496.7 126.599Z" stroke="#370379" stroke-width="2" stroke-miterlimit="10" stroke-linecap="round" stroke-linejoin="round"/>
<path opacity="0.7" d="M498.9 120L498 124.6L502.6 126.2L503.8 121.5" fill="white"/>
<path d="M501.9 128.898C498.6 136.398 492.5 140.898 488.2 139.098L483.5 136.998C484.3 137.198 485.1 137.298 486 137.198C489.8 136.598 494.1 132.598 496.7 126.698C499.3 120.798 499.4 114.898 497.3 111.698C496.8 110.998 496.2 110.398 495.5 109.898L500.3 111.998C504.5 113.798 505.2 121.398 501.9 128.898Z" stroke="#370379" stroke-width="2" stroke-miterlimit="10" stroke-linecap="round" stroke-linejoin="round"/>
<path opacity="0.3" d="M501.2 130.3C497.8 136.9 492.2 140.8 488.2 139.1L483.5 137C484.3 137.2 485.1 137.3 486 137.2C489.4 136.7 493.2 133.4 495.8 128.5H496.1L501.2 130.3Z" fill="#370379"/>
<path d="M492.4 118.6L488.5 122.3L490.3 115.7L488.5 114.1L483.1 123.4L485.1 124.8L486.9 120.8L486 124.9L487.8 126.3L490 123.7L487.6 128.5L489.6 130.1L494.1 121L492.4 118.6Z" fill="#370379"/>
<path opacity="0.3" d="M498.5 114.399L503.8 117.499L501.2 112.499L497.1 111.299" fill="#370379"/>
</g>
<defs>
<clipPath id="clip0">
<rect width="557.2" height="140.6" fill="white"/>
</clipPath>
</defs>
</svg>
