<svg width="92" height="94" viewBox="0 0 92 94" fill="none" xmlns="http://www.w3.org/2000/svg">
<g clip-path="url(#clip0)">
<path d="M90.9803 4.93378C73.9665 1.17448 59.6493 15.6265 56.8154 20.8363L54.0801 43.1982C66.954 27.4807 78.9566 15.3569 90.9803 4.93378Z" fill="url(#paint0_linear)"/>
<path d="M54.079 43.199L54.0156 43.7101C54.0156 43.7101 56.7157 45.002 64.6946 43.7101C72.6734 42.4182 81.1223 35.4848 85.5825 30.0811C90.0428 24.6775 92.9753 12.2205 90.9792 4.93457C78.9555 15.3577 66.9529 27.4815 54.079 43.199Z" fill="url(#paint1_linear)"/>
<path d="M3.44138 0.472656C0.625111 15.746 9.30803 26.5568 12.1243 28.9062L31.6042 40.5383L34.2603 32.5192C25.4348 21.8194 8.22025 3.85656 3.44138 0.472656Z" fill="url(#paint2_linear)"/>
<path d="M3.44141 0.471992C8.22027 3.85589 25.4436 21.8187 34.2603 32.5185L38.9969 18.2128C30.7822 4.31941 15.4106 -1.82976 3.44141 0.471992Z" fill="url(#paint3_linear)"/>
<path d="M43.5421 63.8027H39.3477V77.4617H43.5421H47.7366V63.8027H43.5421Z" fill="#624A25"/>
<path d="M43.5 48H39V77H43.5H48V48H43.5Z" fill="url(#paint4_linear)"/>
<path d="M79.4996 40.5C66.3511 34.2889 56.6343 37.5939 48.5439 46.9199C42.4017 54.0003 42.1756 64.5677 42.1756 64.5677C55.5633 54.1969 67.7845 46.7301 79.4996 40.5Z" fill="url(#paint5_linear)"/>
<path d="M33.0182 36.6191C33.5176 51.1191 43.0955 59.3369 43.0955 59.3369L43.1572 59.3052C47.6683 40.1062 50.9002 20.6282 52.8311 1C48.2089 2.64965 32.3915 18.4245 33.0182 36.6191Z" fill="url(#paint6_linear)"/>
<path d="M52.8313 1C50.8981 20.6289 47.664 40.1076 43.1504 59.307C46.5704 57.5198 56.0894 51.6509 61.5459 39.4847C67.0394 27.2481 63.0491 9.58134 52.8313 1Z" fill="url(#paint7_linear)"/>
<path d="M42.2505 64.478L42.105 64.8762C42.105 64.8762 44.0801 66.4171 50.8516 66.8718C57.6231 67.3265 65.8122 63.3432 70.4544 59.8418C75.0967 56.3404 79.8011 46.7175 79.4999 40.4995C67.7441 46.6142 55.6717 54.2749 42.2505 64.478Z" fill="url(#paint8_linear)"/>
<path d="M20.4135 60.4113C31.8019 66.7684 42.5776 63.2199 42.5776 63.2199L42.5818 63.1577C29.9076 50.7609 16.4239 39.2185 2.21988 28.6074C1.34014 32.9306 6.12337 52.4344 20.4135 60.4113Z" fill="url(#paint9_linear)"/>
<path d="M2.22157 28.6072C16.4251 39.2205 29.9082 50.7649 42.5816 63.1638C42.7966 59.7016 42.7067 49.6492 35.883 39.7946C29.0223 29.8789 13.5744 24.7354 2.22157 28.6072Z" fill="url(#paint10_linear)"/>
<path d="M70.0628 84.1581C65.7504 78.342 57.2136 77.0783 57.2136 77.0783C54.2477 74.6461 49.9969 72.6511 44.5157 72.8485C34.7767 73.2009 27.1499 82.3657 25.3897 86.1267C23.7844 86.3171 17.7998 88.0989 15.8848 93.0584H73.3878C73.1352 89.8381 71.983 86.7538 70.0628 84.1581Z" fill="url(#paint11_linear)"/>
<path d="M25.4478 86.6514L25.7382 86.6162L25.7473 86.5966C27.2947 86.3548 34.3833 85.754 37.7531 88.324C37.7531 88.324 36.3573 86.0522 33.0323 85.5217C30.3926 85.1488 27.7495 85.3229 26.3287 85.4738C28.5765 81.626 35.513 73.7035 44.5315 73.3767C44.6556 73.3767 44.7788 73.3735 44.9012 73.3705C45.0217 73.3674 45.1414 73.3644 45.2603 73.3644C49.4951 73.3351 53.6061 74.7939 56.8774 77.4867L56.99 77.5801L56.9936 77.5807C58.8785 79.1524 60.4743 81.1457 61.2761 82.9327C61.2761 82.9327 61.2761 80.5435 59.0248 78.0193C61.7367 78.7407 66.7243 80.5382 69.6422 84.4748C71.4866 86.9812 72.5966 89.953 72.8474 93.0562H73.9176C73.6546 89.7243 72.467 86.5323 70.4888 83.8403C66.3594 78.2692 58.6305 76.7782 57.4336 76.5773C53.786 73.6199 49.1814 72.1054 44.4928 72.321C34.4598 72.6841 26.9087 81.9528 25.0324 85.6433C22.9853 86.0064 17.1521 87.9275 15.3145 93.0562H16.4515C18.3578 88.4844 24.0115 86.8206 25.4478 86.6514Z" fill="url(#paint12_linear)"/>
</g>
<defs>
<linearGradient id="paint0_linear" x1="78.7322" y1="-2.00484" x2="57.7035" y2="31.5637" gradientUnits="userSpaceOnUse">
<stop stop-color="#89BE4F"/>
<stop offset="1" stop-color="#558535"/>
</linearGradient>
<linearGradient id="paint1_linear" x1="72.8706" y1="15.6855" x2="68.0485" y2="38.948" gradientUnits="userSpaceOnUse">
<stop stop-color="#89BE4F"/>
<stop offset="1" stop-color="#558535"/>
</linearGradient>
<linearGradient id="paint2_linear" x1="20.6823" y1="0.529045" x2="0.494778" y2="33.3199" gradientUnits="userSpaceOnUse">
<stop stop-color="#89BE4F"/>
<stop offset="1" stop-color="#558535"/>
</linearGradient>
<linearGradient id="paint3_linear" x1="27.195" y1="-5.28768" x2="10.7889" y2="24.8845" gradientUnits="userSpaceOnUse">
<stop stop-color="#89BE4F"/>
<stop offset="1" stop-color="#558535"/>
</linearGradient>
<linearGradient id="paint4_linear" x1="31.0594" y1="62.5898" x2="47.9855" y2="62.2081" gradientUnits="userSpaceOnUse">
<stop stop-color="#AE733F"/>
<stop offset="1" stop-color="#402F17"/>
</linearGradient>
<linearGradient id="paint5_linear" x1="70.6106" y1="32.4441" x2="47.328" y2="55.8416" gradientUnits="userSpaceOnUse">
<stop stop-color="#89BE4F"/>
<stop offset="1" stop-color="#558535"/>
</linearGradient>
<linearGradient id="paint6_linear" x1="46.3317" y1="-8.48589" x2="5.91362" y2="6.15299" gradientUnits="userSpaceOnUse">
<stop stop-color="#AADE55"/>
<stop offset="1" stop-color="#558535"/>
</linearGradient>
<linearGradient id="paint7_linear" x1="57.0915" y1="-8.481" x2="14.6863" y2="7.89761" gradientUnits="userSpaceOnUse">
<stop stop-color="#AADE55"/>
<stop offset="1" stop-color="#558535"/>
</linearGradient>
<linearGradient id="paint8_linear" x1="62.6783" y1="45.9178" x2="54.6179" y2="63.7449" gradientUnits="userSpaceOnUse">
<stop stop-color="#89BE4F"/>
<stop offset="1" stop-color="#558535"/>
</linearGradient>
<linearGradient id="paint9_linear" x1="-8.10018" y1="29.1978" x2="-15.6284" y2="67.101" gradientUnits="userSpaceOnUse">
<stop stop-color="#AADE55"/>
<stop offset="1" stop-color="#558535"/>
</linearGradient>
<linearGradient id="paint10_linear" x1="-3.0924" y1="20.9216" x2="-10.2059" y2="61.1625" gradientUnits="userSpaceOnUse">
<stop stop-color="#AADE55"/>
<stop offset="1" stop-color="#558535"/>
</linearGradient>
<linearGradient id="paint11_linear" x1="42.2433" y1="76.754" x2="42.9492" y2="119.934" gradientUnits="userSpaceOnUse">
<stop stop-color="#AE733F"/>
<stop offset="1" stop-color="#402F17"/>
</linearGradient>
<linearGradient id="paint12_linear" x1="42.8948" y1="59.3053" x2="42.9089" y2="120.639" gradientUnits="userSpaceOnUse">
<stop stop-color="#AE733F"/>
<stop offset="1" stop-color="#402F17"/>
</linearGradient>
<clipPath id="clip0">
<rect width="91.7049" height="93.2333" fill="white"/>
</clipPath>
</defs>
</svg>
