<svg width="270" height="152" viewBox="0 0 270 152" fill="none" xmlns="http://www.w3.org/2000/svg">
<path d="M58.0281 134.319L56.8725 140.928L55.5518 148.445C55.3041 149.767 54.1485 150.676 52.8278 150.676H40.1161H26.6615C26.0012 150.676 25.5884 150.098 25.671 149.519C26.0012 147.619 26.8266 146.05 28.3124 144.976C28.9727 144.48 29.2204 143.737 29.2204 142.911L28.0648 128.867L58.0281 134.319Z" fill="#43BAA7"/>
<path d="M117.294 108.133C123.485 125.811 115.891 134.65 106.399 126.967C105.573 126.307 104.748 125.48 103.922 124.572C103.922 124.572 101.363 127.794 96.5759 130.767L95.5854 142.994C95.5029 143.737 95.833 144.563 96.4934 145.059C97.9792 146.215 98.8046 147.702 99.1348 149.602C99.2173 150.18 98.7221 150.759 98.1443 150.759H71.9779C70.6572 150.759 69.5016 149.767 69.254 148.528L67.273 137.459C54.8089 138.037 48.0403 134.733 48.0403 134.733L26.4139 124.241L1.4032 112.098C2.22863 103.92 8.4194 96.3196 8.4194 96.3196C8.00668 89.6283 8.91466 82.937 11.0608 76.3283L4.70494 76.824C6.68599 74.6761 8.99721 73.024 11.5561 71.7848L3.63187 65.0109L15.9309 68.0674C22.2042 55.0979 33.0174 46.5066 47.9578 41.8805C49.1959 39.1544 50.8468 36.6761 52.8278 34.5283L53.9834 39.9805C59.4313 34.2805 65.0443 29.737 71.1525 26.8457C68.8413 31.3066 67.1904 35.7674 66.0348 40.2283C72.3907 37.0066 78.3338 37.0892 78.3338 37.0892L76.1051 41.7979C89.147 46.5066 100.621 53.1153 107.059 66.4979C107.307 66.9935 107.472 67.4892 107.719 67.9848L120.018 64.9283L112.094 71.7022C114.653 72.9414 116.964 74.6761 118.945 76.7414L112.507 76.2457C114.901 83.3501 115.726 90.537 115.066 97.724L114.818 100.037L114.653 101.607C115.726 104.002 116.634 106.15 117.294 108.133Z" fill="#43BAA7"/>
<path opacity="0.7" d="M10.4831 97.1456C10.4831 97.1456 9.24492 98.6326 7.84167 101.028L8.41948 96.3195C8.00676 89.9586 8.8322 83.5978 10.7307 77.3195L13.1245 77.1543C10.8958 83.763 10.0704 90.4543 10.4831 97.1456Z" fill="white"/>
<path opacity="0.7" d="M52.9105 34.5293L53.4883 37.0902C52.1676 38.825 51.012 40.6423 50.104 42.7076C35.1636 47.251 24.3504 55.925 17.9945 68.8945L5.69555 65.838L13.6197 72.6119C11.4736 73.6858 9.57509 75.0076 7.84168 76.6597L4.70502 76.825C6.68607 74.6771 8.99729 73.025 11.5561 71.7858L3.63196 65.0119L15.9309 68.0684C22.2043 55.0989 33.0175 46.5076 47.9578 41.8815C49.2785 39.1554 50.8469 36.6771 52.9105 34.5293Z" fill="white"/>
<path opacity="0.7" d="M7.7591 76.5759L11.0608 76.3281C10.9783 76.6586 10.8132 76.989 10.7307 77.3194L6.68604 77.6499C7.09875 77.2368 7.42893 76.9064 7.7591 76.5759Z" fill="white"/>
<path opacity="0.7" d="M67.3556 137.459L67.5206 138.368C56.2947 138.533 50.1865 135.642 50.1865 135.642L49.8563 135.477C52.4977 136.303 58.5234 137.872 67.3556 137.459Z" fill="white"/>
<path d="M28.0648 128.867L29.2204 142.993C29.3029 143.737 28.9728 144.563 28.3124 145.059C26.8266 146.215 26.0012 147.785 25.671 149.602C25.5885 150.18 26.0837 150.758 26.6615 150.758H52.8279C54.1485 150.758 55.3042 149.767 55.5518 148.528L58.0281 134.402" stroke="#370379" stroke-width="3" stroke-miterlimit="10" stroke-linecap="round" stroke-linejoin="round"/>
<path d="M78.8291 88.0596C78.8291 101.855 67.1905 113.007 52.8279 113.007C38.4653 113.007 26.8267 101.855 26.8267 88.0596C26.8267 85.5813 27.2394 83.1856 27.8997 80.9552C31.1189 78.0639 34.9985 75.9161 39.2907 74.5943C47.9578 71.7857 58.1932 72.1161 66.8603 75.0074C70.9875 76.4117 74.7019 78.3943 77.8386 80.9552C78.4164 83.1856 78.8291 85.5813 78.8291 88.0596Z" fill="white"/>
<path opacity="0.3" d="M78.8291 88.0594C78.8291 101.855 67.1904 113.007 52.8278 113.007C44.8211 113.007 37.6398 109.538 32.8523 104.085C37.3096 107.638 43.0877 109.785 49.361 109.785C63.7236 109.785 75.3622 98.6333 75.3622 84.8376C75.3622 82.6898 75.1146 80.7072 74.5368 78.7246C75.6099 79.3855 76.6829 80.129 77.6734 80.955C78.4163 83.1855 78.8291 85.5811 78.8291 88.0594Z" fill="#370379"/>
<path d="M70.7398 86.6551C70.7398 96.2377 62.6506 104.003 52.5802 104.003C42.5099 104.003 34.4207 96.2377 34.4207 86.6551C34.4207 82.2768 36.1541 78.229 38.9606 75.1725C47.6276 72.3638 57.863 72.6942 66.5301 75.5855C69.1715 78.642 70.7398 82.442 70.7398 86.6551Z" fill="#370379"/>
<path d="M78.8291 88.0596C78.8291 101.855 67.1905 113.007 52.8279 113.007C38.4653 113.007 26.8267 101.855 26.8267 88.0596C26.8267 85.5813 27.2394 83.1856 27.8997 80.9552C31.1189 78.0639 34.9985 75.9161 39.2907 74.5943C47.9578 71.7857 58.1932 72.1161 66.8603 75.0074C70.9875 76.4117 74.7019 78.3943 77.8386 80.9552C78.4164 83.1856 78.8291 85.5813 78.8291 88.0596Z" stroke="#370379" stroke-width="3" stroke-miterlimit="10" stroke-linecap="round" stroke-linejoin="round"/>
<path d="M44.1608 91.1164C46.3946 91.1164 48.2055 88.6384 48.2055 85.5817C48.2055 82.5249 46.3946 80.0469 44.1608 80.0469C41.9271 80.0469 40.1162 82.5249 40.1162 85.5817C40.1162 88.6384 41.9271 91.1164 44.1608 91.1164Z" fill="white"/>
<path d="M114.653 101.689C126.044 125.233 115.643 137.376 103.922 124.572C103.922 124.572 101.363 127.794 96.5759 130.767L95.5854 142.994C95.5029 143.737 95.833 144.563 96.4934 145.059C97.9792 146.215 98.8046 147.702 99.1348 149.602C99.2173 150.18 98.7221 150.759 98.1443 150.759H71.9779C70.6572 150.759 69.5016 149.767 69.254 148.528L67.273 137.459C54.8089 138.037 48.0403 134.733 48.0403 134.733L26.4139 124.241L1.4032 112.098C2.22863 103.92 8.4194 96.3196 8.4194 96.3196C8.00668 89.6283 8.91466 82.937 11.0608 76.3283L4.70494 76.824C6.68599 74.6761 8.99721 73.024 11.5561 71.7848L3.63187 65.0109L15.9309 68.0674C22.2042 55.0979 33.0174 46.5066 47.9578 41.8805C49.1959 39.1544 50.8468 36.6761 52.8278 34.5283L53.9834 39.9805C59.4313 34.2805 65.0443 29.737 71.1525 26.8457C68.8413 31.3066 67.1904 35.7674 66.0348 40.2283C72.3907 37.0066 78.3338 37.0892 78.3338 37.0892L76.1051 41.7979C89.5597 46.6718 101.446 53.6109 107.719 67.9848L120.018 64.9283L112.094 71.7022C114.653 72.9414 116.964 74.6761 118.945 76.7414L112.507 76.2457C114.901 83.3501 115.726 90.537 115.066 97.724L114.653 101.689Z" stroke="#370379" stroke-width="3" stroke-miterlimit="10" stroke-linecap="round" stroke-linejoin="round"/>
<path d="M73.1335 136.964L67.3555 138.699L67.2729 136.221L73.1335 136.964Z" fill="#370379"/>
<path d="M97.2364 131.843C95.1728 132.669 92.9441 133.33 90.798 133.66C92.6965 132.503 94.3473 131.182 95.9157 129.777L97.2364 131.843Z" fill="#370379"/>
<path d="M18.8193 66.8297C17.251 67.2427 15.3525 67.2427 13.2889 66.5819C-2.88963 56.3384 7.92357 29.5732 18.7368 26.9297C18.159 28.0036 17.7463 28.9949 17.3335 29.9862C12.6286 41.3862 17.1685 48.1601 25.0926 53.1993C26.826 57.7427 24.5148 65.2601 18.8193 66.8297Z" fill="#EFD03A"/>
<path d="M15.1049 66.9949C14.5271 66.9123 13.8667 66.7471 13.2889 66.5819C-2.88963 56.3384 7.92357 29.5732 18.7368 26.9297C18.4066 27.5906 18.0764 28.334 17.7463 28.9949C8.25375 35.1906 0.824829 57.6601 15.1049 66.9949Z" fill="white"/>
<path d="M13.207 66.5819C-2.97154 56.3384 7.84167 29.5732 18.6549 26.9297C11.7212 40.2297 16.3437 47.6645 25.0107 53.1993C27.4045 58.9819 22.9471 69.721 13.207 66.5819Z" stroke="#370379" stroke-width="3" stroke-miterlimit="10" stroke-linecap="round" stroke-linejoin="round"/>
<path opacity="0.3" d="M18.82 66.8294C19.0676 66.4163 19.3152 66.0033 19.728 65.6728C24.1853 60.7163 20.2232 57.0815 20.2232 57.0815C13.7848 53.7772 8.99729 38.7424 16.6738 29.4902L17.3342 29.9033C12.6292 41.3033 17.1691 48.0772 25.0933 53.1163C26.8267 57.7424 24.5155 65.2598 18.82 66.8294Z" fill="#370379"/>
<path d="M94.6775 55.595C88.3216 64.8471 62.1553 69.8863 42.9227 65.5906C34.4207 63.6906 27.3219 59.9732 23.8551 54.0254C24.3504 54.521 25.0107 54.9341 25.6711 55.2645C30.0459 56.9993 35.081 58.2384 40.3638 59.1471C51.0119 60.8819 62.9808 61.0471 74.6194 59.6428C76.2703 59.4776 77.9211 59.2297 79.572 58.9819C84.8548 58.0732 89.8899 56.9993 94.6775 55.595Z" fill="#FFD308"/>
<path d="M103.262 48.3244L98.2268 54.52C97.0712 54.9331 95.833 55.2635 94.6774 55.594C89.8899 56.9983 84.8548 58.0722 79.7371 58.8983C78.0862 59.1461 76.4353 59.394 74.7844 59.5592C63.1458 60.9635 51.0944 60.7983 40.5289 59.0635C35.1635 58.1548 30.2109 56.9157 25.8361 55.1809C25.0932 54.9331 24.5154 54.52 24.0201 53.9418C22.8645 52.7853 22.2867 51.2157 22.4518 49.5635C26.0012 16.52 62.4029 5.61569 85.2675 19.3287C94.5124 24.9461 101.529 34.5287 103.262 48.3244Z" fill="#FFD308"/>
<path opacity="0.7" d="M96.576 29.9846C83.5341 13.5454 58.5234 11.3976 41.4369 22.4672C40.8591 26.515 37.5573 28.2498 34.5032 28.1672C28.8902 34.0324 24.9281 41.7976 23.8551 51.628C23.7725 52.5367 23.8551 53.4454 24.2678 54.2715C24.1853 54.1889 24.0202 54.1063 23.9376 53.9411C22.782 52.7846 22.2042 51.215 22.3693 49.5628C26.7441 10.1585 77.5909 2.31065 96.576 29.9846Z" fill="white"/>
<path d="M98.2268 54.4373C75.3623 61.9547 45.0688 62.6982 25.671 55.1808C23.4424 54.2721 22.0391 52.0417 22.2868 49.5634C27.5695 3.05473 97.3189 0.411251 103.262 48.2417" stroke="#370379" stroke-width="3" stroke-miterlimit="10" stroke-linecap="round" stroke-linejoin="round"/>
<path d="M23.8551 54.0254C35.1636 73.5211 85.5977 68.9776 94.6775 55.595" stroke="#370379" stroke-width="3" stroke-miterlimit="10" stroke-linecap="round" stroke-linejoin="round"/>
<path d="M74.0416 14.042C65.4571 18.668 58.6885 34.942 62.403 60.468C56.5424 60.7985 51.2596 60.6333 46.6372 59.8898C45.6466 39.0724 48.7007 22.055 59.8441 12.6376C64.0538 9.58109 72.0606 11.2333 74.0416 14.042Z" fill="#FFD308"/>
<path opacity="0.7" d="M74.0416 14.042C73.959 14.1246 73.8765 14.1246 73.7114 14.2072C70.5748 12.3898 64.6316 11.7289 61.1648 14.2072C50.3516 23.4593 47.1324 39.8985 47.9578 60.055C47.5451 59.9724 47.1324 59.9724 46.7197 59.8898C45.7291 39.0724 48.7833 22.055 59.9266 12.6376C64.0538 9.58109 72.0605 11.2333 74.0416 14.042Z" fill="white"/>
<path d="M74.0416 14.042C65.4571 18.668 58.6885 34.942 62.403 60.468C56.5424 60.7985 51.2596 60.6333 46.6372 59.8898C45.6466 39.0724 48.7007 22.055 59.8441 12.6376C64.0538 9.58109 72.0606 11.2333 74.0416 14.042Z" stroke="#370379" stroke-width="3" stroke-miterlimit="10" stroke-linecap="round" stroke-linejoin="round"/>
<path opacity="0.3" d="M103.262 48.3253L98.2268 54.521C97.0712 54.934 95.833 55.2645 94.6774 55.5949C88.3215 64.8471 62.1552 69.8862 42.9226 65.5905C43.3353 65.5905 43.6655 65.5905 44.0782 65.6731C72.143 67.6558 78.7465 60.3036 79.737 58.8992C79.8196 58.734 79.9021 58.6514 79.9021 58.6514L74.7844 59.5601L68.7587 60.634C49.1959 62.4514 40.7765 59.2297 40.4463 59.0645C45.6465 58.734 50.6817 58.321 55.3867 57.8253C57.5328 57.5775 59.0186 55.6775 58.771 53.5297C56.7074 31.3079 63.1458 17.0992 71.0699 12.8036C70.7398 12.3079 70.2445 11.8949 69.5842 11.5645C71.5652 12.0601 73.2986 12.9688 74.0415 14.0427C66.2824 18.1731 60.0917 31.8036 61.5774 52.9514C61.7425 55.0992 63.7236 56.6688 65.8697 56.2558C89.3121 51.7949 101.116 42.0471 85.2674 19.4123C94.5123 24.9471 101.529 34.5297 103.262 48.3253Z" fill="#370379"/>
<path d="M60.3394 140.928H21.709L21.2963 139.441L18.6549 128.95L17.2516 123.25L16.096 118.872L12.7117 105.159L10.8132 97.8066H49.4436L60.3394 140.928Z" fill="#4C98F2"/>
<path d="M109.04 66.1687C125.136 55.2643 112.672 29.573 101.529 27.5078C109.205 40.1469 104.913 47.7469 96.3286 53.6122C94.265 59.4774 99.3002 69.8035 109.04 66.1687Z" fill="#EFD03A"/>
<path opacity="0.3" d="M109.04 66.1687C104.5 67.8209 101.033 66.5818 98.8046 64.1035C100.538 64.6818 102.602 64.6818 104.913 64.0209C117.872 56.1731 113.91 38.4122 106.316 29.7383C115.643 36.5948 122.825 56.7513 109.04 66.1687Z" fill="#370379"/>
<path d="M98.2268 54.4382C96.8236 58.2382 98.557 64.0209 102.602 66.4991C97.2363 64.8469 94.76 57.9904 96.3283 53.6122C104.913 47.7469 109.205 40.1469 101.529 27.5078C102.602 27.673 103.675 28.1687 104.748 28.7469C104.252 28.5817 103.84 28.4991 103.344 28.3339C111.104 40.973 106.811 48.573 98.2268 54.4382Z" fill="white"/>
<path d="M109.04 66.1687C125.136 55.2643 112.672 29.573 101.529 27.5078C109.205 40.1469 104.913 47.7469 96.3286 53.6122C94.265 59.4774 99.3002 69.8035 109.04 66.1687Z" stroke="#370379" stroke-width="3" stroke-miterlimit="10" stroke-linecap="round" stroke-linejoin="round"/>
<path d="M60.3394 140.928H21.709L10.8132 97.8066H49.4436L60.3394 140.928Z" stroke="#370379" stroke-width="3" stroke-miterlimit="10" stroke-linecap="round" stroke-linejoin="round"/>
<path d="M19.0675 121.93C18.6548 122.343 17.9944 122.838 17.2516 123.251C13.8673 125.234 7.75905 126.721 4.04459 123.251C3.8795 123.086 3.79696 123.003 3.63187 122.838C2.72389 121.847 2.14609 120.69 1.81591 119.369C-1.32074 107.886 8.33685 96.2383 8.33685 96.2383L7.01616 106.977C9.07975 105.986 10.8957 105.408 12.6291 105.077C14.9403 104.664 17.0039 104.83 18.6548 105.49C20.1406 106.069 21.3787 106.977 22.2042 108.217C24.4328 111.603 23.7725 116.89 19.0675 121.93Z" fill="#43BAA7"/>
<path opacity="0.7" d="M7.84159 100.947C5.2002 105.243 1.48574 113.008 3.63187 120.69C3.96205 121.93 4.53985 123.169 5.44783 124.16C5.53037 124.243 5.61292 124.325 5.69546 124.408C5.11766 124.077 4.53985 123.747 4.04459 123.251C3.8795 123.086 3.79696 123.003 3.63187 122.838C2.72389 121.847 2.14609 120.69 1.81591 119.369C-1.32074 107.886 8.33685 96.2383 8.33685 96.2383L7.84159 100.947Z" fill="white"/>
<path d="M6.43835 99.1282C6.85107 98.4673 7.18125 97.9716 7.51142 97.5586C7.18125 97.889 6.85107 98.4673 6.43835 99.1282Z" fill="#43BAA7"/>
<path d="M9.32742 97.146C7.42892 99.5416 5.86059 102.268 4.62244 105.159C3.38429 107.968 2.55885 111.024 2.47631 114.081V115.237L2.55885 116.394C2.55885 117.137 2.72394 117.881 2.88902 118.624C3.13666 120.111 3.71446 121.35 4.62244 122.342C5.61296 123.25 6.76857 123.911 8.17181 124.159C9.57505 124.407 11.0608 124.324 12.4641 123.994C13.8673 123.663 15.3531 123.085 16.5913 122.342C16.9214 122.176 17.1691 121.929 17.4992 121.763C17.6643 121.681 17.7469 121.516 17.912 121.433C17.9945 121.35 18.1596 121.185 18.2421 121.102C18.7374 120.524 19.2327 119.946 19.7279 119.368C20.6359 118.129 21.2962 116.807 21.7915 115.485C22.2868 114.081 22.3693 112.676 22.0391 111.355C21.709 110.033 20.9661 108.876 19.9755 108.133C18.985 107.307 17.6643 106.894 16.2611 106.646C14.8578 106.481 13.3721 106.563 11.8863 106.729C10.4005 106.894 8.83216 107.142 7.09875 107.307C9.49251 104.829 12.9593 103.672 16.5913 103.92C18.4072 104.085 20.2232 104.746 21.709 105.985C22.4518 106.646 23.1122 107.307 23.5249 108.216C24.0202 109.042 24.3504 109.95 24.5154 110.859C24.8456 112.676 24.6805 114.576 24.1027 116.229C23.6075 117.963 22.6995 119.45 21.709 120.855C21.2137 121.516 20.6359 122.176 20.0581 122.837C19.3977 123.498 18.6548 124.076 17.912 124.572C16.4262 125.481 14.7753 126.059 13.0419 126.472C11.3085 126.885 9.57505 126.968 7.75909 126.72C5.94314 126.389 4.20972 125.563 2.80648 124.242C1.48578 122.837 0.742892 121.02 0.412718 119.368C0.247631 118.542 0 117.716 0 116.807L0 115.237V113.916C0.0825436 110.529 0.990523 107.142 2.31122 104.085C2.97157 102.516 3.71446 101.029 4.5399 99.6242C5.36533 98.2199 6.27331 96.8155 7.34638 95.4938C7.75909 94.9981 8.58453 94.8329 9.07979 95.3286C9.74014 95.7416 9.82268 96.5677 9.32742 97.146Z" fill="#370379"/>
<path d="M38.1351 99.4597H20.3883C18.3247 99.1293 17.912 95.8249 19.6454 95.1641H37.3922C36.6493 96.7336 36.9795 98.551 38.1351 99.4597Z" fill="#ABB1B7"/>
<path d="M27.6521 95.1642C29.7491 95.1642 31.4491 93.7218 31.4491 91.9424C31.4491 90.1631 29.7491 88.7207 27.6521 88.7207C25.5551 88.7207 23.8551 90.1631 23.8551 91.9424C23.8551 93.7218 25.5551 95.1642 27.6521 95.1642Z" fill="#ABB1B7"/>
<path d="M38.1351 99.4597H20.3883C18.3247 99.1293 17.912 95.8249 19.6454 95.1641H37.3922C36.6493 96.7336 36.9795 98.551 38.1351 99.4597Z" stroke="#370379" stroke-width="3" stroke-miterlimit="10" stroke-linecap="round" stroke-linejoin="round"/>
<path d="M27.6521 95.1642C29.7491 95.1642 31.4491 93.7218 31.4491 91.9424C31.4491 90.1631 29.7491 88.7207 27.6521 88.7207C25.5551 88.7207 23.8551 90.1631 23.8551 91.9424C23.8551 93.7218 25.5551 95.1642 27.6521 95.1642Z" stroke="#370379" stroke-width="3" stroke-miterlimit="10" stroke-linecap="round" stroke-linejoin="round"/>
<path d="M88.9819 110.363C88.9819 110.363 83.5341 119.698 69.6667 120.442" stroke="#370379" stroke-width="3" stroke-miterlimit="10" stroke-linecap="round" stroke-linejoin="round"/>
<path d="M87.7438 107.803C87.7438 107.803 88.3216 111.52 92.2837 111.851" stroke="#370379" stroke-width="3" stroke-miterlimit="10" stroke-linecap="round" stroke-linejoin="round"/>
<path opacity="0.3" d="M56.3772 67.1603C56.3772 67.1603 79.6545 72.4473 93.6869 62.5343C93.6869 62.5343 97.8966 66.4169 102.602 66.5821C107.307 66.7473 102.602 66.3343 102.602 66.3343C98.1442 64.9299 95.833 61.2125 95.4203 55.6777C85.8452 64.4343 71.6478 66.4995 56.3772 67.1603Z" fill="#370379"/>
<path opacity="0.3" d="M117.294 108.133C123.485 125.811 115.891 134.65 106.399 126.968C116.717 129.942 116.139 114.081 107.389 102.598C111.599 88.3068 107.389 74.6764 107.389 74.6764L110.196 73.8503L105.738 72.9416L110.691 69.472L104.665 71.2894L103.179 67.6546L106.976 66.6633C107.224 67.159 107.389 67.6546 107.637 68.1503L119.936 65.0938L112.012 71.8677C114.57 73.1068 116.882 74.8416 118.863 76.9068L112.424 76.4111C114.818 83.5155 115.644 90.7024 114.983 97.8894L114.736 100.202L114.57 101.772C115.726 104.002 116.634 106.15 117.294 108.133Z" fill="#370379"/>
<path opacity="0.3" d="M96.576 130.767L95.5854 142.993C95.5029 143.737 95.8331 144.563 96.4934 145.059C97.9792 146.215 98.8046 147.702 99.1348 149.602C99.2174 150.18 98.7221 150.759 98.1443 150.759H84.6897C98.0617 149.272 88.4041 143.159 88.4041 143.159L87.7438 134.65L82.2134 132.254C91.4583 131.759 102.602 121.598 102.602 121.598L103.922 124.654C103.922 124.572 101.363 127.793 96.576 130.767Z" fill="#370379"/>
<path opacity="0.3" d="M53.5708 112.842C53.5708 112.842 58.2758 132.503 68.9239 133.659L73.0511 135.559C73.0511 135.559 74.4543 136.964 70.8224 137.211C70.8224 137.211 62.2379 137.79 61.8252 137.79C61.4124 137.79 59.3489 137.294 59.3489 137.294" fill="#370379"/>
<path opacity="0.3" d="M60.3394 140.928H21.709L21.2963 139.359C47.1324 141.259 55.3042 127.463 46.8022 98.7979L47.7928 97.8066H49.3611L60.3394 140.928Z" fill="#370379"/>
<path opacity="0.3" d="M56.8726 140.928L55.5519 148.446C55.3042 149.767 54.1486 150.676 52.8279 150.676H40.1162C48.5357 147.95 47.7102 140.846 47.7102 140.846H56.8726V140.928Z" fill="#370379"/>
<path opacity="0.3" d="M24.2678 121.516C22.7821 125.069 20.7185 127.382 18.6549 128.868L17.2516 123.251C13.8674 125.234 7.75914 126.721 4.04468 123.251C3.87959 123.086 3.79705 123.003 3.63196 122.838C9.07983 123.416 13.3721 121.682 16.096 118.79C19.3152 115.403 20.3883 110.364 18.6549 105.49C18.82 105.573 20.5534 106.482 22.2043 108.216C24.6806 110.86 26.9918 115.238 24.2678 121.516Z" fill="#370379"/>
<path d="M261.746 62.4506H256.71C256.71 62.4506 259.847 84.2593 254.647 104.994L255.06 114.659L252.583 111.768C250.602 117.468 247.796 122.92 243.999 127.546L240.119 147.29C239.706 149.19 238.056 150.594 236.157 150.594H218.08C216.182 150.594 214.448 149.19 214.118 147.29L213.293 142.994C207.514 143.572 201.984 143.572 197.774 143.324C197.609 143.324 197.527 143.324 197.362 143.324C196.123 143.242 194.968 143.159 193.977 143.077C193.565 143.077 193.152 142.994 192.739 142.994C192.657 142.994 192.492 142.994 192.409 142.994C191.914 142.911 191.418 142.911 191.006 142.829L189.437 148.364C189.025 149.685 187.869 150.594 186.548 150.594H165.913C164.509 150.594 163.271 149.603 162.941 148.281C161.538 142.168 160.3 133.494 159.722 129.694C146.102 118.046 146.68 98.3854 146.35 91.281C145.937 82.6071 147.836 67.4071 147.836 67.4071L143.543 68.481L147.918 57.3288L141.975 49.068L148.578 48.7375C148.578 48.7375 166.325 31.8854 166.655 31.4723C166.986 31.0593 242.678 28.168 242.678 28.168L249.777 42.9549L252.501 47.4158L261.746 45.681L256.876 55.0158L258.774 57.9071L261.746 62.4506Z" fill="#797A75"/>
<path opacity="0.7" d="M168.306 150.677H165.913C164.509 150.677 163.271 149.686 162.941 148.364C161.538 142.251 160.3 133.577 159.722 129.777C146.102 118.129 146.68 98.4685 146.35 91.3641C146.02 83.7641 147.423 71.0424 147.753 68.0685L150.229 67.4902C150.229 67.4902 148.331 82.7728 148.743 91.3641C149.074 98.5511 148.413 118.212 162.116 129.777C162.611 133.495 163.932 142.251 165.335 148.364C165.665 149.686 166.903 150.677 168.306 150.677Z" fill="white"/>
<path opacity="0.7" d="M242.761 28.168V28.2506C229.966 28.7462 169.379 31.0593 169.049 31.4723C168.719 31.8854 150.972 48.7375 150.972 48.7375L144.369 49.068L150.312 57.3288L146.185 67.8201L143.543 68.481L147.918 57.3288L141.975 49.068L148.578 48.7375C148.578 48.7375 166.325 31.8854 166.655 31.4723C167.068 31.0593 242.761 28.168 242.761 28.168Z" fill="white"/>
<path opacity="0.7" d="M146.185 67.9033L147.918 67.4902C147.918 67.4902 147.918 67.7381 147.836 68.0685L145.937 68.5641L146.185 67.9033Z" fill="white"/>
<path opacity="0.3" d="M254.647 105.078L255.06 114.743L252.583 111.852C250.602 117.552 247.796 123.004 243.999 127.63L240.119 147.373C239.707 149.273 238.056 150.678 236.157 150.678H227.16C232.113 146.052 231.205 139.278 231.205 139.278C231.205 139.278 217.667 143.904 197.692 143.408C197.527 143.408 197.444 143.408 197.279 143.408C195.876 143.408 194.555 143.243 193.235 143.16C193.069 143.16 192.822 143.16 192.657 143.078C192.574 143.078 192.409 143.078 192.327 143.078C191.831 142.995 191.336 142.995 190.923 142.913L189.355 148.447C188.942 149.769 187.787 150.678 186.466 150.678H179.12C181.101 147.456 181.348 142.747 181.348 140.765C171.113 137.626 165.087 132.834 165.087 132.834C182.421 137.791 203.965 142.086 223.941 134.239C256.628 116.478 252.583 67.656 252.583 67.656L251.345 59.4778L257.288 58.5691C257.288 58.5691 257.949 58.3212 258.857 57.9082L261.828 62.4517H256.711C256.711 62.4517 259.847 84.2604 254.647 105.078Z" fill="#370379"/>
<path d="M261.746 62.4506H256.71C256.71 62.4506 259.847 84.2593 254.647 104.994L255.06 114.659L252.583 111.768C250.602 117.468 247.796 122.92 243.999 127.546L240.119 147.29C239.706 149.19 238.056 150.594 236.157 150.594H218.08C216.182 150.594 214.448 149.19 214.118 147.29L213.293 142.994C203.552 143.985 194.555 143.242 190.923 142.829L189.355 148.364C188.942 149.685 187.787 150.594 186.466 150.594H165.913C164.509 150.594 163.271 149.603 162.941 148.281C161.538 142.168 160.3 133.494 159.722 129.694C146.102 118.046 146.68 98.3854 146.35 91.281C145.937 82.6071 147.836 67.4071 147.836 67.4071L143.543 68.481L147.918 57.3288L141.975 49.068L148.578 48.7375C148.578 48.7375 166.325 31.8854 166.655 31.4723C166.986 31.0593 242.678 28.168 242.678 28.168L249.777 42.9549L252.501 47.4158L261.746 45.681L256.876 55.0158L261.746 62.4506Z" stroke="#370379" stroke-width="3" stroke-miterlimit="10" stroke-linecap="round" stroke-linejoin="round"/>
<path d="M244.989 128.374C242.018 131.43 238.633 133.908 234.919 135.808C238.138 133.247 240.862 130.191 243.008 126.804C243.421 126.226 244.164 126.061 244.742 126.474C245.32 126.887 245.485 127.63 245.072 128.208C245.154 128.291 245.072 128.291 244.989 128.374Z" fill="#370379"/>
<path d="M170.287 135.808C166.325 134.817 162.446 133.165 158.979 130.769C158.401 130.356 158.236 129.613 158.649 129.034C159.061 128.456 159.804 128.291 160.382 128.704C160.465 128.787 160.547 128.787 160.547 128.869C163.271 131.678 166.573 133.991 170.287 135.808Z" fill="#370379"/>
<path d="M215.686 119.781C245.65 117.055 241.275 80.459 217.75 87.9764C215.769 88.6373 213.705 89.0503 211.642 89.1329C207.845 89.2982 204.625 88.7199 195.793 87.8938C184.072 86.7373 182.174 97.8069 182.174 97.8069C177.386 117.385 201.241 121.268 215.686 119.781Z" fill="#F3535F"/>
<path opacity="0.3" d="M215.686 119.782C203.222 121.021 183.742 118.378 181.678 104.995C185.971 115.734 203.387 117.965 214.861 116.808C231.039 115.321 237.23 104.004 235.744 95.082C239.294 104.252 233.763 118.13 215.686 119.782Z" fill="#370379"/>
<path opacity="0.7" d="M210.569 115.486C201.159 115.486 193.152 113.007 190.18 109.29C189.19 108.051 188.034 105.903 189.107 101.442L189.19 101.112V101.029C189.52 99.2944 190.758 96.4857 194.638 96.4857C194.968 96.4857 195.298 96.4857 195.711 96.5683C198.105 96.8161 200.086 97.0639 201.736 97.2291C205.616 97.6422 208.175 97.9726 210.734 97.9726C211.312 97.9726 211.889 97.9726 212.55 97.89C215.026 97.7248 217.502 97.3117 220.309 96.4031C221.795 95.9074 223.115 95.7422 224.353 95.7422C230.049 95.7422 230.709 100.781 230.792 102.351C231.039 108.133 226.5 114.412 215.686 115.403C213.953 115.403 212.302 115.486 210.569 115.486Z" fill="white"/>
<path opacity="0.7" d="M236.735 101.525C236.322 93.0988 229.306 85.9945 217.75 89.7119C215.768 90.3727 213.705 90.7858 211.641 90.8684C207.844 91.0336 204.625 90.4553 195.793 89.6292C184.072 88.4727 182.173 99.5423 182.173 99.5423C181.843 100.947 181.678 102.186 181.595 103.425C181.513 101.69 181.678 99.7901 182.173 97.7249C182.173 97.7249 184.072 86.6553 195.793 87.8119C204.708 88.7206 207.927 89.2988 211.641 89.051C213.705 88.9684 215.768 88.4727 217.75 87.8119C230.214 84.0119 237.23 92.3553 236.735 101.525Z" fill="white"/>
<path d="M209.991 113.503C200.581 113.503 192.574 111.025 189.603 107.308C188.612 106.068 187.456 103.921 188.529 99.4598L188.612 99.1293V99.0467C188.942 97.3119 190.18 94.5032 194.06 94.5032C194.39 94.5032 194.72 94.5032 195.133 94.5859C197.527 94.8337 199.508 95.0815 201.159 95.2467C205.038 95.6598 207.597 95.9902 210.156 95.9902C210.734 95.9902 211.312 95.9902 211.972 95.9076C214.448 95.7424 216.924 95.3293 219.731 94.4206C221.217 93.925 222.537 93.7598 223.776 93.7598C229.471 93.7598 230.131 98.7989 230.214 100.368C230.462 106.151 225.922 112.429 215.109 113.421C213.375 113.421 211.724 113.503 209.991 113.503Z" fill="#370379"/>
<path d="M191.914 109.29C191.914 109.29 207.184 97.3119 226.252 108.96C216.017 114.825 204.543 114.99 191.914 109.29Z" fill="#F73131"/>
<path d="M194.968 94.751L196.784 98.8815L200.086 94.9163L202.314 99.2945L205.533 96.0728L208.092 99.7076L210.734 96.238L213.953 99.7076L215.934 95.1641L219.731 98.551L221.547 94.6684L224.106 97.8902L225.922 94.2554C225.922 94.2554 224.931 92.5206 219.153 94.2554C213.375 95.9902 196.206 94.5032 196.206 94.5032L194.968 94.751Z" fill="white"/>
<path d="M196.041 111.354L198.847 108.298L200.333 112.593L201.902 112.924L204.46 109.372L207.184 113.254L208.505 112.759L210.651 109.372L212.962 112.924L214.778 112.428L216.264 108.876L218.906 112.18L219.979 111.767L221.464 107.885L223.858 110.033C223.858 110.033 221.712 112.924 215.769 113.585C209.826 114.328 203.965 113.585 203.965 113.585L197.444 112.428" fill="white"/>
<path d="M215.686 119.781C245.65 117.055 241.275 80.459 217.75 87.9764C215.769 88.6373 213.705 89.0503 211.642 89.1329C207.845 89.2982 204.625 88.7199 195.793 87.8938C184.072 86.7373 182.174 97.8069 182.174 97.8069C177.386 117.385 201.241 121.268 215.686 119.781Z" stroke="#370379" stroke-width="3" stroke-miterlimit="10" stroke-linecap="round" stroke-linejoin="round"/>
<path d="M209.991 113.503C200.581 113.503 192.574 111.025 189.603 107.308C188.612 106.068 187.456 103.921 188.529 99.4598L188.612 99.1293V99.0467C188.942 97.3119 190.18 94.5032 194.06 94.5032C194.39 94.5032 194.72 94.5032 195.133 94.5859C197.527 94.8337 199.508 95.0815 201.159 95.2467C205.038 95.6598 207.597 95.9902 210.156 95.9902C210.734 95.9902 211.312 95.9902 211.972 95.9076C214.448 95.7424 216.924 95.3293 219.731 94.4206C221.217 93.925 222.537 93.7598 223.776 93.7598C229.471 93.7598 230.131 98.7989 230.214 100.368C230.462 106.151 225.922 112.429 215.109 113.421C213.375 113.421 211.724 113.503 209.991 113.503Z" stroke="#370379" stroke-width="3" stroke-miterlimit="10" stroke-linecap="round" stroke-linejoin="round"/>
<path d="M126.539 94.1722C126.539 94.1722 134.133 98.8809 142.47 99.3766C150.807 99.8722 164.84 97.3114 174.415 92.6027C183.99 87.8114 184.65 98.3853 184.65 103.424C184.65 108.546 184.237 114.577 177.799 114.907C171.36 115.237 157.988 112.264 150.394 111.437C142.8 110.529 131.822 115.568 127.695 115.898C127.695 115.898 121.834 110.281 123.403 103.011L124.723 103.342C124.723 103.259 123.65 96.8983 126.539 94.1722Z" fill="#FF960B"/>
<path d="M124.723 103.26C124.723 103.26 133.638 107.638 140.902 108.382C148.166 109.125 167.233 105.077 173.919 101.855C173.919 101.855 172.929 117.634 180.688 114.164" stroke="#370379" stroke-width="3" stroke-miterlimit="10" stroke-linecap="round" stroke-linejoin="round"/>
<path d="M126.539 94.1722C126.539 94.1722 134.133 98.8809 142.47 99.3766C150.807 99.8722 164.839 97.3114 174.415 92.6027C183.99 87.8114 184.65 98.3853 184.65 103.424C184.65 108.546 184.237 114.577 177.799 114.907C171.36 115.237 157.988 112.264 150.394 111.437C142.8 110.529 131.822 115.568 127.695 115.898C127.695 115.898 121.834 110.281 123.403 103.011L124.723 103.342C124.723 103.259 123.65 96.8983 126.539 94.1722Z" stroke="#370379" stroke-width="3" stroke-miterlimit="10" stroke-linecap="round" stroke-linejoin="round"/>
<path d="M242.76 67.572C242.76 74.1807 237.395 79.5503 230.791 79.5503C224.188 79.5503 218.822 74.1807 218.822 67.572C218.822 66.9938 218.822 66.4981 218.905 66.0024C219.648 60.1372 224.683 55.5938 230.791 55.5938C235.166 55.5938 238.963 57.9068 241.027 61.3764C242.1 63.1111 242.76 65.259 242.76 67.572Z" fill="white"/>
<path opacity="0.3" d="M242.761 67.573C242.761 74.1817 237.395 79.5512 230.792 79.5512C227.077 79.5512 223.776 77.8991 221.547 75.2556C223.363 76.4121 225.592 77.073 227.903 77.073C234.506 77.073 239.872 71.7034 239.872 65.0947C239.872 62.7817 239.211 60.6338 238.138 58.8165C237.808 58.3208 237.478 57.8252 237.148 57.4121C238.716 58.4034 240.037 59.7252 241.027 61.3773C242.1 63.1121 242.761 65.2599 242.761 67.573Z" fill="#370379"/>
<path d="M240.944 61.2943L218.822 65.9204C219.565 60.0552 224.6 55.5117 230.709 55.5117C235.083 55.5943 238.88 57.8248 240.944 61.2943Z" fill="#797A75"/>
<path opacity="0.7" d="M238.221 58.1546C236.405 57.0807 234.341 56.5024 232.195 56.5024C226.582 56.5024 221.795 60.3851 220.556 65.672L218.906 66.0024C219.648 60.1372 224.684 55.5938 230.792 55.5938C233.516 55.5937 236.157 56.5024 238.221 58.1546Z" fill="white"/>
<path d="M230.709 79.5503C237.319 79.5503 242.678 74.1874 242.678 67.572C242.678 60.9566 237.319 55.5938 230.709 55.5938C224.099 55.5938 218.74 60.9566 218.74 67.572C218.74 74.1874 224.099 79.5503 230.709 79.5503Z" stroke="#370379" stroke-width="2.6097" stroke-miterlimit="10" stroke-linecap="round" stroke-linejoin="round"/>
<path d="M241.027 61.2949L218.823 66.0036" stroke="#370379" stroke-width="2.6097" stroke-miterlimit="10" stroke-linecap="round" stroke-linejoin="round"/>
<path d="M232.773 67.903C233.433 70.3812 232.278 73.1073 229.801 74.2639C227.077 75.503 223.858 74.3465 222.62 71.6204C221.382 68.8943 222.537 65.6725 225.261 64.4334C227.16 63.5247 229.389 63.8552 230.874 65.0943C230.792 65.0943 230.709 65.1769 230.627 65.1769C229.719 65.5899 229.389 66.6638 229.801 67.4899C230.214 68.3986 231.287 68.7291 232.195 68.316C232.36 68.2334 232.608 68.0682 232.773 67.903Z" fill="#370379"/>
<path d="M173.589 71.9511C174.58 78.4772 180.688 83.0207 187.291 82.0294C193.812 81.0381 198.352 74.925 197.362 68.3163C197.279 67.8207 197.197 67.2424 197.031 66.7467C195.381 61.0467 189.685 57.3294 183.659 58.238C179.367 58.8989 175.983 61.7076 174.415 65.5076C173.589 67.4902 173.259 69.7207 173.589 71.9511Z" fill="white"/>
<path opacity="0.3" d="M173.589 71.9518C174.58 78.4779 180.688 83.0214 187.291 82.0301C190.923 81.4518 193.977 79.304 195.793 76.3301C194.142 77.7344 192.079 78.7257 189.768 79.0561C183.247 80.0474 177.056 75.5866 176.065 68.9779C175.735 66.7475 176.065 64.517 176.891 62.5344C177.138 61.9561 177.386 61.4605 177.716 60.9648C176.313 62.204 175.157 63.6909 174.415 65.4257C173.589 67.4909 173.259 69.7214 173.589 71.9518Z" fill="#370379"/>
<path d="M174.415 65.5076L197.031 66.7467C195.381 61.0467 189.685 57.3294 183.659 58.238C179.367 58.8989 175.983 61.7902 174.415 65.5076Z" fill="#797A75"/>
<path opacity="0.7" d="M176.726 61.9554C178.294 60.6337 180.275 59.725 182.504 59.3946C188.117 58.5685 193.317 61.7076 195.381 66.6641L197.031 66.7467C195.381 61.0467 189.685 57.3294 183.659 58.238C180.853 58.7337 178.459 60.0554 176.726 61.9554Z" fill="white"/>
<path d="M185.475 82.1128C192.086 82.1128 197.444 76.7499 197.444 70.1345C197.444 63.5191 192.086 58.1562 185.475 58.1562C178.865 58.1562 173.507 63.5191 173.507 70.1345C173.507 76.7499 178.865 82.1128 185.475 82.1128Z" stroke="#370379" stroke-width="2.6097" stroke-miterlimit="10" stroke-linecap="round" stroke-linejoin="round"/>
<path d="M174.415 65.5078L197.031 66.8296" stroke="#370379" stroke-width="2.6097" stroke-miterlimit="10" stroke-linecap="round" stroke-linejoin="round"/>
<path d="M180.11 70.7956C179.78 73.3565 181.431 75.8347 183.99 76.6608C186.879 77.4869 189.85 75.8347 190.758 73.0261C191.584 70.1348 189.933 67.1608 187.126 66.2521C185.063 65.6739 182.999 66.3348 181.678 67.7391C181.761 67.7391 181.843 67.7391 181.926 67.8217C182.834 68.0695 183.412 69.0608 183.164 70.0521C182.917 70.9608 181.926 71.5391 180.935 71.2913C180.523 71.0434 180.275 70.9608 180.11 70.7956Z" fill="#370379"/>
<path d="M248.456 43.2864C245.072 49.6473 226.747 53.0343 206.029 52.9517C192.822 52.9517 178.624 51.5473 166.738 48.656C166.738 48.656 199.343 42.2125 228.15 42.0473C235.332 41.9647 242.265 42.2951 248.456 43.2864Z" fill="#FFD308"/>
<path d="M249.859 43.5327C249.447 43.4501 248.951 43.3674 248.456 43.2848C217.75 38.4935 166.738 48.6544 166.738 48.6544C162.281 49.2327 157.493 49.2327 153.696 49.1501C149.321 48.9848 146.102 48.6544 146.102 48.6544C147.588 18.7501 172.599 3.71527 196.289 2.72397C207.432 2.22832 218.988 4.70658 228.563 10.324C239.707 16.7674 248.126 27.6718 249.859 43.5327Z" fill="#FFD308"/>
<path opacity="0.3" d="M249.859 43.5329C249.447 43.4503 248.951 43.3677 248.456 43.2851C217.75 38.4938 166.738 48.6547 166.738 48.6547C162.281 49.2329 157.493 49.2329 153.696 49.1503C170.287 48.4068 182.999 39.6503 219.318 37.4199C253.904 35.272 233.103 14.4547 228.646 10.3242C239.706 16.7677 248.126 27.672 249.859 43.5329Z" fill="#370379"/>
<path opacity="0.7" d="M238.056 17.6764C227.49 8.01117 212.385 3.79813 198.105 4.37639C190.18 4.70682 182.091 6.60682 174.827 10.159C174.249 14.6199 170.7 16.0242 165.665 15.7764C156.09 23.1286 149.156 34.1155 148.001 48.8199C146.762 48.7373 146.102 48.6547 146.102 48.6547C147.588 18.7503 172.599 3.71552 196.289 2.72422C211.477 1.98074 227.49 6.68943 238.056 17.6764Z" fill="white"/>
<path d="M146.102 48.5729C146.102 48.5729 157.08 49.812 166.738 48.6555C166.738 48.6555 219.318 38.2468 249.859 43.5338C246.64 14.1251 220.391 1.65115 196.371 2.64245C172.516 3.63376 147.505 18.6685 146.102 48.5729Z" stroke="#370379" stroke-width="3" stroke-miterlimit="10" stroke-linecap="round" stroke-linejoin="round"/>
<path d="M166.738 48.6547C197.114 56.0895 242.926 53.6939 248.456 43.2852" stroke="#370379" stroke-width="3" stroke-miterlimit="10" stroke-linecap="round" stroke-linejoin="round"/>
<path d="M219.236 42.2119C215.191 42.3772 211.312 42.625 207.597 42.9554C207.68 40.9728 207.597 38.9076 207.432 36.8424C206.359 20.9815 199.838 2.72498 186.796 3.71628C191.006 0.246718 199.921 0.824979 202.397 2.47715C202.397 2.47715 203.965 2.9728 206.194 4.62498C211.229 8.5902 219.648 18.5032 219.236 42.2119Z" fill="#FFD308"/>
<path d="M219.236 42.212C219.813 8.25982 202.397 2.55982 202.397 2.55982C199.92 0.90765 191.088 0.246781 186.796 3.71635C201.571 2.55982 207.927 26.1033 207.514 42.9555C211.312 42.7077 215.191 42.4598 219.236 42.212Z" stroke="#370379" stroke-width="3" stroke-miterlimit="10" stroke-linecap="round" stroke-linejoin="round"/>
<path opacity="0.3" d="M219.236 42.2114C215.191 42.3766 211.312 42.6244 207.597 42.9549C207.68 40.9722 207.597 38.907 207.432 36.8418C214.448 39.5679 216.099 32.6288 216.099 32.6288C216.264 12.5549 206.111 4.70703 206.111 4.70703C211.229 8.58964 219.648 18.5027 219.236 42.2114Z" fill="#370379"/>
<path opacity="0.3" d="M248.456 43.2866C245.072 49.6474 226.747 53.0344 206.029 52.9518C243.669 50.5561 228.563 42.2127 228.068 41.9648C235.332 41.9648 242.265 42.2953 248.456 43.2866Z" fill="#370379"/>
<path d="M202.067 55.5943L161.703 56.9987L162.446 70.8769C162.693 75.7508 165.005 80.3769 168.967 83.2682C174.91 87.6465 183.412 89.0508 190.593 86.9856C199.425 84.5074 205.286 76.0813 204.956 66.8291L204.708 57.99C204.625 56.5856 203.47 55.5117 202.067 55.5943ZM189.107 81.3682C187.456 81.8639 185.64 82.0291 183.824 82.0291C179.615 82.0291 175.488 80.7073 172.351 78.4769C169.957 76.6595 168.389 73.6856 168.141 70.3813L167.728 62.4508L199.013 61.3769L199.178 66.9943C199.425 73.6856 195.215 79.716 189.107 81.3682Z" fill="#F73131"/>
<path opacity="0.7" d="M199.178 63.2769H199.095L199.178 66.9943C199.425 73.603 195.133 79.6335 189.025 81.3682C187.374 81.8639 185.558 82.0291 183.742 82.0291C179.532 82.0291 175.405 80.7074 172.268 78.4769C170.122 76.9074 168.719 74.4291 168.224 71.6204V72.2813C168.389 75.5856 169.957 78.5595 172.433 80.3769C175.488 82.6074 179.697 83.9291 183.907 83.9291C185.723 83.9291 187.456 83.6813 189.107 83.2682C195.216 81.5335 199.425 75.503 199.26 68.8943L199.178 63.2769ZM204.708 57.99C204.708 56.5856 203.47 55.5117 202.067 55.5117L161.703 56.9161L162.446 70.7943C162.446 71.29 162.528 71.703 162.611 72.1987L161.868 58.8161L202.232 57.4117C203.387 57.4117 204.378 58.0726 204.708 59.1465V57.99Z" fill="white"/>
<path d="M161.703 56.916L152.458 60.6334C150.972 61.2117 150.064 62.7812 150.394 64.3508C150.725 66.1682 152.623 67.3247 154.356 66.7464L162.116 64.2682L161.703 56.916Z" fill="#F73131"/>
<path opacity="0.7" d="M161.785 58.9807L152.706 62.6154C151.55 63.1111 150.725 64.185 150.642 65.3415C150.477 65.0937 150.394 64.7633 150.312 64.4328C150.064 62.8633 150.89 61.2937 152.375 60.7154L161.62 56.998L161.785 58.9807Z" fill="white"/>
<path d="M168.967 83.2682C174.91 87.6465 183.329 89.0509 190.593 86.9856C199.425 84.5074 205.286 76.0813 204.956 66.8291L204.708 57.99C204.625 56.5856 203.47 55.5117 202.067 55.5117L161.703 56.9161L162.446 70.7943C162.693 75.6682 165.005 80.3769 168.967 83.2682Z" stroke="#370379" stroke-width="3" stroke-miterlimit="10" stroke-linecap="round" stroke-linejoin="round"/>
<path d="M252.501 53.4453L214.861 54.8497C213.623 54.9323 212.715 55.9236 212.715 57.1627L213.293 68.8105C213.54 73.6844 215.686 78.3105 219.318 81.2018C224.849 85.5801 232.69 86.9845 239.459 84.9192C247.631 82.441 253.079 74.0149 252.748 64.7627L252.501 53.4453ZM238.138 79.3844C236.57 79.8801 235.002 80.0453 233.268 80.0453C229.389 80.0453 225.509 78.7236 222.62 76.4931C220.391 74.7584 218.906 71.7018 218.74 68.3975L218.328 60.4671L247.301 59.3931L247.466 65.0105C247.713 71.6192 243.751 77.6497 238.138 79.3844Z" fill="#F73131"/>
<path opacity="0.7" d="M248.539 61.2105L247.383 61.2931L247.466 65.0105C247.713 71.6192 243.751 77.6497 238.056 79.3844C236.487 79.8801 234.919 80.0453 233.186 80.0453C229.306 80.0453 225.426 78.7236 222.537 76.4931C222.042 76.0801 221.547 75.5844 221.134 75.0888C221.795 76.4105 222.703 77.4845 223.776 78.3105C226.665 80.541 230.544 81.8627 234.424 81.8627C236.075 81.8627 237.725 81.6149 239.294 81.2018C244.907 79.4671 248.869 73.4366 248.704 66.8279L248.539 61.2105ZM213.953 58.9801C213.87 57.741 214.861 56.7497 216.099 56.6671L252.583 55.2627L252.501 53.4453L214.861 54.8497C213.623 54.8497 212.715 55.9236 212.715 57.1627L213.293 68.8105C213.458 72.3627 214.613 75.7497 216.677 78.3931C215.356 76.0801 214.613 73.354 214.531 70.6279L213.953 58.9801Z" fill="white"/>
<path d="M183.825 82.1112C179.615 82.1112 175.488 80.7894 172.351 78.559C169.957 76.7416 168.389 73.7677 168.141 70.4633L167.729 62.5329L199.013 61.459L199.178 67.0764C199.425 73.6851 195.133 79.7155 189.025 81.4503C187.456 81.8633 185.64 82.1112 183.825 82.1112Z" stroke="#370379" stroke-width="2.5" stroke-miterlimit="10" stroke-linecap="round" stroke-linejoin="round"/>
<path d="M219.483 81.2024C225.014 85.5807 232.855 86.985 239.624 84.9198C247.796 82.4415 253.244 74.0155 252.913 64.7633L252.583 53.3633L214.943 54.7676C213.705 54.8502 212.797 55.8415 212.797 57.0807L213.375 68.7285C213.623 73.685 215.769 78.3111 219.483 81.2024Z" stroke="#370379" stroke-width="3" stroke-miterlimit="10" stroke-linecap="round" stroke-linejoin="round"/>
<path d="M233.268 80.0467C229.389 80.0467 225.509 78.725 222.62 76.4945C220.391 74.6771 218.906 71.7032 218.74 68.3989L218.328 60.4684L247.301 59.3945L247.466 65.0119C247.713 71.6206 243.751 77.651 238.056 79.3858C236.57 79.7989 234.919 80.0467 233.268 80.0467Z" stroke="#370379" stroke-width="2.5" stroke-miterlimit="10" stroke-linecap="round" stroke-linejoin="round"/>
<path d="M161.703 56.916L152.458 60.6334C150.972 61.2117 150.064 62.7812 150.394 64.3508C150.725 66.1682 152.623 67.3247 154.356 66.7464L162.116 64.2682L161.703 56.916Z" stroke="#370379" stroke-width="3" stroke-miterlimit="10" stroke-linecap="round" stroke-linejoin="round"/>
<path d="M213.293 66.4157C211.312 64.1026 207.927 63.7722 205.038 66.4157L204.956 63.5244L204.873 60.22C206.441 57.8244 209.248 57.2461 211.312 58.2374C212.054 58.5679 212.632 59.1461 213.045 59.8896L213.293 66.4157Z" fill="#F73131"/>
<path d="M212.962 59.8073C211.477 56.9986 206.937 56.8334 204.791 60.1377L205.038 66.416C207.927 63.7725 211.312 64.1029 213.293 66.416L212.962 59.8073Z" stroke="#370379" stroke-width="3" stroke-miterlimit="10" stroke-linecap="round" stroke-linejoin="round"/>
<path d="M252.748 59.3931L255.555 59.1453C256.133 59.0627 256.793 58.8975 257.206 58.5671C259.269 56.9975 258.444 53.4453 255.802 53.4453H252.501L252.748 59.3931Z" fill="#F73131"/>
<path d="M252.748 59.3931L255.555 59.1453C256.133 59.0627 256.793 58.8975 257.206 58.5671C259.269 56.9975 258.444 53.4453 255.802 53.4453H252.501L252.748 59.3931Z" stroke="#370379" stroke-width="3" stroke-miterlimit="10" stroke-linecap="round" stroke-linejoin="round"/>
<path opacity="0.3" d="M213.293 66.4146C211.312 64.1015 207.927 63.7711 205.038 66.4146L204.956 63.5233C205.203 63.4407 205.451 63.4407 205.781 63.3581C211.724 62.2015 211.146 58.2363 211.229 58.2363C211.972 58.5668 212.55 59.145 212.962 59.8885L213.293 66.4146Z" fill="#370379"/>
<path d="M146.68 81.6172C146.68 81.6172 136.279 88.4737 132.565 100.617H135.041C135.041 100.617 132.73 106.482 134.876 115.9L136.197 114.33C136.197 114.33 140.159 123.748 148.743 123.748C157.328 123.748 157.823 115.156 157.163 112.1C156.337 108.052 150.559 101.691 154.191 95.6607L150.477 82.1954L146.68 81.6172Z" fill="#797A75"/>
<path opacity="0.7" d="M137.105 101.441C137.105 101.441 135.041 106.646 136.692 115.154C136.444 114.659 136.279 114.328 136.279 114.328L134.959 115.898C133.308 108.546 134.298 103.341 134.876 101.441H137.105Z" fill="white"/>
<path opacity="0.7" d="M146.597 81.6992L146.515 84.1775C143.378 86.821 137.6 92.521 134.876 100.699H132.565C136.114 88.9688 145.854 82.1949 146.597 81.6992Z" fill="white"/>
<path d="M147.258 83.2691C145.772 84.2604 144.204 85.4995 142.883 86.8212C141.48 88.143 140.241 89.5473 139.086 91.0343C137.93 92.5212 136.857 94.1734 136.032 95.8256C135.124 97.4777 134.381 99.2951 133.886 101.03L132.73 99.4604H135.206C135.867 99.4604 136.444 100.039 136.444 100.699C136.444 100.865 136.444 100.947 136.362 101.113C136.197 101.608 136.032 102.186 135.867 102.765C135.702 103.343 135.619 103.921 135.537 104.582C135.371 105.821 135.289 107.06 135.289 108.299C135.289 109.539 135.371 110.778 135.537 112.017C135.702 113.256 135.949 114.495 136.197 115.652L134.051 115.156L135.371 113.586C135.784 113.091 136.61 113.008 137.105 113.421C137.27 113.504 137.352 113.669 137.435 113.834C139.086 117.304 141.892 120.608 145.442 121.847C147.175 122.508 149.239 122.591 150.972 122.178C152.788 121.765 154.191 120.691 155.099 119.121C156.007 117.552 156.337 115.569 156.172 113.669C156.172 113.173 156.09 112.76 156.007 112.265C155.925 111.852 155.76 111.439 155.595 110.943C155.264 110.034 154.852 109.126 154.439 108.134C153.614 106.152 152.788 104.086 152.623 101.773C152.54 100.617 152.54 99.4603 152.871 98.3864C153.201 97.3125 153.696 96.3212 154.356 95.4951C153.531 97.4777 153.531 99.543 154.109 101.443C154.687 103.343 155.677 105.16 156.668 106.978C157.163 107.886 157.658 108.878 158.153 109.952C158.401 110.447 158.566 111.026 158.649 111.686C158.731 112.265 158.814 112.926 158.814 113.504C158.814 115.817 158.484 118.13 157.328 120.278C156.75 121.352 155.925 122.343 154.934 123.086C153.944 123.83 152.788 124.326 151.633 124.573C150.477 124.821 149.321 124.904 148.166 124.821C147.01 124.739 145.854 124.491 144.699 124.078C142.47 123.252 140.572 121.93 139.003 120.278C138.26 119.452 137.518 118.543 136.857 117.634C136.197 116.726 135.702 115.734 135.206 114.66L137.27 114.991L135.949 116.56C135.537 117.056 134.711 117.139 134.216 116.726C133.968 116.56 133.886 116.313 133.803 116.065C133.555 114.743 133.308 113.504 133.143 112.099C132.978 110.778 132.895 109.456 132.895 108.134C132.895 106.813 132.978 105.491 133.143 104.086C133.225 103.426 133.308 102.765 133.473 102.104C133.638 101.443 133.803 100.782 134.051 100.039L135.206 101.691H132.73C132.07 101.691 131.492 101.113 131.492 100.452C131.492 100.286 131.492 100.204 131.574 100.121C132.152 98.1386 132.978 96.2386 133.968 94.4212C134.959 92.6038 136.032 90.869 137.27 89.2995C138.508 87.7299 139.911 86.1603 141.397 84.756C142.883 83.3517 144.451 82.1125 146.185 80.956C146.762 80.543 147.505 80.7082 147.918 81.2864C148.331 81.8647 147.836 82.856 147.258 83.2691Z" fill="#370379"/>
<path d="M180.688 91.7762C180.688 91.7762 173.011 89.5457 172.021 102.681" stroke="#370379" stroke-width="3" stroke-miterlimit="10" stroke-linecap="round" stroke-linejoin="round"/>
<path d="M172.599 98.7158L179.78 96.8984C179.78 96.8984 182.999 103.011 179.78 107.968C176.561 112.925 174.084 108.298 174.002 106.316" stroke="#370379" stroke-width="3" stroke-miterlimit="10" stroke-linecap="round" stroke-linejoin="round"/>
<path d="M224.601 141.094C220.969 142.498 217.172 143.572 213.375 144.315C212.715 144.481 212.054 144.068 211.889 143.324C211.724 142.663 212.137 142.002 212.88 141.837C212.962 141.837 213.045 141.837 213.127 141.837C216.924 141.92 220.804 141.672 224.601 141.094Z" fill="#370379"/>
<path d="M190.676 144.15C188.034 143.242 185.475 142.25 183.082 141.094C185.806 141.507 188.447 141.672 191.171 141.755C191.831 141.755 192.409 142.333 192.409 142.994C192.409 143.655 191.831 144.233 191.171 144.233C190.923 144.233 190.758 144.233 190.676 144.15Z" fill="#370379"/>
<path d="M268.762 103.508L267.276 102.765C267.276 102.765 264.387 114.991 255.06 113.752L254.895 109.373L254.729 104.747L254.895 103.921C254.895 103.921 238.964 93.9255 244.412 83.269C245.65 80.956 247.135 79.5516 248.704 78.7255C254.317 75.9994 261.085 81.2038 261.085 81.2038L258.444 81.2864C258.444 81.2864 263.727 85.4994 266.946 90.2081L264.552 89.382C264.552 89.4646 268.927 96.569 268.762 103.508Z" fill="#797A75"/>
<path d="M254.977 113.752C264.387 114.991 267.276 102.765 267.276 102.765L268.762 103.508C268.927 96.5691 264.47 89.4648 264.47 89.4648L266.863 90.2909C263.644 85.4996 258.361 81.3691 258.361 81.3691L261.003 81.2865C261.003 81.2865 249.859 72.6952 244.412 83.3517C238.964 94.0083 254.895 104.004 254.895 104.004L254.729 104.83L254.977 113.752Z" stroke="#370379" stroke-width="3" stroke-miterlimit="10" stroke-linecap="round" stroke-linejoin="round"/>
<path opacity="0.3" d="M268.762 103.508L267.276 102.765C267.276 102.765 264.387 114.991 255.06 113.752L254.895 109.373C255.307 109.291 255.72 109.208 256.05 109.208C259.517 108.712 260.755 104.665 260.755 104.665V106.399C260.755 106.399 266.698 101.939 261.746 91.1168C256.793 80.2951 248.704 80.0473 248.704 80.0473V78.7255C254.317 75.9994 261.085 81.2038 261.085 81.2038L258.444 81.2864C258.444 81.2864 263.727 85.4994 266.946 90.2081L264.552 89.382C264.552 89.4646 268.927 96.569 268.762 103.508Z" fill="#370379"/>
<path opacity="0.3" d="M174.91 107.804C174.992 107.556 175.653 97.1477 180.605 98.9651L181.678 101.856C181.678 101.856 181.431 94.5042 183.494 96.7347C183.494 96.7347 181.348 90.0434 177.221 92.1086C173.094 94.1738 173.507 97.8086 173.507 97.8086L172.351 101.939L174.002 102.352" fill="#370379"/>
<path opacity="0.3" d="M158.979 97.3953C158.979 97.3953 152.788 104.665 159.722 105.491C159.722 105.491 159.309 111.934 165.005 113.752L158.236 112.761C158.236 112.761 158.071 123.83 148.001 123.169C148.001 123.169 153.944 117.717 151.633 110.778C149.239 103.756 148.578 97.8084 152.706 93.0171C152.706 93.0171 156.585 90.9518 155.017 94.1736C153.448 97.3953 152.706 98.6344 154.687 98.4692" fill="#370379"/>
</svg>
