<svg width="379" height="185" viewBox="0 0 379 185" fill="none" xmlns="http://www.w3.org/2000/svg">
<path d="M217 153.3H12.7C6.5 153.3 1.5 148.3 1.5 142.1V12.7C1.5 6.5 6.5 1.5 12.7 1.5H217C223.2 1.5 228.2 6.5 228.2 12.7V142.1C228.2 148.3 223.2 153.3 217 153.3Z" fill="#ABB1B7"/>
<path opacity="0.3" d="M228.3 136.5V142.1C228.3 148.3 223.3 153.3 217.1 153.3H12.7C6.5 153.3 1.5 148.3 1.5 142.1V136.5C1.5 142.7 6.5 147.7 12.7 147.7H217C223.2 147.7 228.3 142.7 228.3 136.5Z" fill="#370379"/>
<path opacity="0.7" d="M228.3 13.7V16.3C228.3 10.1 223.3 5.1 217.1 5.1H12.7C6.5 5.1 1.5 10.1 1.5 16.3V13.7C1.5 7.5 6.5 2.5 12.7 2.5H217C223.2 2.5 228.3 7.5 228.3 13.7Z" fill="white"/>
<path d="M219.3 15.8002V131.6C219.3 134.7 216.8 137.2 213.7 137.2H16C12.9 137.2 10.4 134.7 10.4 131.6V15.8002C10.4 12.7002 12.9 10.2002 16 10.2002H213.7C216.8 10.2002 219.3 12.7002 219.3 15.8002Z" fill="white"/>
<path opacity="0.7" d="M219.3 131.6V134.9C219.3 138 216.8 140.5 213.7 140.5H16C12.9 140.5 10.4 138 10.4 134.9V131.6C10.4 134.7 12.9 137.2 16 137.2H213.7C216.8 137.2 219.3 134.7 219.3 131.6Z" fill="white"/>
<path d="M217 153.3H12.7C6.5 153.3 1.5 148.3 1.5 142.1V12.7C1.5 6.5 6.5 1.5 12.7 1.5H217C223.2 1.5 228.2 6.5 228.2 12.7V142.1C228.2 148.3 223.2 153.3 217 153.3Z" stroke="#370379" stroke-width="3" stroke-miterlimit="10" stroke-linecap="round" stroke-linejoin="round"/>
<path d="M114.9 149C117.22 149 119.1 147.119 119.1 144.8C119.1 142.48 117.22 140.6 114.9 140.6C112.58 140.6 110.7 142.48 110.7 144.8C110.7 147.119 112.58 149 114.9 149Z" fill="#370379"/>
<path d="M150.6 182.6H79.1V179.1C79.1 174.1 83.2 170 88.2 170H141.6C146.6 170 150.7 174.1 150.7 179.1V182.6H150.6Z" fill="#ABB1B7"/>
<path opacity="0.7" d="M150.6 179.1V181.8C150.6 176.8 146.5 172.8 141.5 172.8H88.2C83.2 172.8 79.1 176.8 79.1 181.8V179.1C79.1 174.1 83.2 170 88.2 170H141.6C146.6 170 150.6 174.1 150.6 179.1Z" fill="white"/>
<path d="M122.1 153.3H107.6V170H122.1V153.3Z" fill="#ABB1B7"/>
<path d="M36.1 50.8998C43.7216 50.8998 49.9001 44.7213 49.9001 37.0998C49.9001 29.4783 43.7216 23.2998 36.1 23.2998C28.4785 23.2998 22.3 29.4783 22.3 37.0998C22.3 44.7213 28.4785 50.8998 36.1 50.8998Z" stroke="#EF3043" stroke-width="2" stroke-miterlimit="10"/>
<path d="M45.7001 42.0998L36.1 37.0998L38.7001 47.5998C37.9001 47.7998 37 47.8998 36.1 47.8998C30.1 47.8998 25.3 42.9998 25.3 37.0998C25.3 31.0998 30.1 26.2998 36.1 26.2998C42.1 26.2998 46.9001 31.1998 46.9001 37.0998C47.0001 38.8998 46.5 40.5998 45.7001 42.0998Z" fill="#EF3043"/>
<path d="M36.1 90.0004C43.7216 90.0004 49.9001 83.8219 49.9001 76.2004C49.9001 68.5789 43.7216 62.4004 36.1 62.4004C28.4785 62.4004 22.3 68.5789 22.3 76.2004C22.3 83.8219 28.4785 90.0004 36.1 90.0004Z" stroke="#2294AF" stroke-width="2" stroke-miterlimit="10" stroke-linecap="round" stroke-linejoin="round"/>
<path d="M47 76.2004C47 82.2004 42.2 87.0004 36.2 87.0004C30.2 87.0004 25.4 82.2004 25.4 76.2004H36.2V65.4004C42.1 65.4004 47 70.3004 47 76.2004Z" fill="#2294AF"/>
<path d="M36.1 127.2C43.7216 127.2 49.9001 121.021 49.9001 113.4C49.9001 105.778 43.7216 99.5996 36.1 99.5996C28.4785 99.5996 22.3 105.778 22.3 113.4C22.3 121.021 28.4785 127.2 36.1 127.2Z" stroke="#36B220" stroke-width="2" stroke-miterlimit="10" stroke-linecap="round" stroke-linejoin="round"/>
<path d="M46.8 115.1C46 120.3 41.5 124.2 36.1 124.2C30.1 124.2 25.3 119.4 25.3 113.4C25.3 110.4 26.5 107.7 28.4 105.8L36.1 113.4L46.8 115.1Z" fill="#36B220"/>
<path d="M55.1001 24.7998H89.5001" stroke="#EF3043" stroke-width="2" stroke-miterlimit="10" stroke-linecap="round"/>
<path d="M55.1001 29.7998H76.2001" stroke="#EF3043" stroke-width="2" stroke-miterlimit="10" stroke-linecap="round"/>
<path d="M55.1001 66.5H89.5001" stroke="#2294AF" stroke-width="2" stroke-miterlimit="10" stroke-linecap="round" stroke-linejoin="round"/>
<path d="M55.1001 71.5H65.0001" stroke="#2294AF" stroke-width="2" stroke-miterlimit="10" stroke-linecap="round" stroke-linejoin="round"/>
<path d="M55.1001 103.3H89.5001" stroke="#36B220" stroke-width="2" stroke-miterlimit="10" stroke-linecap="round" stroke-linejoin="round"/>
<path d="M55.1001 108.3H65.0001" stroke="#36B220" stroke-width="2" stroke-miterlimit="10" stroke-linecap="round" stroke-linejoin="round"/>
<path d="M55.1001 84.2002H65.0001" stroke="#2294AF" stroke-width="2" stroke-miterlimit="10" stroke-linecap="round" stroke-linejoin="round"/>
<path d="M69.6001 71.5H74.8001" stroke="#2294AF" stroke-width="2" stroke-miterlimit="10" stroke-linecap="round" stroke-linejoin="round"/>
<path d="M55.1001 118.7H65.0001" stroke="#36B220" stroke-width="2" stroke-miterlimit="10" stroke-linecap="round" stroke-linejoin="round"/>
<path d="M69.6001 118.7H74.8001" stroke="#36B220" stroke-width="2" stroke-miterlimit="10" stroke-linecap="round" stroke-linejoin="round"/>
<path d="M55.1001 47.2002H71.5001" stroke="#EF3043" stroke-width="2" stroke-miterlimit="10" stroke-linecap="round"/>
<path d="M98.3 87.0996H93.8V124.3H98.3V87.0996Z" fill="#8635EF"/>
<path d="M109.3 61.7998H104.8V124.2H109.3V61.7998Z" fill="#8635EF"/>
<path d="M120.3 71.5H115.8V124.2H120.3V71.5Z" fill="#8635EF"/>
<path d="M131.3 49.2998H126.8V124.2H131.3V49.2998Z" fill="#8635EF"/>
<path d="M207.2 124.2H146.9C144.6 124.2 142.8 122.4 142.8 120.1V75.1C142.8 72.8 144.6 71 146.9 71H207.2C209.5 71 211.3 72.8 211.3 75.1V120.2C211.3 122.4 209.5 124.2 207.2 124.2Z" stroke="#2294AF" stroke-width="2" stroke-miterlimit="10" stroke-linecap="round" stroke-linejoin="round"/>
<path d="M207.3 82.1996V117.4C207.3 119 206 120.3 204.4 120.3H149.7C148.1 120.3 146.8 119 146.8 117.4V116.2C146.8 116 146.8 115.8 146.9 115.6C149.2 106.1 169.1 111.2 175.2 100.8C184.4 80.3996 198.4 78.8996 204.7 79.4996C206.2 79.4996 207.3 80.6996 207.3 82.1996Z" fill="#36B220"/>
<path d="M155.3 105.8V79.2998" stroke="#36B220" stroke-width="2" stroke-miterlimit="10" stroke-linecap="round" stroke-linejoin="round"/>
<path d="M170 79.2998V98.6998" stroke="#36B220" stroke-width="2" stroke-miterlimit="10" stroke-linecap="round" stroke-linejoin="round"/>
<path d="M158.7 79.2998H164" stroke="#2294AF" stroke-width="2" stroke-miterlimit="10" stroke-linecap="round" stroke-linejoin="round"/>
<path d="M173.7 79.2998H179" stroke="#2294AF" stroke-width="2" stroke-miterlimit="10" stroke-linecap="round" stroke-linejoin="round"/>
<path d="M142.8 61.7998H184" stroke="#2294AF" stroke-width="2" stroke-miterlimit="10" stroke-linecap="round" stroke-linejoin="round"/>
<path d="M189.8 61.7998H197.9" stroke="#2294AF" stroke-width="2" stroke-miterlimit="10" stroke-linecap="round" stroke-linejoin="round"/>
<path d="M146.1 27.6C148.199 27.6 149.9 25.8987 149.9 23.8C149.9 21.7013 148.199 20 146.1 20C144.001 20 142.3 21.7013 142.3 23.8C142.3 25.8987 144.001 27.6 146.1 27.6Z" stroke="#EF3043" stroke-width="2" stroke-miterlimit="10"/>
<path d="M159.1 27.6C161.199 27.6 162.9 25.8987 162.9 23.8C162.9 21.7013 161.199 20 159.1 20C157.001 20 155.3 21.7013 155.3 23.8C155.3 25.8987 157.001 27.6 159.1 27.6Z" stroke="#EF3043" stroke-width="2" stroke-miterlimit="10"/>
<path d="M171.4 21.7998H198.5" stroke="#EF3043" stroke-width="2" stroke-miterlimit="10"/>
<path d="M196.4 50.5H173.4C172.3 50.5 171.4 49.6 171.4 48.5V27.5C171.4 26.4 172.3 25.5 173.4 25.5H196.4C197.5 25.5 198.4 26.4 198.4 27.5V48.4C198.5 49.6 197.5 50.5 196.4 50.5Z" fill="#8635EF"/>
<path d="M150.6 182.6H79.1V179.1C79.1 174.1 83.2 170 88.2 170H141.6C146.6 170 150.7 174.1 150.7 179.1V182.6H150.6Z" stroke="#370379" stroke-width="3" stroke-miterlimit="10" stroke-linecap="round" stroke-linejoin="round"/>
<path d="M122.1 153.3H107.6V170H122.1V153.3Z" stroke="#370379" stroke-width="3" stroke-miterlimit="10" stroke-linecap="round" stroke-linejoin="round"/>
<path opacity="0.3" d="M121.7 153.8H107.6V160.6H121.7V153.8Z" fill="#370379"/>
<path d="M213.7 137.2H16C12.9 137.2 10.4 134.7 10.4 131.6V15.8002C10.4 12.7002 12.9 10.2002 16 10.2002H213.7C216.8 10.2002 219.3 12.7002 219.3 15.8002V131.6C219.3 134.7 216.8 137.2 213.7 137.2Z" stroke="#370379" stroke-width="3" stroke-miterlimit="10" stroke-linecap="round" stroke-linejoin="round"/>
<path d="M228 83.9L227.6 91.7L226.1 117.9C203.3 108.9 194.3 92.4 194.3 92.4L192.5 94.1C191.2 87.3 194.1 83.6 195.3 82.4C195.6 82.1 195.8 81.9 195.8 81.9L192.9 81.6C196 76.2 209.9 78.7 209.9 78.7V76.5C215.6 79.6 221.7 82.1 228 83.9Z" fill="#797A75"/>
<path opacity="0.7" d="M228 84L226.1 118C226 118 225.9 117.9 225.8 117.9L227.6 86.4C221.3 84.6 215.3 82.1 209.4 78.9V81.1C209.4 81.1 200 79.4 194.9 81.8L192.8 81.6C195.9 76.2 209.8 78.7 209.8 78.7V76.5C215.6 79.7 221.7 82.2 228 84Z" fill="white"/>
<path d="M351.1 84.0002C352.9 96.7002 353.6 108.8 353.3 120.4L349.7 118.1C349.7 118.1 350.9 127.3 348.8 143.7L346.6 141.3C346.6 141.3 344.1 149.7 337.4 156.4V174.9C337.4 179 334.2 182.4 330.1 182.5C328.2 182.6 326.2 182.6 324.2 182.6C321.6 182.6 319.1 182.6 316.5 182.4C312.4 182.2 309.2 178.9 309.2 174.8V168.1C302.7 169.3 296.3 169.9 290 169.9C286.4 169.9 282.9 169.7 279.4 169.4C277.8 169.2 276.3 169.1 274.7 168.8C273.6 168.6 272.5 168.5 271.4 168.3V174.8C271.4 178.9 268.2 182.3 264.1 182.4C260.1 182.6 256.2 182.6 252.3 182.5C251.7 182.5 251.1 182.5 250.5 182.4C246.4 182.2 243.2 178.9 243.2 174.8V157.5C241.4 155.8 239.8 154 238.5 152.2C237.1 150.3 236 148.5 235.2 146.8C233.5 143.5 232.8 141.2 232.8 141.2L230.6 143.6C228.5 127.2 229.7 118 229.7 118L226.1 120.3C225.8 108.7 226.5 96.6002 228.3 83.9002L224.7 82.4002C227.9 80.8002 228.6 71.0002 233.4 64.6002L231 63.1002L233.5 59.8002L230.1 57.5002C233.1 57.2002 235.8 56.3002 238.1 54.1002C243.1 47.8002 249.1 42.6002 257.2 39.7002L254.1 35.8002L276.1 30.7002L274.1 25.0002C274.1 25.0002 278.4 26.3002 280.8 29.2002C280.8 29.2002 290.5 22.3002 298.2 20.7002L292.6 29.5002C292.6 29.5002 298 27.2002 306.5 27.0002L303.2 30.7002L325.2 35.8002L322.1 39.7002C330.2 42.6002 336.3 47.7002 341.2 54.1002C343.4 56.3002 346.2 57.3002 349.2 57.5002L345.8 59.8002L348.3 63.1002L345.9 64.6002C350.8 71.0002 351.4 80.8002 354.7 82.4002L351.1 84.0002Z" fill="#797A75"/>
<path d="M298.2 160.7L290.6 165.8L286.2 162.8L283.1 160.7L288.4 146.7L292.9 146.8L293.5 148.3L298.2 160.7Z" fill="#F73131"/>
<path d="M294.4 141.4L294 141C297.1 144.8 294.4 147.6 289.6 146.9C284.8 146.3 287.1 141.3 287.2 141L287 141.2L280.2 147.9C276.7 143.4 276.4 138.5 276.4 138.5C280 139.8 283.6 140.6 287.3 140.9C289.6 141.1 291.9 141.1 294.1 140.9C297.7 140.6 301.3 139.8 304.9 138.5C304.9 138.5 304.6 143.4 301.1 147.9L294.4 141.4C294.4 141.5 294.4 141.5 294.4 141.4Z" fill="#797A75"/>
<path d="M289.6 147C284.8 146.4 287.1 141.4 287.2 141.1L287 141.3C287.1 141.2 287.2 141.1 287.2 141C289.5 141.2 291.8 141.2 294 141C294.1 141.1 294.2 141.3 294.3 141.4L293.9 141C297.2 144.9 294.4 147.6 289.6 147Z" fill="#F73131"/>
<path d="M304.9 138.6C295.4 142 285.9 142 276.4 138.6C276.4 138.6 276.7 143.5 280.2 148L287.2 141.1C287.2 141.1 284.6 146.4 289.6 147C294.4 147.6 297.2 144.9 294 141.1L301 148C304.6 143.5 304.9 138.6 304.9 138.6Z" stroke="#370379" stroke-width="3" stroke-miterlimit="10" stroke-linecap="round" stroke-linejoin="round"/>
<path d="M292.9 146.8L298.2 160.7L290.6 165.8L283.1 160.7L288.4 146.7" stroke="#370379" stroke-width="3" stroke-miterlimit="10" stroke-linecap="round" stroke-linejoin="round"/>
<path opacity="0.3" d="M293.5 148.3L298.2 160.7L290.6 165.9L286.2 162.9C296.8 162.4 291.4 148.1 291.4 148.1L293.5 148.3Z" fill="#370379"/>
<path opacity="0.3" d="M351.1 83.9998C352.9 96.6998 353.6 108.8 353.3 120.4L349.7 118.1C349.7 118.1 350.9 127.3 348.8 143.7L346.6 141.3C346.6 141.3 344.1 149.7 337.4 156.4V174.9C337.4 179 334.2 182.4 330.1 182.5C328.2 182.6 326.2 182.6 324.2 182.6C328.2 178.8 327.5 173.7 327.5 173.7V162.9C327.5 162.9 322.4 166.2 309.2 168.2C301.9 169.3 292.1 169.9 279.4 169.4C276.6 169.3 273.9 169.1 271.5 168.7V174.8C271.5 178.9 268.3 182.3 264.2 182.4C260.2 182.6 256.3 182.6 252.4 182.5C261.4 181.2 261.7 174.7 261.7 174.7V166.7C249.1 163.1 242.2 156.8 238.5 152.3C236.2 149.3 235.3 147.1 235.2 146.9C280.6 180.7 361 157.6 346 64.7998C350.9 71.1998 351.5 80.9998 354.8 82.5998L351.1 83.9998Z" fill="#370379"/>
<path opacity="0.7" d="M255.8 40.4004L258 43.2004C249.9 46.1004 243.8 51.2004 238.9 57.6004C237.2 59.3004 235.2 60.2004 233 60.7004L233.6 59.9004L230.2 57.6004C233.2 57.3004 235.9 56.4004 238.2 54.2004C242.8 48.3004 248.4 43.4004 255.8 40.4004Z" fill="white"/>
<path opacity="0.7" d="M275.8 31L276.9 34.3L256.5 39L254.1 36L275.8 31Z" fill="white"/>
<path opacity="0.7" d="M295.4 25.4004C288.6 27.9004 281.6 32.8004 281.6 32.8004C279.7 30.5004 276.6 29.2004 275.4 28.7004L274.1 25.2004C274.1 25.2004 278.4 26.5004 280.8 29.4004C280.8 29.4004 290.5 22.5004 298.2 20.9004L295.4 25.4004Z" fill="white"/>
<path opacity="0.7" d="M306.6 27.2002L303.3 30.8002C297.2 31.5002 293.4 33.1002 293.4 33.1002L296.3 28.6002C298.7 28.0002 302.2 27.3002 306.6 27.2002Z" fill="white"/>
<path opacity="0.7" d="M323.1 38.7006L304 34.3006L306.4 31.6006L325.3 36.0006L323.1 38.7006Z" fill="white"/>
<path opacity="0.7" d="M345.9 59.9004L346 60.1004C344.6 59.6004 343.3 58.7004 342.1 57.6004C337.1 51.3004 331.1 46.1004 323 43.2004L324.8 40.9004C331.6 43.9004 336.9 48.6004 341.3 54.2004C343.5 56.4004 346.3 57.4004 349.3 57.6004L345.9 59.9004Z" fill="white"/>
<path d="M305.8 133.4C340.2 133.4 337.8 92.5003 305.8 98.5003C295.6 100.3 284.6 99.6003 273.1 97.5003C250.5 93.8003 241.5 119.7 264.8 130.3C276.9 133.7 290.5 135 305.8 133.4Z" fill="#F3535F"/>
<path opacity="0.7" d="M328.9 106.9C325 101.9 317.7 98.8003 307.2 100.7C297 102.5 286 101.8 274.5 99.7003C257.5 96.9003 248.2 110.8 254.5 122.5C245.6 110.5 255 94.5003 273.1 97.5003C284.6 99.6003 295.6 100.2 305.8 98.5003C317.7 96.3003 325.5 100.6 328.9 106.9Z" fill="white"/>
<path opacity="0.7" d="M293.7 129.8C284.7 129.8 275.9 128.7 267.7 126.4C259.7 122.6 257.7 117.1 258.6 113.2C259.6 108.8 263.8 106 269.5 106C270.5 106 271.6 106.1 272.7 106.3C280.5 107.7 287.5 108.4 294.1 108.4C298.9 108.4 303.4 108 307.7 107.3H307.8C309.5 107 311.1 106.8 312.7 106.8C321.7 106.8 324.9 112.1 324.9 116.6C324.9 119.6 323.5 122.5 321 124.7C317.7 127.6 312.7 129.1 306.6 129.1H306.3H306C301.7 129.6 297.6 129.8 293.7 129.8Z" fill="white"/>
<path d="M293 127.5C284 127.5 275.2 126.4 267 124.1C259 120.3 257 114.8 257.9 110.9C258.9 106.5 263.1 103.7 268.8 103.7C269.8 103.7 270.9 103.8 272 104C279.8 105.4 286.8 106.1 293.4 106.1C298.2 106.1 302.7 105.7 307 105H307.1C308.8 104.7 310.4 104.5 312 104.5C321 104.5 324.2 109.8 324.2 114.3C324.2 117.3 322.8 120.2 320.3 122.4C317 125.3 312 126.8 305.9 126.8H305.6H305.3C301 127.3 297 127.5 293 127.5Z" fill="#370379"/>
<path d="M375.7 119.9C375.9 122.8 375.3 126.6 372 130.2L371.7 129.2C371.7 129.2 367.2 131.5 363.5 130.8L364.4 129.9C359 129.1 356.6 121.5 353.4 114.9L351.6 87.2002C351.6 87.2002 356.1 89.9002 360.9 93.7002C364.2 96.3002 367.6 99.5002 369.8 102.7L367 103C367 103 374.5 109.5 376.6 115.8L374.3 114.7C374.3 114.8 375.4 116.9 375.7 119.9Z" fill="#797A75"/>
<path opacity="0.3" d="M372 130.2L371.7 129.2C371.7 129.2 367.2 131.5 363.5 130.8L364.4 129.9C359 129.1 356.6 121.5 353.4 114.9L351.6 87.2002C351.6 87.2002 356.1 89.9002 360.9 93.7002C360.9 93.7002 356.2 101.1 357.8 110.6C359.4 120.1 368 127.1 374.2 121.2C374.7 120.7 375.2 120.3 375.8 120C375.9 122.8 375.3 126.6 372 130.2Z" fill="#370379"/>
<path d="M266.7 120.1C280.1 111.3 304.3 114.2 312.4 122L313.1 125.5C296.2 128.9 280.3 128.3 265.6 123.4" fill="#F73131"/>
<path d="M282.7 74.8002C282.7 84.3002 275 91.9002 265.6 91.9002C256.2 91.9002 248.5 84.2002 248.5 74.8002C248.5 71.5002 249.4 68.5002 251 65.9002C251.3 65.4002 251.7 64.9002 252.1 64.4002C255.2 60.4002 260.1 57.7002 265.7 57.7002C274.4 57.7002 281.6 64.2002 282.7 72.6002C282.7 73.2002 282.7 74.0002 282.7 74.8002Z" fill="white"/>
<path d="M331.5 74.8006C331.5 84.3006 323.8 91.9006 314.4 91.9006C305 91.9006 297.3 84.2006 297.3 74.8006C297.3 74.0006 297.4 73.3006 297.4 72.5006C298.5 64.1006 305.7 57.6006 314.4 57.6006C320.6 57.6006 326 60.9006 329 65.8006C330.6 68.4006 331.5 71.5006 331.5 74.8006Z" fill="white"/>
<path opacity="0.3" d="M331.5 74.7998C331.5 84.2998 323.8 91.8998 314.4 91.8998C309.1 91.8998 304.4 89.4998 301.2 85.6998C303.8 87.2998 306.9 88.2998 310.3 88.2998C319.8 88.2998 327.4 80.5998 327.4 71.1998C327.4 67.8998 326.5 64.8998 324.9 62.2998C324.5 61.5998 324 60.8998 323.4 60.2998C325.7 61.6998 327.6 63.5998 329 65.8998C330.6 68.3998 331.5 71.4998 331.5 74.7998Z" fill="#370379"/>
<path d="M282.6 72.5004L251 65.9004L252.1 64.4004C255.2 60.4004 260.1 57.7004 265.7 57.7004C274.3 57.6004 281.4 64.1004 282.6 72.5004Z" fill="#797A75"/>
<path opacity="0.7" d="M282 70.0006C279.4 64.0006 273.3 59.8006 266.3 59.8006C260.9 59.8006 256 62.3006 252.9 66.3006L250.9 65.9006L252 64.4006C255.1 60.4006 260 57.7006 265.6 57.7006C273.4 57.6006 280 62.9006 282 70.0006Z" fill="white"/>
<path d="M265.6 91.9002C275.044 91.9002 282.7 84.2443 282.7 74.8002C282.7 65.3561 275.044 57.7002 265.6 57.7002C256.156 57.7002 248.5 65.3561 248.5 74.8002C248.5 84.2443 256.156 91.9002 265.6 91.9002Z" stroke="#370379" stroke-width="3.0749" stroke-miterlimit="10" stroke-linecap="round" stroke-linejoin="round"/>
<path d="M329 65.9005L297.4 72.6005C298.5 64.2005 305.7 57.7005 314.4 57.7005C320.5 57.6005 326 60.9005 329 65.9005Z" fill="#797A75"/>
<path opacity="0.7" d="M325 61.3C322.5 59.8 319.5 58.9 316.3 58.9C308.3 58.9 301.5 64.4 299.7 71.9L297.4 72.4C298.5 64 305.7 57.5 314.4 57.5C318.4 57.6 322.1 59 325 61.3Z" fill="white"/>
<path opacity="0.3" d="M282.7 74.7998C282.7 84.2998 275 91.8998 265.6 91.8998C260.1 91.8998 255.2 89.2998 252 85.1998C254.8 87.1998 258.3 88.3998 262 88.3998C271.5 88.3998 279.1 80.6998 279.1 71.2998C279.1 70.4998 279 69.7998 279 68.9998C278.6 65.8998 277.4 63.0998 275.6 60.7998C279.3 63.4998 281.9 67.5998 282.6 72.3998C282.7 73.1998 282.7 73.9998 282.7 74.7998Z" fill="#370379"/>
<path d="M282.6 72.5004L251 65.9004" stroke="#370379" stroke-width="3.0749" stroke-miterlimit="10" stroke-linecap="round" stroke-linejoin="round"/>
<path d="M314.4 91.9002C323.844 91.9002 331.5 84.2443 331.5 74.8002C331.5 65.3561 323.844 57.7002 314.4 57.7002C304.956 57.7002 297.3 65.3561 297.3 74.8002C297.3 84.2443 304.956 91.9002 314.4 91.9002Z" stroke="#370379" stroke-width="3.0749" stroke-miterlimit="10" stroke-linecap="round" stroke-linejoin="round"/>
<path d="M329 65.9004L297.4 72.5004" stroke="#370379" stroke-width="3.0749" stroke-miterlimit="10" stroke-linecap="round" stroke-linejoin="round"/>
<path d="M318.8 74.9C319.8 78.5 318.1 82.3 314.6 84C310.7 85.8 306.1 84.1 304.3 80.3C302.5 76.4 304.2 71.8 308 70C310.7 68.7 313.8 69.2 316.1 70.9C316 70.9 315.9 71 315.8 71C314.5 71.6 314 73.1 314.6 74.4C315.2 75.7 316.7 76.2 318 75.6C318.3 75.4 318.6 75.1 318.8 74.9Z" fill="#370379"/>
<path d="M276.1 76.1006C276.5 79.8006 274.2 83.3006 270.5 84.3006C266.4 85.5006 262.1 83.0006 261 78.9006C259.8 74.8006 262.3 70.5006 266.4 69.4006C269.3 68.6006 272.3 69.5006 274.2 71.6006C274.1 71.6006 274 71.6006 273.9 71.7006C272.6 72.1006 271.8 73.5006 272.1 74.8006C272.5 76.1006 273.9 76.9006 275.2 76.6006C275.5 76.5006 275.8 76.4006 276.1 76.1006Z" fill="#370379"/>
<path d="M351.1 83.9998C352.9 96.6998 353.6 108.8 353.3 120.4L349.7 118.1C349.7 118.1 350.9 127.3 348.8 143.7L346.6 141.3C346.6 141.3 344.1 149.7 337.4 156.4V174.9C337.4 179 334.2 182.4 330.1 182.5C325.6 182.7 321.1 182.7 316.5 182.5C312.4 182.3 309.2 179 309.2 174.9V168.2C302.7 169.4 296.3 170 290 170C283.7 170 277.5 169.5 271.4 168.4V174.9C271.4 179 268.2 182.4 264.1 182.5C259.5 182.7 255 182.7 250.5 182.5C246.4 182.3 243.2 179 243.2 174.9V157.6C235.6 150.7 232.7 141.3 232.7 141.3L230.5 143.7C228.4 127.3 229.6 118.1 229.6 118.1L226 120.4C225.7 108.8 226.4 96.6998 228.2 83.9998L224.6 82.4998C227.8 80.8998 228.5 71.0998 233.3 64.6998L230.9 63.1998L233.4 59.8998L230 57.5998C233 57.2998 235.7 56.3998 238 54.1998C243 47.8998 249 42.6998 257.1 39.7998L254 35.8998L276 30.7998L274 25.0998C274 25.0998 278.3 26.3998 280.7 29.2998C280.7 29.2998 290.4 22.3998 298.1 20.7998L292.5 29.5998C292.5 29.5998 297.9 27.2998 306.4 27.0998L303.1 30.7998L325.1 35.8998L322 39.7998C330.1 42.6998 336.2 47.7998 341.1 54.1998C343.3 56.3998 346.1 57.3998 349.1 57.5998L345.7 59.8998L348.2 63.1998L345.8 64.6998C350.7 71.0998 351.3 80.8998 354.6 82.4998L351.1 83.9998Z" stroke="#370379" stroke-width="3" stroke-miterlimit="10" stroke-linecap="round" stroke-linejoin="round"/>
<path d="M338.5 157.4C336 159.3 333.2 160.7 330.4 161.7C332.8 159.9 334.8 157.7 336.4 155.3C336.9 154.6 337.8 154.4 338.5 154.9C339.2 155.4 339.4 156.3 338.9 157C338.7 157.2 338.6 157.3 338.5 157.4Z" fill="#370379"/>
<path d="M249.1 161.7C246.7 161 244.4 160 242.2 158.6C241.5 158.2 241.2 157.2 241.7 156.5C242.1 155.8 243.1 155.5 243.8 156C244 156.1 244.1 156.3 244.3 156.4C245.6 158.3 247.2 160.1 249.1 161.7Z" fill="#370379"/>
<path d="M318.3 166.101L309.4 169.601C308.6 169.901 307.7 169.501 307.4 168.701C307.1 167.901 307.5 167.001 308.3 166.701C308.5 166.601 308.6 166.601 308.8 166.601H308.9L318.3 166.101Z" fill="#370379"/>
<path d="M271.2 169.7C268 168.6 264.8 167.4 261.7 166C265 166.4 268.4 166.6 271.7 166.7C272.5 166.7 273.2 167.4 273.2 168.3C273.2 169.1 272.5 169.8 271.6 169.8C271.4 169.8 271.3 169.8 271.2 169.7Z" fill="#370379"/>
<path d="M351.6 87.2002C351.6 87.2002 364.5 94.8002 369.8 102.7L367 103C367 103 374.5 109.5 376.6 115.8L374.3 114.7C374.3 114.7 378.8 122.9 372 130.1L371.7 129.1C371.7 129.1 367.2 131.4 363.5 130.7L364.4 129.8C359 129 356.6 121.4 353.4 114.8" stroke="#370379" stroke-width="3" stroke-miterlimit="10" stroke-linecap="round" stroke-linejoin="round"/>
<path d="M305.8 133.4C342 132.7 337.8 92.5003 305.8 98.5003C295.6 100.3 284.6 99.6003 273.1 97.5003C250.5 93.8003 241.5 119.7 264.8 130.3C276.9 133.7 290.5 135 305.8 133.4Z" stroke="#370379" stroke-width="3" stroke-miterlimit="10" stroke-linecap="round" stroke-linejoin="round"/>
<path d="M318.2 123.9L313.2 119.7L310.9 126.5L307 120.8L300.5 127.3L294.2 120.7L289.7 127.3L285.3 120.5L278.6 126.5L274.9 119L267.2 124.2L266.3 116.7L261.1 120.1C273.5 132.4 310.1 127.5 318.2 123.9Z" fill="white"/>
<path d="M312.2 105.4L308.6 110.2L305.8 106.1L303.7 106.4L301.6 111.9L297.8 106.9L295.4 107L291.4 112.2C291.4 112.2 288.2 106.9 288.3 106.9C288.4 106.9 284.8 106.7 284.8 106.7L280.3 111.6L278.3 106L276.4 105.7L271.5 110.5L268.7 104.7L282.5 106.5L302.1 106.6L312.2 105.4Z" fill="white"/>
<path d="M293 127.5C284 127.5 275.2 126.4 267 124.1C259 120.3 257 114.8 257.9 110.9C258.9 106.5 263.1 103.7 268.8 103.7C269.8 103.7 270.9 103.8 272 104C279.8 105.4 286.8 106.1 293.4 106.1C298.2 106.1 302.7 105.7 307 105H307.1C308.8 104.7 310.4 104.5 312 104.5C321 104.5 324.2 109.8 324.2 114.3C324.2 117.3 322.8 120.2 320.3 122.4C317 125.3 312 126.8 305.9 126.8H305.6H305.3C301 127.3 297 127.5 293 127.5Z" stroke="#370379" stroke-width="2.6357" stroke-miterlimit="10" stroke-linecap="round" stroke-linejoin="round"/>
<path d="M228 83.9004C221.7 82.1004 215.7 79.6004 209.8 76.4004V78.7004C209.8 78.7004 195.9 76.2004 192.8 81.6004L195.7 81.9004C195.7 81.9004 190.8 85.6004 192.4 94.1004L194.2 92.4004C194.2 92.4004 203.2 109 226 117.9" stroke="#370379" stroke-width="3" stroke-miterlimit="10" stroke-linecap="round" stroke-linejoin="round"/>
<path opacity="0.3" d="M227.5 91.7L226 117.9C203.2 108.9 194.2 92.4 194.2 92.4L192.4 94.1C191.1 87.3 194 83.6 195.2 82.4C195.9 82.1 196.3 82 196.3 82C193.5 86.6 203.6 102 215 103.8C223.5 105.1 226.5 96.3 227.5 91.7Z" fill="#370379"/>
</svg>
