<?xml version="1.0" encoding="utf-8"?>
<!-- Generator: Adobe Illustrator 24.3.0, SVG Export Plug-In . SVG Version: 6.00 Build 0)  -->
<svg version="1.1" id="Layer_1" xmlns="http://www.w3.org/2000/svg" xmlns:xlink="http://www.w3.org/1999/xlink" x="0px" y="0px"
	 viewBox="0 0 1700 280" style="enable-background:new 0 0 1700 280;" xml:space="preserve">
<style type="text/css">
	.st0{fill:#52C9DD;}
	.st1{fill:url(#SVGID_1_);}
	.st2{fill:#56D856;}
	.st3{opacity:0.6;fill:#FFFFFF;}
	.st4{fill:none;stroke:#370379;stroke-width:3.179;stroke-linecap:round;stroke-linejoin:round;stroke-miterlimit:10;}
	.st5{fill:#35B52A;}
	.st6{opacity:0.3;fill:#370379;}
	.st7{opacity:0.6;}
	.st8{fill:#FFFFFF;}
	.st9{fill:none;stroke:#370379;stroke-width:3.0062;stroke-linecap:round;stroke-linejoin:round;stroke-miterlimit:10;}
	.st10{fill:#38A532;}
	.st11{opacity:0.2;fill:#370379;}
	.st12{fill:none;stroke:#370379;stroke-width:2.9785;stroke-linecap:round;stroke-linejoin:round;stroke-miterlimit:10;}
	.st13{fill:#A0A09F;}
	.st14{opacity:0.7;fill:#FFFFFF;}
	.st15{fill:#E52E2E;}
	.st16{fill:none;stroke:#370379;stroke-width:2.8166;stroke-linecap:round;stroke-linejoin:round;stroke-miterlimit:10;}
	.st17{opacity:0.3;fill:#FFFFFF;}
	.st18{fill:#F28705;}
	.st19{fill:#43BAA7;}
	.st20{fill:#F2AF27;}
	.st21{fill:none;stroke:#370379;stroke-width:2.4142;stroke-linecap:round;stroke-linejoin:round;stroke-miterlimit:10;}
	.st22{opacity:0.7;}
	.st23{fill:#EFD03A;}
	.st24{fill:#370379;}
	.st25{fill:none;stroke:#F1F2F2;stroke-width:2.4142;stroke-linecap:round;stroke-linejoin:round;stroke-miterlimit:10;}
	.st26{fill:#41BAAB;}
	.st27{fill:#6665FF;}
	.st28{fill:#FF9416;}
	.st29{fill:#9A7AC5;}
	.st30{fill:none;stroke:#370379;stroke-width:3.0003;stroke-linecap:round;stroke-linejoin:round;stroke-miterlimit:10;}
	.st31{fill:none;stroke:#370379;stroke-width:2.5717;stroke-linecap:round;stroke-linejoin:round;stroke-miterlimit:10;}
	.st32{fill:#F44040;}
	.st33{fill:#23262B;}
	.st34{fill:#F9911E;}
	.st35{fill:none;stroke:#370379;stroke-width:2.486;stroke-linecap:round;stroke-linejoin:round;stroke-miterlimit:10;}
	.st36{fill:none;stroke:#370379;stroke-width:2.9003;stroke-linecap:round;stroke-linejoin:round;stroke-miterlimit:10;}
	.st37{opacity:0.3;fill:#23262B;}
	.st38{fill:#797A75;}
	.st39{opacity:0.3;fill:#404349;}
	.st40{opacity:0.4;fill:#FFFFFF;}
	.st41{fill:none;stroke:#370379;stroke-width:1.6573;stroke-linecap:round;stroke-linejoin:round;stroke-miterlimit:10;}
	.st42{fill:#F3535F;}
	.st43{opacity:0.73;fill:#52C9DD;}
	.st44{fill:none;stroke:#370379;stroke-width:2.0716;stroke-linecap:round;stroke-linejoin:round;stroke-miterlimit:10;}
	.st45{fill:#45D339;}
	.st46{fill:#81FF73;}
	.st47{fill:none;stroke:#370379;stroke-width:1.0578;stroke-linecap:round;stroke-linejoin:round;stroke-miterlimit:10;}
	.st48{fill:#A356CC;}
	.st49{opacity:0.35;fill:#FFFFFF;}
	.st50{fill:#C8C8C8;}
	.st51{fill:#313131;}
	.st52{fill:#0C0C0C;}
	.st53{fill:#8D8D8D;}
	.st54{fill:#363636;}
	.st55{fill:#393938;}
	.st56{fill:none;stroke:#370379;stroke-width:3.3791;stroke-linecap:round;stroke-linejoin:round;stroke-miterlimit:10;}
	.st57{opacity:0.28;fill:url(#SVGID_2_);}
	.st58{opacity:0.28;fill:url(#SVGID_3_);}
	.st59{opacity:0.28;fill:url(#SVGID_4_);}
	.st60{opacity:0.28;fill:url(#SVGID_5_);}
	.st61{fill:none;}
</style>
<rect x="2.5" y="0" class="st0" width="1708.9" height="280"/>
<linearGradient id="SVGID_1_" gradientUnits="userSpaceOnUse" x1="844.7639" y1="312.6834" x2="848.3606" y2="55.5201">
	<stop  offset="0" style="stop-color:#FEFFE0"/>
	<stop  offset="1" style="stop-color:#9FD8F6"/>
</linearGradient>
<rect x="-6.6" class="st1" width="1708.9" height="186"/>
<path class="st2" d="M45,130.6c251.6-23.6,510.9-17.4,774.5,5c84.9,4.8,169.6,0.9,254.1-10c148.2-16.6,286.9,15.3,498.8,14.2
	c0,0,81.2,1.5,193.9-9.2l23.8,35.5L16.9,170.6"/>
<path class="st3" d="M1790.1,166.1h-1.5l-21.1-31.4c-112.8,10.7-193.9,9.2-193.9,9.2c-211.8,1.1-350.6-30.8-498.8-14.2
	c-84.5,10.9-169.2,14.8-254.1,10c-263.6-22.4-522.9-28.5-774.5-5L21,170.5l-4.1,0l28.1-40c251.6-23.6,510.9-17.4,774.5,5
	c84.9,4.8,169.6,0.9,254.1-10c148.2-16.6,286.9,15.3,498.8,14.2c0,0,81.2,1.5,193.9-9.2L1790.1,166.1z"/>
<path class="st4" d="M49.9,130.6c250.9-23.5,509.5-17.4,772.3,4.9c84.7,4.8,169.1,0.9,253.4-9.9c147.8-16.6,286.1,15.3,497.3,14.2
	c0,0,33.8,0.6,88-1.8"/>
<g>
	<g>
		<path class="st5" d="M1718.4,153.3h-156c-6.8-18.5,11.7-37.4,32.1-34c0-11.9,24.5-21.7,42.4-6.1c-5.5-15.6,7.1-23.6,19.4-21.7
			c-6.6-5.2-1.2-15.3,8.3-13.7c4.6-17,32.1-15.7,37.1-2.5c4.8-3,11.3-0.3,11.3,5.1L1718.4,153.3z"/>
		<path class="st6" d="M1714.1,95.4c-10.7-12.5-34.6-0.6-24.7,18.8c-7.9-5-17.8-0.7-15.6,5.3c-14.4-9-32.3,0.1-34.1,11.3
			c-2.8-3.9-9.6-0.6-10.5,3c-17.8-13.8-50.1,0-40.9,19.3h130.2L1714.1,95.4z"/>
	</g>
	<g class="st7">
		<path class="st8" d="M1655.5,91.3c0.5,1.1,1.3,2.2,2.4,3.2c-12.4-1.9-24.9,6.1-19.4,21.7c-17.9-15.5-42.4-5.8-42.4,6.1
			c-19.2-3.2-36.9,13.5-33,30.9h-0.7c-6.8-18.5,11.7-37.4,32.1-34c0-11.9,24.5-21.7,42.4-6.1C1631.6,97.9,1643.4,89.9,1655.5,91.3z"
			/>
		<path class="st8" d="M1712.9,79.2c-2.2-2.3-6.3-2.9-9.6-0.9c-5-13.2-32.5-14.6-37.1,2.5c-7.3-1.3-12.2,4.5-11,9.5
			c-4.7-5.4,0.6-14.1,9.4-12.6c4.6-17,32.1-15.7,37.1-2.5C1706.1,72.5,1712,74.6,1712.9,79.2z"/>
	</g>
	<g class="st7">
		<path class="st8" d="M1656.4,91.4c-0.3,0-0.6-0.1-0.9-0.1c-0.1-0.3-0.2-0.7-0.3-1C1655.5,90.7,1655.9,91.1,1656.4,91.4z"/>
	</g>
	<path class="st9" d="M1713,80.4c0-6.8-10.2-9.3-14.4-1.7"/>
	<path class="st9" d="M1701.7,75.3c-5-13.2-32.5-14.6-37.1,2.5c-9.5-1.6-14.8,8.5-8.3,13.7c-12.4-1.9-24.9,6.1-19.4,21.7
		c-17.9-15.5-42.4-5.8-42.4,6.1c-20.4-3.4-38.9,15.5-32.1,34"/>
</g>
<g>
	<g>
		<path class="st10" d="M86.3,153.4H-13.8v-43.7c2.4-2.7,7.8-2.1,8.2,2c7.5-10.2,31.8-7.3,31.8,7.2c3.6-1.8,8.9,1.4,6,6.5
			c3.9-1.2,8.9,0.5,11.5,3.5c6.6-8.8,24.4-6.4,24.4,5.1c4.2-2.5,11.4-1,9.7,5.4C89,137.6,93.1,148.4,86.3,153.4z"/>
	</g>
	<g class="st7">
		<path class="st8" d="M33,123.8c-0.7-2.7-4.2-4-6.7-2.7c0-14.5-24.3-17.4-31.8-7.2c-0.4-4.2-5.8-4.7-8.2-2v-2.1
			c2.4-2.7,7.8-2.1,8.2,2c7.5-10.2,31.8-7.3,31.8,7.2C29.4,117.4,34,119.7,33,123.8z"/>
		<path class="st8" d="M78.1,138.8c-0.8-3.9-6.3-4.7-9.8-2.6c0-11.5-17.8-13.9-24.4-5.1c-2.7-3.1-7.7-4.7-11.5-3.5
			c0.5-0.8,0.7-1.6,0.8-2.3c3.7-0.8,8.3,0.9,10.8,3.7c6.6-8.8,24.4-6.4,24.4,5.1C72.4,131.8,79.1,133.1,78.1,138.8z"/>
		<path class="st8" d="M89.6,148.3c-0.6-4.2-4.8-7.8-11.6-6.6c0.2-0.8,0.3-1.5,0.2-2.1C86,138.2,90.3,143.4,89.6,148.3z"/>
	</g>
	<g>
		<path class="st8" d="M33,123.8c0.1,0.5,0.2,1,0.1,1.5c-0.3,0.1-0.5,0.1-0.8,0.2C32.7,124.9,32.9,124.3,33,123.8z"/>
		<path class="st8" d="M78.2,139.5c-0.1,0-0.2,0-0.2,0c0.1-0.3,0.1-0.5,0.2-0.7C78.2,139.1,78.2,139.3,78.2,139.5z"/>
	</g>
	<path class="st11" d="M-12.2,129.6c2.4-6.6,11.4-5,11.4,1.3c4.3-2.4,6.6,2.3,3.2,4c3.5-0.7,6.1-0.2,7.2,2c2.7-3.3,6-5.1,11.4-2
		c5.7-2.1,10,0.6,9.6,5.8c2.2-4,8.9-3.8,8.9,0.4c5.7-0.3,9.3,1.5,10.3,5.8l5.5,1.4c-0.7-4.9,4.5-11,10.9-4.5c4-2,6.8,0,5.4,3.1
		c5.6-2.8,12.8,0.8,10.6,6h-97.6l-2.8-21.5"/>
	<path class="st12" d="M-13.8,109.7c2.4-2.7,7.8-2.1,8.2,2c7.5-10.2,31.8-7.3,31.8,7.2c3.6-1.8,8.9,1.4,6,6.5
		c6.8-2.1,17.1,4.6,12.1,12.2"/>
	<path class="st12" d="M43.9,129.1c6.6-8.8,24.4-6.4,24.4,5.1c4.2-2.5,11.4-1,9.7,5.4c11-2,15.2,8.8,8.4,13.8"/>
	<path class="st12" d="M0.8,138.6c0.8-5.6,8.2-4.4,8.7-1.8c1.7-5.3,10-5.9,12.1-0.7"/>
	<path class="st12" d="M37.6,142.3c4.6-2.7,11.1-1.1,12.3,5.4c4.4-2.3,8.4,3.1,2.9,5.7"/>
</g>
<g>
	<polygon class="st13" points="1722.3,153.3 -6.6,153.3 -6.6,211.9 1719.7,211.9 	"/>
	<polygon class="st14" points="1722.3,153.3 1722.1,156.4 -6.6,156.4 -6.6,153.3 	"/>
	<rect x="-20.3" y="205.6" class="st13" width="1747.7" height="12.5"/>
	<rect x="-20.3" y="205.6" class="st4" width="1774.8" height="12.5"/>
	<polyline class="st4" points="462,218.2 462,205.6 600.7,153.3 	"/>
	<polyline class="st4" points="625,218.2 625,205.6 718.7,153.3 	"/>
	<polyline class="st4" points="299,218.2 299,205.6 489.4,153.3 	"/>
	<polyline class="st4" points="123.1,218.2 123.1,205.6 333.9,153.3 	"/>
	<polyline class="st4" points="-45,218.2 -45,205.6 165.9,153.3 	"/>
	<polyline class="st4" points="1516.7,218.2 1516.7,205.6 1305.9,153.3 	"/>
	<polyline class="st4" points="1705.4,218.2 1705.4,205.6 1487.8,153.3 	"/>
	<polyline class="st4" points="788.5,218.2 788.5,205.6 788.5,153.3 	"/>
	<polyline class="st4" points="951.5,218.2 951.5,205.6 855.4,153.3 	"/>
	<polyline class="st4" points="1114.5,218.2 1114.5,205.6 977.5,153.3 	"/>
	<polyline class="st4" points="1150.6,153.3 1302.3,205.6 1302.3,217.2 	"/>
	<line class="st4" x1="1721.7" y1="153.3" x2="-29.7" y2="153.3"/>
</g>
<ellipse class="st6" cx="1125.9" cy="185.3" rx="58.6" ry="10.7"/>
<ellipse class="st6" cx="1416.1" cy="186" rx="118.3" ry="17.1"/>
<ellipse class="st6" cx="845.7" cy="240.1" rx="78.7" ry="29.4"/>
<ellipse class="st6" cx="647.4" cy="250.7" rx="32.3" ry="12.8"/>
<g>
	<path class="st0" d="M895.5,232.6c3.4,26.5-33.3,38.9-66.6,38.9s-72.3-12.3-66.6-38.9l18.3-8.4h96L895.5,232.6z"/>
	<path class="st8" d="M870.3,234c0,0,15.9,11.2,5.2,27.9c0,0,22.1-8.6,20-29.3l-20.2-5.1"/>
	<path class="st8" d="M814.4,240.1c-6.3,9.3-6.3,24,0,30.6c9.7,1,19.4,1,28.9,0c6.3-6.6,6.3-21.3,0-30.6"/>
	<path class="st8" d="M786,234c0,0-15.9,11.2-5.2,27.9c0,0-22.4-11.4-18.8-27.5s24-5,24-5"/>
	<path class="st15" d="M786,234c0,0-15.9,11.2-5.2,27.9c10.2,6.3,21.6,8.7,33.6,8.8c-6.3-6.6-6.3-21.3,0-30.6"/>
	<path class="st6" d="M828.9,271.5c-33.3,0-72.3-12.3-66.6-38.9l2.3-1.1c2.5,21.2,34.9,31.1,63,31.1c28.6,0,60-10.3,62.7-32.3
		l5.2,2.3C898.9,259.1,862.2,271.5,828.9,271.5z"/>
	<path class="st16" d="M895.5,232.6c3.4,26.5-33.3,38.9-66.6,38.9s-72.3-12.3-66.6-38.9l18.3-8.4h96L895.5,232.6z"/>
	<path class="st16" d="M786,234c0,0-15.9,11.2-5.2,27.9"/>
	<path class="st16" d="M870.3,234c0,0,15.9,11.2,5.2,27.9"/>
	<path class="st17" d="M788.1,247.5L788.1,247.5c-0.3,2.6,1.5,4.9,4,5.4c27.3,5.5,53.4,6.3,77-2.5c2.1-0.8,3.1-3.1,2.4-5.1l0,0
		c-0.7-1.9-2.7-3-4.6-2.6c-24.4,5.2-48.7,5.4-72.7,0.5C791.2,242.5,788.4,244.5,788.1,247.5z"/>
	<path class="st16" d="M814.4,240.1c-6.3,9.3-6.3,24,0,30.6"/>
	<path class="st16" d="M843.3,240.1c6.3,9.3,6.3,24,0,30.6"/>
	<g>
		<path class="st18" d="M895.2,219.8c0,0-0.1,0.2-0.4,0.7c-0.9,1.6-3.1,5.5-5.3,9.5l-2,3.6c-0.2,0.4-0.4,0.7-0.6,1
			c0,0-7,0.2-12.1-4.5c-1-0.9-1.9-2-2.7-3.3c-4.8-8.1,4.7-15.7,4.7-15.7s3.2-3,8.2,0.3S895.2,219.8,895.2,219.8z"/>
		<path class="st18" d="M783.4,226.8c-0.8,1.4-1.8,2.5-2.8,3.4c-5.1,4.6-12,4.4-12,4.4c-0.2-0.3-0.4-0.7-0.6-1l-1.8-3.3l-1.3-2.4
			c-1.8-3.2-3.5-6.1-4.2-7.4c-0.2-0.4-0.4-0.7-0.4-0.7s5.1-5.1,10.1-8.4s8.2-0.3,8.2-0.3S788.3,218.7,783.4,226.8z"/>
		<path class="st19" d="M768.1,233.6c-5.7,2-9.9,0.4-11.1-2.9c-1-2.6,0-6.3,3.8-10.1c0,0,0,0,0,0l4.2,7.4l1.3,2.4L768.1,233.6z"/>
		<path class="st16" d="M760.7,220.5c-8.5,8.5-2.9,16.6,7.3,13.1"/>
		<path class="st16" d="M760.3,219.8c0,0,5,8.9,8.3,14.8c0,0,10,0.3,14.8-7.8c4.8-8.1-4.7-15.7-4.7-15.7s-3.2-3-8.2,0.3
			C765.4,214.7,760.3,219.8,760.3,219.8z"/>
		<polyline class="st10" points="767.5,209.8 766.8,203.6 763.3,206.7 760,204.8 759.4,208.8 755.6,210.6 760.8,213.8 		"/>
		<path class="st20" d="M760.1,216c1-5,5-6.5,8.4-6.1c2.1,0.3,4,1.4,5.3,3.1c5.2,7-7.6,15.5-12.6,8.6
			C760.1,220.1,759.8,218,760.1,216z"/>
		<path class="st6" d="M761.2,221.7c-0.3-0.4-0.6-0.9-0.8-1.4c5.3,3.3,14.2-3,11.6-8.9c0.7,0.5,1.3,1.1,1.8,1.7
			C779.1,220,766.3,228.5,761.2,221.7z"/>
		<path class="st14" d="M773,212.1c-0.8-0.4-1.7-0.7-2.6-0.8c-1.9-0.3-4,0.1-5.6,1.3c0.8,1.8-0.6,3.4-2.3,3
			c-0.2,0.5-0.4,1.1-0.5,1.7c-0.4,2-0.1,4.1,1.1,5.7c0.2,0.2,0.3,0.4,0.5,0.6c-0.9-0.4-1.7-1-2.3-1.9c-1.2-1.6-1.5-3.7-1.1-5.7
			c1-5,5-6.5,8.4-6.1C770.2,210.2,771.8,210.9,773,212.1z"/>
		<path class="st21" d="M760.1,216c1-5,5-6.5,8.4-6.1c2.1,0.3,4,1.4,5.3,3.1c5.2,7-7.6,15.5-12.6,8.6
			C760.1,220.1,759.8,218,760.1,216z"/>
		<polyline class="st21" points="767.5,209.8 766.8,203.6 763.3,206.7 760,204.8 759.4,208.8 755.6,210.6 760.8,213.8 		"/>
		<path class="st19" d="M887.5,233.6l2-3.6l5.3-9.5c0,0,0,0,0,0c1.2,1.2,2.2,2.5,2.8,3.7h0C901.5,231.2,896.2,236.6,887.5,233.6z"/>
		<path class="st16" d="M894.8,220.5c8.5,8.5,2.9,16.6-7.3,13.1"/>
		<path class="st16" d="M895.2,219.8c0,0-5,8.9-8.3,14.8c0,0-10,0.3-14.8-7.8c-4.8-8.1,4.7-15.7,4.7-15.7s3.2-3,8.2,0.3
			S895.2,219.8,895.2,219.8z"/>
		<path class="st19" d="M883,192l-6.2-0.5c3.2,9.8,3.5,19.6,0.9,29.5c-0.8,3-2,5.9-3.5,8.7l-0.8,1.4c-4.3,6.8-22.9,9.7-42.3,9.7
			c-19.7,0-40.3-3-47.4-8.2h0c-0.7-0.5-1.2-1-1.6-1.5c-2.7-4.7-4.6-9.9-5.4-15.3c-1.3-8.1-0.6-16.2,2-24.3l-6.2,0.5
			c1.9-2,4.2-3.7,6.7-4.9l-7.7-6.5l11.9,3c6.1-12.5,16.6-20.8,31-25.2c1.2-2.7,2.8-5.1,4.7-7.1l1.1,5.3c5.2-5.5,10.7-9.9,16.6-12.7
			c-2.2,4.3-3.9,8.6-4.9,12.9c6.1-3.1,11.9-3,11.9-3l-2.2,4.6c13,4.7,24.5,11.4,30.6,25.2l11.9-3l-7.7,6.5
			C878.8,188.3,881,189.9,883,192z"/>
		<g class="st22">
			<path class="st8" d="M778,187.7l2.2,1.9c-1.2,0.6-2.4,1.3-3.5,2.1l-4.3,0.3C774.1,190.2,776,188.8,778,187.7z"/>
			<path class="st8" d="M819.1,151.3l0.6,3c-1.7,1.9-3.1,4.1-4.2,6.5c-14.5,4.4-24.9,12.7-31,25.2l-9.4-2.4l-3.6-3.1l11.9,3
				c6.1-12.5,16.6-20.8,31-25.2C815.6,155.7,817.1,153.3,819.1,151.3z"/>
			<path class="st8" d="M834.8,148c-4.7,2.7-9.2,6.5-13.5,11l-0.6-3c5.1-5.2,10.4-9.4,16-12.1C836,145.2,835.4,146.6,834.8,148z"/>
			<path class="st8" d="M843.7,153.8l-1.3,2.6c-2.2,0.3-5.8,1-9.5,2.8c0.3-1.1,0.6-2.3,1-3.4C839.2,153.7,843.7,153.8,843.7,153.8z"
				/>
		</g>
		<path class="st16" d="M877.7,221.1c2.6-9.9,2.3-19.7-0.9-29.5l6.2,0.5c-2-2-4.2-3.7-6.7-4.9l7.7-6.5l-11.9,3
			c-6-13.8-17.5-20.5-30.6-25.2l2.2-4.6c0,0-5.8-0.1-11.9,3c1.1-4.4,2.7-8.7,4.9-12.9c-5.9,2.7-11.3,7.2-16.6,12.7l-1.1-5.3
			c-2,2-3.5,4.4-4.7,7.1c-14.5,4.4-24.9,12.7-31,25.2l-11.9-3l7.7,6.5c-2.5,1.2-4.7,2.8-6.7,4.9l6.2-0.5c-2.7,8.1-3.3,16.2-2,24.3
			c0.9,5.4,2.8,10.5,5.4,15.3l0,0c9.3,11.5,82.3,14.3,91.4,0l0.8-1.4C875.7,227,876.9,224.1,877.7,221.1z"/>
		<path class="st23" d="M872.1,183.6c19.3-9.5,8.4-37.3-3.9-40.7c7.2,13.9,1.4,21.2-8.9,26.4C856.3,175.1,860.7,186.3,872.1,183.6z"
			/>
		<path class="st6" d="M872.1,183.6c-5.3,1.2-9-0.5-11.3-3.3c1.9,0.8,4.2,1,6.9,0.5c15.5-6.6,13.1-25.4,5.6-35.2
			C883,153.8,888.7,175.4,872.1,183.6z"/>
		<path class="st8" d="M861.3,170.3c-2,3.8-0.8,9.9,3.5,12.9c-5.8-2.3-7.8-9.6-5.5-14c10.3-5.1,16.1-12.5,8.9-26.4
			c1.2,0.3,2.4,0.9,3.5,1.6c-0.5-0.2-1-0.4-1.5-0.5C877.4,157.8,871.6,165.2,861.3,170.3z"/>
		<path class="st23" d="M789.5,183.6c-1.8,0.5-3.9,0.6-6.4,0c-19.3-9.5-8.4-37.3,3.9-40.7c-0.6,1.1-1,2.1-1.5,3.2
			c-4.8,11.9,0.9,18.5,10.4,23.2C798.3,173.8,796.1,181.7,789.5,183.6z"/>
		<path class="st8" d="M785.3,183.9c-0.7-0.1-1.4-0.2-2.2-0.4c-19.3-9.5-8.4-37.3,3.9-40.7c-0.4,0.7-0.7,1.4-1,2.1
			C775.4,151.9,768.2,175.2,785.3,183.9z"/>
		<path class="st16" d="M872.1,183.6c19.3-9.5,8.4-37.3-3.9-40.7c7.2,13.9,1.4,21.2-8.9,26.4C856.3,175.1,860.7,186.3,872.1,183.6z"
			/>
		<path class="st16" d="M783.1,183.6c-19.3-9.5-8.4-37.3,3.9-40.7c-7.2,13.9-1.4,21.2,8.9,26.4C799,175.1,794.5,186.3,783.1,183.6z"
			/>
		<path class="st6" d="M789.5,183.6c0.3-0.4,0.6-0.8,0.9-1.2c4.8-5.3,0-8.8,0-8.8c-7.6-3.1-14.1-18-5.7-27.9l0.8,0.4
			c-4.8,11.9,0.9,18.5,10.4,23.2C798.3,173.8,796.1,181.7,789.5,183.6z"/>
		<polyline class="st10" points="888,209.8 888.7,203.6 892.2,206.7 895.5,204.8 896.1,208.8 899.9,210.6 894.7,213.8 		"/>
		<path class="st8" d="M851.3,198c0,13.8-11.2,24.9-24.9,24.9s-24.9-11.2-24.9-24.9c0-2.2,0.3-4.3,0.8-6.3c2.7-3.3,6.7-5.8,11.3-7.4
			c7.8-2.8,17.4-3,25.4-0.3c4.6,1.6,8.7,4.1,11.6,7.8C851,193.7,851.3,195.8,851.3,198z"/>
		<path class="st6" d="M851.3,198c0,13.8-11.2,24.9-24.9,24.9c-9.7,0-18.2-5.6-22.3-13.7c4.6,5.6,11.5,9.2,19.3,9.2
			c13.8,0,24.9-11.2,24.9-24.9c0-1.5-0.1-3-0.4-4.5c0.9,0.8,1.8,1.7,2.5,2.6C851,193.7,851.3,195.8,851.3,198z"/>
		<path class="st16" d="M851.3,198c0,13.8-11.2,24.9-24.9,24.9s-24.9-11.2-24.9-24.9c0-2.2,0.3-4.3,0.8-6.3
			c2.7-3.3,6.7-5.8,11.3-7.4c7.8-2.8,17.4-3,25.4-0.3c4.6,1.6,8.7,4.1,11.6,7.8C851,193.7,851.3,195.8,851.3,198z"/>
		<path class="st24" d="M844.6,197.2c0,10.1-8.2,18.2-18.2,18.2s-18.2-8.2-18.2-18.2c0-5.1,2.1-9.6,5.4-12.9
			c7.8-2.8,17.4-3,25.4-0.3C842.4,187.2,844.6,191.9,844.6,197.2z"/>
		
			<ellipse transform="matrix(0.9271 -0.3749 0.3749 0.9271 -11.3545 327.4577)" class="st8" cx="835.9" cy="192.9" rx="4.5" ry="5.9"/>
		<path class="st16" d="M856.4,221c0,0-3.5,8.3-13.1,11.6"/>
		<path class="st16" d="M855.4,217.5c-0.2,3.8,2.6,5.3,4.9,4.5"/>
		<path class="st20" d="M895.4,216c-1-5-5-6.5-8.4-6.1c-2.1,0.3-4,1.4-5.3,3.1c-5.2,7,7.6,15.5,12.6,8.6
			C895.4,220.1,895.7,218,895.4,216z"/>
		<path class="st6" d="M894.3,221.7c-4.1,5.6-13.3,1-13.8-4.6c2.8,3.9,9.3,5.9,12.6,1.4c1.2-1.6,1.5-3.7,1.1-5.6
			c0.6,0.8,1,1.9,1.2,3.1C895.7,218,895.4,220.1,894.3,221.7z"/>
		<path class="st14" d="M894.5,213.6c-1.7-1.5-4-2-6.1-1.7c-0.3,0-0.5,0.1-0.8,0.2c0,1.5-1.6,2.3-3.1,1.5c-0.5,0.4-1,0.9-1.4,1.4
			c-1.6,2.1-1.5,4.4-0.5,6.4c-2.3-2.2-3.2-5.4-1-8.3c1.3-1.7,3.2-2.8,5.3-3.1C889.8,209.5,893,210.5,894.5,213.6z"/>
		<path class="st21" d="M895.4,216c-1-5-5-6.5-8.4-6.1c-2.1,0.3-4,1.4-5.3,3.1c-5.2,7,7.6,15.5,12.6,8.6
			C895.4,220.1,895.7,218,895.4,216z"/>
		<polyline class="st21" points="888,209.8 888.7,203.6 892.2,206.7 895.5,204.8 896.1,208.8 899.9,210.6 894.7,213.8 		"/>
		<path class="st6" d="M877.7,221.1c-0.8,3-2,5.9-3.5,8.7l-0.8,1.4c-4.3,6.8-22.9,9.7-42.3,9.7c-19.7,0-40.3-3-47.4-8.2
			c40.8,8.1,91.6,8.2,89.7-42.2l3.3,1.1C880,201.3,880.3,211.2,877.7,221.1z"/>
		<path class="st6" d="M780.6,230.2c-5.1,4.6-12,4.4-12,4.4c-0.2-0.3-0.4-0.7-0.6-1c-5.7,2-9.9,0.4-11.1-2.9c0.2,0,0.4,0,0.7,0
			c3.4,0.2,6.3,0,8.6-0.4c11.6-2.2,11.1-11,11.1-11l1.5,4.9L780.6,230.2z"/>
		<path class="st6" d="M887.5,233.6c-0.2,0.4-0.4,0.7-0.6,1c0,0-7,0.2-12.1-4.5l1.9-5.1c5,3.2,9.3,5,12.9,5c3.7,0.1,6.5-1.8,8.2-5.8
			h0C901.5,231.2,896.2,236.6,887.5,233.6z"/>
	</g>
</g>
<path class="st19" d="M1046.6,264.2c-0.1,0.1-0.5,0.5-0.4,0.2C1046.5,264.3,1046.6,264.3,1046.6,264.2z"/>
<path class="st19" d="M664.3,269.6c-0.1,0.1-0.5,0.5-0.4,0.2C664.2,269.7,664.3,269.6,664.3,269.6z"/>
<path class="st19" d="M556.8,244.5c-0.1,0.1-0.5,0.5-0.4,0.2C556.6,244.6,556.7,244.6,556.8,244.5z"/>
<path class="st25" d="M740.8,246.1c0-6,3.8-11.7,10.5-16.7"/>
<path class="st25" d="M809.7,280.2c-27.8-2.2-50.8-9.9-61.8-20.2"/>
<path class="st25" d="M895.2,266.8c-12.1,6.7-30,11.5-50.6,13.3"/>
<path class="st25" d="M905.2,232.6c4.3,4.2,6.7,8.7,6.7,13.5c0,2.4-0.6,4.7-1.7,7"/>
<path class="st25" d="M914.9,221.4c11.9,7,18.9,15.5,18.9,24.7c0,3.8-1.2,7.5-3.4,11"/>
<path class="st25" d="M720.4,253.2c-0.9-2.3-1.4-4.7-1.4-7.1c0-8.8,6.5-17.1,17.6-23.9"/>
<g>
	<ellipse class="st6" cx="1049.9" cy="240.6" rx="32.3" ry="12.8"/>
	<g>
		<g>
			<path class="st26" d="M1063.7,236.8c0,4.9-1.5,9.5-4.1,13.4c-10.5,6.2-28.4,6.3-39.2,0c-1.1-1.6-2-3.4-2.7-5.2
				c-0.9-2.5-1.4-5.3-1.4-8.2c0-13.1,10.6-23.7,23.7-23.7c6.1,0,11.7,2.3,15.9,6.1l0,0C1060.7,223.5,1063.7,229.7,1063.7,236.8z"/>
			<path class="st14" d="M1057.5,220.7c-4.1-3.4-9.3-5.4-15.1-5.4c-13.1,0-23.7,10.6-23.7,23.7c0,4.3,1.2,8.4,3.2,11.9
				c-0.5-0.2-1-0.5-1.5-0.8c-2.6-3.8-4.1-8.4-4.1-13.4c0-13.1,10.6-23.7,23.7-23.7C1046.9,213,1053.1,216,1057.5,220.7z"/>
			<path class="st16" d="M1063.7,236.8c0,4.9-1.5,9.5-4.1,13.4c-10.5,6.2-28.4,6.3-39.2,0c-2.6-3.8-4.1-8.4-4.1-13.4
				c0-13.1,10.6-23.7,23.7-23.7C1053.1,213,1063.7,223.6,1063.7,236.8z"/>
			<path class="st27" d="M1031.2,248.3l6.1-3.6l-3.4-7.3l5.1,5.5c0,0,5.8-3,5.8-3s-0.4-7-0.4-7l3.8,9.3l6.5-3.2l-7.2-17.6l-7.1,1.9
				l-1.1,11.9l-7.9-9.3l-6,2.8L1031.2,248.3z"/>
			<path class="st6" d="M1063.7,236.8c0,4.9-1.5,9.5-4.1,13.4c-10.5,6.2-28.4,6.3-39.2,0c-1.1-1.6-2-3.4-2.7-5.2
				c16.8,15.5,49.7-3.2,38.2-25.8C1060.7,223.5,1063.7,229.7,1063.7,236.8z"/>
		</g>
		<path class="st25" d="M1025.4,263.3c-5-1.5-9.2-3.8-12.2-6.5c-3.2-2.9-5-6.4-5-10.1c0-2,0.5-3.9,1.5-5.7"/>
		<path class="st25" d="M1045,265c-1.8,0.2-3.7,0.3-5.6,0.3c-1.2,0-2.5,0-3.7-0.1"/>
		<path class="st25" d="M1068.8,253c-2.5,4.2-7.5,7.6-13.8,9.8"/>
	</g>
</g>
<path class="st25" d="M623.5,269.6c-5-1.5-9.2-3.8-12.2-6.5c-3.2-2.9-5-6.4-5-10.1c0-2,0.5-3.9,1.5-5.7"/>
<path class="st25" d="M643.1,271.3c-1.8,0.2-3.7,0.3-5.6,0.3c-1.2,0-2.5,0-3.7-0.1"/>
<path class="st25" d="M666.9,259.3c-2.5,4.2-7.5,7.6-13.8,9.8"/>
<g>
	<ellipse class="st6" cx="515.7" cy="244.6" rx="32.3" ry="12.8"/>
	<g>
		<path class="st28" d="M528.6,238.2c0,4.9-1.5,9.5-4.1,13.4c-10.5,6.2-28.4,6.3-39.2,0c-1.1-1.6-2-3.4-2.7-5.2
			c-0.9-2.5-1.4-5.3-1.4-8.2c0-13.1,10.6-23.7,23.7-23.7c6.1,0,11.7,2.3,15.9,6.1l0,0C525.6,224.9,528.6,231.2,528.6,238.2z"/>
		<path class="st14" d="M522.4,222.1c-4.1-3.4-9.3-5.4-15.1-5.4c-13.1,0-23.7,10.6-23.7,23.7c0,4.3,1.2,8.4,3.2,11.9
			c-0.5-0.2-1-0.5-1.5-0.8c-2.6-3.8-4.1-8.4-4.1-13.4c0-13.1,10.6-23.7,23.7-23.7C511.8,214.4,518,217.4,522.4,222.1z"/>
		<path class="st16" d="M528.6,238.2c0,4.9-1.5,9.5-4.1,13.4c-10.5,6.2-28.4,6.3-39.2,0c-2.6-3.8-4.1-8.4-4.1-13.4
			c0-13.1,10.6-23.7,23.7-23.7C518,214.4,528.6,225,528.6,238.2z"/>
		<path class="st6" d="M528.6,238.2c0,4.9-1.5,9.5-4.1,13.4c-10.5,6.2-28.4,6.3-39.2,0c-1.1-1.6-2-3.4-2.7-5.2
			c16.8,15.5,49.7-3.2,38.2-25.8C525.6,224.9,528.6,231.2,528.6,238.2z"/>
		<path class="st8" d="M510.4,235.2c5.7-1.6,5-9.1-1.1-9.4l-1.5,0.1l-0.2-3.5l-2.6,0.2l0.2,3.5l-2.6,0.2l-0.2-3.5l-2.6,0.2l0.2,3.5
			l-5.2,0.3l0.1,2.2l2.9-0.2l1,15.6l-2.9,0.2l0.1,2.1l5.2-0.3l0.2,3.4l2.6-0.2l-0.2-3.4l2.6-0.2l0.2,3.4l2.6-0.2l-0.2-3.4l1.1-0.1
			C518.1,244.7,516.9,235.8,510.4,235.2z M506,228.2c1.1-0.1,2.3,0.4,2.9,1.4c0.6,1,0.7,2.2,0.1,3.2c-0.5,1-1.6,1.6-2.7,1.7
			l-3.1,0.2l-0.4-6.3L506,228.2z M507.4,243.8l-3.7,0.2l-0.4-6.8l4.2-0.3c1.1-0.1,2.2,0.5,2.8,1.4c0,0.1,0.1,0.1,0.1,0.2
			C511.6,240.9,509.9,243.6,507.4,243.8z"/>
	</g>
	<path class="st25" d="M490.3,264.7c-5-1.5-9.2-3.8-12.2-6.5c-3.2-2.9-5-6.4-5-10.1c0-2,0.5-3.9,1.5-5.7"/>
	<path class="st25" d="M509.9,266.4c-1.8,0.2-3.7,0.3-5.6,0.3c-1.2,0-2.5,0-3.7-0.1"/>
	<path class="st25" d="M533.7,254.4c-2.5,4.2-7.5,7.6-13.8,9.8"/>
</g>
<path class="st25" d="M332.2,246.1c-4.8,0-4.8-4.8-9.7-4.8c-4.8,0-4.8,4.8-9.7,4.8c-4.8,0-4.8-4.8-9.7-4.8c-4.8,0-4.8,4.8-9.7,4.8
	c-4.8,0-4.8-4.8-9.7-4.8s-4.8,4.8-9.7,4.8"/>
<path class="st25" d="M218,258.2c-4.8,0-4.8-4.8-9.7-4.8c-4.8,0-4.8,4.8-9.7,4.8c-4.8,0-4.8-4.8-9.7-4.8c-4.8,0-4.8,4.8-9.7,4.8
	c-4.8,0-4.8-4.8-9.7-4.8s-4.8,4.8-9.7,4.8"/>
<path class="st25" d="M101.4,249.5c-4.8,0-4.8-4.8-9.7-4.8c-4.8,0-4.8,4.8-9.7,4.8c-4.8,0-4.8-4.8-9.7-4.8c-4.8,0-4.8,4.8-9.7,4.8
	c-4.8,0-4.8-4.8-9.7-4.8s-4.8,4.8-9.7,4.8"/>
<path class="st25" d="M1458,236.9c-4.8,0-4.8-4.8-9.7-4.8c-4.8,0-4.8,4.8-9.7,4.8c-4.8,0-4.8-4.8-9.7-4.8c-4.8,0-4.8,4.8-9.7,4.8
	c-4.8,0-4.8-4.8-9.7-4.8c-4.8,0-4.8,4.8-9.7,4.8"/>
<path class="st25" d="M432.3,259.5c-4.8,0-4.8,4.8-9.7,4.8c-4.8,0-4.8-4.8-9.7-4.8c-4.8,0-4.8,4.8-9.7,4.8c-4.8,0-4.8-4.8-9.7-4.8
	s-4.8,4.8-9.7,4.8"/>
<path class="st25" d="M1160.6,243.7c-4.8,0-4.8,4.8-9.7,4.8c-4.8,0-4.8-4.8-9.7-4.8c-4.8,0-4.8,4.8-9.7,4.8c-4.8,0-4.8-4.8-9.7-4.8
	c-4.8,0-4.8,4.8-9.7,4.8"/>
<path class="st25" d="M1604.8,249.9c-4.8,0-4.8,4.8-9.7,4.8c-4.8,0-4.8-4.8-9.7-4.8c-4.8,0-4.8,4.8-9.7,4.8c-4.8,0-4.8-4.8-9.7-4.8
	c-4.8,0-4.8,4.8-9.7,4.8"/>
<path class="st25" d="M1291.9,249.9c-4.8,0-4.8,4.8-9.7,4.8c-4.8,0-4.8-4.8-9.7-4.8c-4.8,0-4.8,4.8-9.7,4.8c-4.8,0-4.8-4.8-9.7-4.8
	c-4.8,0-4.8,4.8-9.7,4.8"/>
<g>
	<path class="st29" d="M1081.7,102.9c0,0-9.4,15.8-14.6,28.9c-0.9,2.2-1.8,4-2.8,5.3c-4.7,6.8-10,4.3-10,4.3c-2.1-0.4-3.6-1.5-4.6-3
		c0,0,0,0,0,0c-3.2-4.7-1.5-13.6,3.2-21.6c0,0,0.3-1.5,11.8-11c11.5-9.5,14.2-18.5,14.2-18.5L1081.7,102.9z"/>
	<path class="st14" d="M1079.7,91.1c-1.6,3.3-5.4,9.5-13.2,16c-11.5,9.5-11.8,11-11.8,11c-5,8.5-6.6,18.1-2.6,22.4
		c-6.1-3.4-4.7-14.3,0.9-23.8c0,0,0.3-1.5,11.8-11c11.5-9.5,14.2-18.5,14.2-18.5L1079.7,91.1z"/>
	<path class="st30" d="M1079,87.2c0,0-2.7,9-14.2,18.5s-11.8,11-11.8,11c-6.2,10.6-7.2,22.8,1.4,24.6c0,0,7.6,3.5,12.7-9.6
		c5.1-13.2,14.6-28.9,14.6-28.9L1079,87.2z"/>
	<path class="st18" d="M1070.6,110.7c0,0-5.8-7.3-14.2-7.5c-6.1,3.5-10,13.7-6.8,20.8c1.8-6.6,10.4-3.2,15.9,3.6"/>
	<path class="st30" d="M1070.6,110.7c0,0-5.8-7.3-14.2-7.5c-6.1,3.5-10,13.7-6.8,20.8c1.8-6.6,10.4-3.2,15.9,3.6"/>
	<polyline class="st10" points="1059.1,104.9 1064.8,99.9 1059.4,99.9 1058.3,95.8 1055.2,98.5 1051.7,96.6 1052.4,103.7 	"/>
	<path class="st20" d="M1048.4,109.4c-0.6,4.7,2.1,7.2,5.5,7.5s6.6-3,7-6.8c0.4-3.8-2.1-6.6-5.6-7S1048.9,105.7,1048.4,109.4z"/>
	<path class="st6" d="M1060.9,110.2c-0.4,3.8-3.6,7.1-7,6.7c-2.9-0.3-5.3-2.1-5.6-5.6c1,1.2,2.5,1.9,4.2,2c3.5,0.4,6.6-3,7-6.8
		c0-0.4,0.1-0.9,0-1.3C1060.6,106.6,1061.1,108.3,1060.9,110.2z"/>
	<path class="st14" d="M1060.7,107.4c-1-1.1-2.5-1.9-4.1-2.1c-0.7-0.1-1.4,0-2,0.2c0,1.4-1.4,2.2-2.7,1.6c-1.1,1.1-1.9,2.7-2.2,4.5
		c-0.2,1.4-0.1,2.5,0.2,3.5c-1.1-1.3-1.7-3.1-1.4-5.6c0.5-3.8,3.5-6.6,7-6.2C1057.9,103.5,1059.9,105.1,1060.7,107.4z"/>
	<path class="st31" d="M1048.4,109.4c-0.6,4.7,2.1,7.2,5.5,7.5s6.6-3,7-6.8c0.4-3.8-2.1-6.6-5.6-7S1048.9,105.7,1048.4,109.4z"/>
	<polyline class="st31" points="1059.1,104.9 1064.8,99.9 1059.4,99.9 1058.3,95.8 1055.2,98.5 1051.7,96.6 1052.4,103.7 	"/>
	<path class="st29" d="M1167.9,141.4c0,0-5.5,2.6-10.3-4.9c-0.8-1.3-1.6-2.8-2.4-4.7c-5.1-13.2-14.6-28.9-14.6-28.9l2.7-15.6
		c0,0,2.7,9,14.2,18.5c11.5,9.5,11.8,11,11.8,11c0.9,1.5,1.7,3.1,2.3,4.6C1175.7,130.7,1175.3,139.9,1167.9,141.4z"/>
	<path class="st30" d="M1143.4,87.2c0,0,2.7,9,14.2,18.5c11.5,9.5,11.8,11,11.8,11c6.2,10.6,7.2,22.8-1.4,24.6c0,0-7.6,3.5-12.7-9.6
		s-14.6-28.9-14.6-28.9L1143.4,87.2z"/>
	<path class="st18" d="M1151.7,110.7c0,0,5.8-7.3,14.2-7.5c6.1,3.5,10,13.7,6.8,20.8c-1.8-6.6-10.4-3.2-15.9,3.6"/>
	<path class="st30" d="M1151.7,110.7c0,0,5.8-7.3,14.2-7.5c6.1,3.5,10,13.7,6.8,20.8c-1.8-6.6-10.4-3.2-15.9,3.6"/>
	<path class="st29" d="M1109.1,169.8l-2,17.7h-25.7c0,0,1.9-3.4,5-5.8c0,0-1.3-8.4-2.5-14.2c-0.3-1.3-0.6-2.5-0.8-3.5L1109.1,169.8z
		"/>
	<path class="st29" d="M1140.9,187.5h-25.7l-1.8-15.3l-0.3-2.4l26-5.8c-1.5,5-3.3,17.7-3.3,17.7
		C1139,184.1,1140.9,187.5,1140.9,187.5z"/>
	<path class="st18" d="M1090.8,56.7l-5.1,8.8l-4.9,8.5c-16.1-7.2-13.8-31.3,1-32.7c0.7-0.1,1.3,0.4,1.5,1c0.1,0.2,0.1,0.4,0,0.6
		C1081.9,51,1085.5,54.6,1090.8,56.7z"/>
	<path class="st6" d="M1090.8,56.7l-5.1,8.8c-2.3,2.1-4,3.5-4,3.5s1.2-6.9-1.4-13.5c-2.6-6.6,2.4-13.4,2.4-13.4l0.7,0.1
		c0.1,0.2,0.1,0.4,0,0.6C1081.9,51,1085.5,54.6,1090.8,56.7z"/>
	<path class="st14" d="M1079.5,73.3c-14.7-7.8-12.2-30.8,2.3-32.1c0.8-0.1,1.5,0.6,1.6,1.3C1070,44.3,1067.3,64.6,1079.5,73.3z"/>
	<path class="st18" d="M1131.5,56.7c5.3-2.1,8.9-5.7,7.5-13.8c-0.2-0.9,0.6-1.7,1.6-1.7c14.9,1.4,17.1,25.5,1,32.7"/>
	<path class="st6" d="M1141.6,73.9l-2.2-3.8c10.5-7.3,10.2-23,1.8-28.8C1155.4,43.3,1157.4,66.8,1141.6,73.9z"/>
	<path class="st14" d="M1133.4,57.6l9.2,15.8c-0.4,0.2-0.7,0.4-1.1,0.5l-10.1-17.2c5.3-2.1,8.9-5.7,7.5-13.8
		c-0.2-0.9,0.6-1.7,1.6-1.7c1.9,0.2,3.6,0.7,5,1.5c-1-0.3-2-0.6-3.1-0.7c-0.9-0.1-1.7,0.7-1.6,1.7
		C1142.3,51.9,1138.7,55.5,1133.4,57.6z"/>
	<path class="st29" d="M1121.3,51.7c13,3.8,19.7,13,20.9,26.9c0.7,10.6,4.1,20.5,8.6,30.2c13.5,26.4,7.9,61.1-39.6,61.1h0
		c-47.6,0-53.1-34.7-39.6-61.1c4.5-9.7,7.9-19.6,8.6-30.2c1.2-13.8,7.8-23,20.9-26.9c2.6-3.6,6-7.3,10.2-11l-3.6,10
		c0,0,7.8-4.6,14.6-6l-6.8,6.4c0,0,5-1.9,8.3-1.6L1121.3,51.7z"/>
	<path class="st6" d="M1111.2,169.8L1111.2,169.8c-17.2,0-29-4.5-36.3-11.6c6,2.4,13.2,4.1,22,4.9h0c49.1,4.4,57.7-27.9,46-54.1
		c-3.8-9.6-6.5-19.2-6.3-29.3c-0.1-11.9-4-22.3-14.5-27.7c12.5,4,18.9,13.1,20.1,26.6c0.7,10.6,4.1,20.5,8.6,30.2
		C1164.3,135.1,1158.7,169.8,1111.2,169.8z"/>
	<path class="st14" d="M1109.6,45.1c-2.9,2.8-5.3,5.5-7.2,8.3c-13,3.8-19.7,13-20.9,26.9c-0.7,10.6-4.1,20.5-8.6,30.2
		c-7.9,15.4-9.3,33.7,0.4,46.2c-11.2-12.5-10-31.7-1.8-47.8c4.5-9.7,7.9-19.6,8.6-30.2c1.2-13.8,7.8-23,20.9-26.9
		c2.6-3.6,6-7.3,10.2-11L1109.6,45.1z"/>
	<path class="st14" d="M1119,47.7c-5.3,1.9-10,4.7-10,4.7l1.1-3c2.9-1.5,7.7-3.7,12.1-4.7L1119,47.7z"/>
	<path class="st14" d="M1123.7,49.5l-2,1.9c-2.5,0.4-4.8,1.3-4.9,1.3l3.1-2.9C1121.2,49.5,1122.5,49.4,1123.7,49.5z"/>
	<g>
		<circle class="st8" cx="1111" cy="83.8" r="22"/>
		<path class="st6" d="M1132.4,83.3c0,12.1-9.8,22-22,22c-10.9,0-20-8-21.7-18.5c2.6,8.6,10.5,14.9,20,14.9
			c11.5,0,20.8-9.3,20.8-20.8c0-6.9-3.3-13-8.5-16.8C1127.8,67.8,1132.4,75,1132.4,83.3z"/>
		<circle class="st30" cx="1111" cy="83.8" r="22"/>
		<path class="st24" d="M1123.9,83.8c0,7.1-5.8,12.9-12.9,12.9c-7.1,0-12.9-5.8-12.9-12.9S1103.9,71,1111,71c2.3,0,4.4,0.6,6.3,1.6
			c-0.2,0-0.5-0.1-0.7-0.1c-2.4,0-4.4,2-4.4,4.4c0,2.4,2,4.4,4.4,4.4s4.4-2,4.4-4.4c0-0.5-0.1-1.1-0.3-1.5
			C1122.7,77.7,1123.9,80.6,1123.9,83.8z"/>
	</g>
	<path class="st24" d="M1095,112.6c0,21.4,31.9,21.4,31.9,0C1116.9,115.1,1104.3,115.2,1095,112.6z"/>
	<path class="st8" d="M1105.6,114.4l0.3,1.9c0.3,1.8,1.8,3.1,3.6,3.2c0.9,0,1.9,0,2.8,0c1.8,0,3.3-1.4,3.6-3.2l0.3-1.9"/>
	<path class="st32" d="M1120.9,125.4c-5.5-4.5-14.6-4.5-19.9,0C1107.6,129.7,1114.3,129.8,1120.9,125.4z"/>
	<path class="st31" d="M1095,112.6c0,21.4,31.9,21.4,31.9,0C1116.9,115.1,1104.3,115.2,1095,112.6z"/>
	<path class="st30" d="M1090.8,56.7c-5.3-2.1-8.9-5.7-7.5-13.8c0.2-0.9-0.6-1.7-1.6-1.7c-14.9,1.4-17.1,25.5-1,32.7"/>
	<path class="st30" d="M1109.1,169.8l-2,17.7h-25.7c0,0,1.9-3.4,5-5.8c0,0-1.9-12.7-3.3-17.7"/>
	<path class="st30" d="M1121.3,51.7c13,3.8,19.7,13,20.9,26.9c0.7,10.6,4.1,20.5,8.6,30.2c13.5,26.4,7.9,61.1-39.6,61.1h0
		c-47.6,0-53.1-34.7-39.6-61.1c4.5-9.7,7.9-19.6,8.6-30.2c1.2-13.8,7.8-23,20.9-26.9c2.6-3.6,6-7.3,10.2-11l-3.6,10
		c0,0,7.8-4.6,14.6-6l-6.8,6.4c0,0,5-1.9,8.3-1.6L1121.3,51.7z"/>
	<path class="st30" d="M1131.5,56.7c5.3-2.1,8.9-5.7,7.5-13.8c-0.2-0.9,0.6-1.7,1.6-1.7c14.9,1.4,17.1,25.5,1,32.7"/>
	<path class="st30" d="M1113.2,169.8l2,17.7h25.7c0,0-1.9-3.4-5-5.8c0,0,1.9-12.7,3.3-17.7"/>
	<path class="st6" d="M1109.1,169.8l-2,17.7h-25.2c1.5-0.3,3.3-0.5,5.5-0.5c18.8,0.2,19.2-12.1,11.2-13.3
		c-7.9-1.2-14.3-6.1-14.5-6.2c-0.3-1.3-0.6-2.5-0.8-3.5C1090.8,167.9,1099.5,169.7,1109.1,169.8z"/>
	<path class="st33" d="M1113.4,168.7c-0.1,0-0.1,0-0.1,0S1113.3,168.7,1113.4,168.7z"/>
	<path class="st6" d="M1130.2,182.1c0.1-1.8,3.7-10-2.2-9.5c-5.9,0.5-13.8,0.5-13.8,0.5l-0.8-0.9l-0.3-2.4c9.6-0.1,18.3-2,26-5.8
		c-1.5,5-3.3,17.7-3.3,17.7c3.1,2.4,5,5.8,5,5.8H1119c0.4-0.5,1.5-0.8,3.3-0.8C1131.4,187,1130.2,184,1130.2,182.1z"/>
	<polyline class="st10" points="1163.2,104.9 1157.6,99.9 1163,99.9 1164,95.8 1167.1,98.5 1170.7,96.6 1170,103.7 	"/>
	<path class="st20" d="M1174,109.4c0.6,4.7-2.1,7.2-5.5,7.5s-6.6-3-7-6.8c-0.4-3.8,2.1-6.6,5.6-7
		C1170.5,102.9,1173.5,105.7,1174,109.4z"/>
	<path class="st6" d="M1168.5,116.9c-3,0.3-5.8-2.2-6.7-5.3c1.3,1.3,2.9,2.1,4.7,1.9c3.5-0.4,6.1-2.8,5.5-7.5
		c-0.1-0.4-0.1-0.7-0.2-1.1c1.2,1.1,2,2.7,2.2,4.5C1174.6,114.1,1171.9,116.6,1168.5,116.9z"/>
	<path class="st14" d="M1172.1,105.2c-1-0.5-2.2-0.8-3.4-0.7c-0.9,0.1-1.7,0.3-2.4,0.7c0.6,1.5-1.2,3.2-2.5,2.5
		c-0.6,1.1-0.8,2.3-0.7,3.7c0.2,1.8,1,3.5,2.2,4.7c-2-1.1-3.6-3.5-3.8-6.1c-0.4-3.8,2.1-6.6,5.6-7
		C1169,103,1170.8,103.8,1172.1,105.2z"/>
	<path class="st31" d="M1174,109.4c0.6,4.7-2.1,7.2-5.5,7.5s-6.6-3-7-6.8c-0.4-3.8,2.1-6.6,5.6-7
		C1170.5,102.9,1173.5,105.7,1174,109.4z"/>
	<polyline class="st31" points="1163.2,104.9 1157.6,99.9 1163,99.9 1164,95.8 1167.1,98.5 1170.7,96.6 1170,103.7 	"/>
	<path class="st6" d="M1067,107.3c-0.7,11.5-5.7,14-12.6,12.7c0,0,10.1,6.5,10.1,6.4c-0.1-0.1,5.3-16.5,5.3-16.5"/>
	<path class="st6" d="M1064.9,126.8c0,0-0.4,5.7-0.5,10.3c-4.7,6.8-10,4.3-10,4.3c-2.1-0.4-3.6-1.5-4.6-3c5.9,2.9,12.1-1.8,10.2-6.4
		c-1.9-4.8-1.2-9.3-1.2-9.3l2.1,1.4L1064.9,126.8z"/>
	<path class="st6" d="M1167.9,141.4c0,0-5.5,2.6-10.3-4.9v-6.6c6,10.2,16.5,4.3,9.9-9.4l3.6,0.4c0,0,0.2,0.2,0.5,0.5
		C1175.7,130.7,1175.3,139.9,1167.9,141.4z"/>
</g>
<g>
	
		<rect x="1436.6" y="53.9" transform="matrix(0.9022 0.4313 -0.4313 0.9022 183.5656 -611.0864)" class="st34" width="5.2" height="90.6"/>
	
		<rect x="1436.6" y="53.9" transform="matrix(0.9022 0.4313 -0.4313 0.9022 183.5656 -611.0864)" class="st35" width="5.2" height="90.6"/>
	<path class="st15" d="M1463.4,38.9c3.1-5,6.2-4.8,4,1.6"/>
	<g>
		<path class="st34" d="M1475.9,93.9l-2.2-2.1l-0.9-0.3l-4.3-1.4l-61.3-20c-1.8-0.6-3.8,0.2-4.8,1.8l-34.4,60l-73.4,29.9v6.4
			l70.5,25.7l72.1-27.7c2.3-0.9,4.2-2.5,5.3-4.7l34-63.5C1477.3,96.6,1477.1,94.9,1475.9,93.9z M1413.6,80.9l47.1,16.4l-6.6,12.7
			l-45.6-18.9L1413.6,80.9z M1400.8,95.5l50.3,20.3l-7,13.5l-48.9-22.5L1400.8,95.5z M1391.9,113.4l49.3,21.4l-3,5.7l-3,5.7
			l-3.6-1.7l-44.8-21.2L1391.9,113.4z"/>
		<path class="st6" d="M1472.8,91.6v1.9c0,0-31.5,62.2-34.1,64.6c-2.7,2.5-4.1,1.8-4.1,1.8l-17.7-6.9l-34.5-9.6l4.5-8
			c16.2,11.9,31.2,15.6,44.8,9.1l3.6,1.7l3-5.7c11.3-8.5,21.4-24.9,30.2-50.4L1472.8,91.6z"/>
		<path class="st6" d="M1435,160.1l-0.7,1.9l-68.1,24.3l-1.2,0.2l-68.3-24.3l1.9-2.3c36.2,13.9,72.1,18.9,107.4,8.2
			c0.1,0,0.1,0,0.2-0.1c2.6-0.8,5.3-1.7,7.9-2.7l-4.1,1.4c11.5-4.2,14.7-8.9,3.1-14.3h1.8l14.8,6h0c0.2-0.1,0.4-0.2,0.6-0.3
			L1435,160.1z"/>
		<path class="st36" d="M1365.2,193.9l72.1-27.7c2.3-0.9,4.2-2.5,5.3-4.7l34-63.5c0.7-1.3,0.4-3-0.7-4l-2.2-2.1l-66.4-21.7
			c-1.8-0.6-3.8,0.2-4.8,1.8l-34.4,60l-73.4,29.9v6.4L1365.2,193.9z"/>
		<line class="st36" x1="1436.6" y1="160.4" x2="1399.3" y2="146.2"/>
		<line class="st36" x1="1413.3" y1="80.8" x2="1408.9" y2="91.2"/>
		<polygon class="st36" points="1391.9,113.4 1441.2,134.8 1435.3,146.2 1387,123.3 		"/>
		<polygon class="st36" points="1451.2,115.7 1444.2,129.2 1395.3,106.7 1400.8,95.5 		"/>
		<polygon class="st36" points="1460.7,97.3 1454.1,110 1403.8,89.4 1408.9,79.3 		"/>
		<path class="st34" d="M1438.5,165.6l0.3,6.8c0.1,2.7-2.5,4.8-5.1,4l-13.3-3.7l6.9-2.7l6.5,1.7l-0.2-4.2l3.4-1.3"/>
		<path class="st34" d="M1295.2,183.2l55.7,20.1c3.4,1.2,7.1-0.4,8.5-3.7l2.9-6.8l-6.3-2.3l-3,6.9l-53.7-18.9l2.7-7.7l-5.8-2.1
			l-3.3,9.7C1292.2,180.4,1293.2,182.5,1295.2,183.2z"/>
		<path class="st36" d="M1294.7,161.8l70.6,24.7l69-24.9c2.2-0.8,4-2.3,5-4.4l34.4-65.4"/>
		<path class="st36" d="M1438.5,165.6l0.3,6.8c0.1,2.7-2.5,4.8-5.1,4l-13.3-3.7l6.9-2.7l6.5,1.7l-0.2-4.2l3.4-1.3"/>
		<path class="st36" d="M1295.2,183.2l55.7,20.1c3.4,1.2,7.1-0.4,8.5-3.7l2.9-6.8l-6.3-2.3l-3,6.9l-53.7-18.9l2.7-7.7l-5.8-2.1
			l-3.3,9.7C1292.2,180.4,1293.2,182.5,1295.2,183.2z"/>
		<line class="st36" x1="1365.3" y1="186.6" x2="1365.3" y2="193.9"/>
		<path class="st37" d="M1409.9,166.8c-1.2,0.4-2.4,0.8-3.7,1.3L1409.9,166.8z"/>
		<polyline class="st6" points="1412.8,81.2 1409.3,79.5 1407.6,83.7 1407.2,85.8 1409.6,88.1 1411.1,85.7 		"/>
		<path class="st6" d="M1294.7,175.2c0,0,3.7-2.9,5.3,1.2l2-5.6l-5.8-2.1"/>
		<path class="st6" d="M1354,195.2c3.2-0.9,4.8,0.5,5,4.2l2.2-6.2l-5.2-1.7"/>
		<path class="st6" d="M1431.2,171.1c0,0-2.1,1.9-0.9,4.4l-8-2.9l5.9-2"/>
	</g>
	<g>
		<path class="st38" d="M1313.4,125.7c3.9,2,7.5,1.7,7.5,1.7s3.5-3.7,3.5-4.1s9.6-14,0.8-12.4c-8.8,1.5-12.2-3.1-12.2-3.1l-1.1,13.7
			l2.2,3.3L1313.4,125.7z"/>
		<path class="st38" d="M1423,138c0.2,1.6,0.5,4.9-0.8,8.7l-1.7-1.3c0,0-1.5,5-9.9,8.2l0.3-2.5c0,0-4.1,3-10.9,2.2
			c-1.1-0.1-1.7-1-1.9-2.3v0c-1-6.8,8.9-26.1,19.2-28.5c0,0,6,3.7,7.3,14.5h-1.9C1422.8,136.9,1422.9,137.3,1423,138z"/>
		<path class="st6" d="M1422.2,146.7l-1.7-1.3c0,0-1.5,5-9.9,8.2l0.3-2.5c0,0-4.1,3-10.9,2.2c-1.1-0.1-1.7-1-1.9-2.3v0
			c1.5-9.1,4.8-8.8,4.8-8.8l4.7-2.7l3.7,0.4c-2.9,7.4,5.8,1.3,5.8,1.3v1.7c3.6-2.9,3.5-7.4,3.5-7.4l1.6,2.6l0.9,0
			C1423.2,139.6,1423.4,142.9,1422.2,146.7z"/>
		<path class="st36" d="M1312.9,107.8c0,0,3.4,4.6,12.2,3.1c8.8-1.5-0.8,12-0.8,12.4s-3.5,4.1-3.5,4.1s-3.5,0.4-7.5-1.7"/>
		<path class="st36" d="M1417.3,122.4c0,0,6,3.7,7.3,14.5h-1.9c0,0,1.2,4.4-0.6,9.8l-1.7-1.3c0,0-1.5,5-9.9,8.2l0.3-2.5
			c0,0-4.1,3-10.9,2.2C1393.3,152.4,1405,125.3,1417.3,122.4z"/>
		<path class="st38" d="M1417.2,121.4c0,0.3,0.6,6.2,0.6,6.2l-2.8-1c0,5.2-3.6,12.7-3.6,12.7l-3.5-0.6c0,0-2.5,6.9-5.3,11.4
			c-2.8,4.5-4.3,9.5-4.3,9.5c-1.7-3-4.8-2.8-4.8-2.8c-2.7,4.2-6.1,7.6-7.5,12.9c-2.7-1.5-3.7-4.2-3.7-4.2c-6,3.5-16.2,4.4-16.2,4.4
			s-1.1,0.8-5.1,4.8c-4,4-10.5,3-14.4-2.3c-0.8-1-1.2-2-1.4-2.9c-1-3.7,1.7-6.3,1.7-6.3c-5.5-2.6-9.9-5.7-9.9-5.7s-4.2,3.9-6.4,5.8
			c-2.2,1.9-7.4,2.9-11.8-1.2c-0.9-0.8-1.6-1.6-2.2-2.4c-2.5-3.3-2.8-6.6-0.9-8.9c2.3-2.8,8.2-7.9,8.2-7.9c-6.2-9.1-3-26.2-3-26.2
			l-1.7-1.9c4.5-4.2,8.5-8.7,11.5-13.6l-2.1-1.3c7.1-8.6,14.6-16.1,23-21.3l-1.8-2.6l5-1.1l-1.4-4.3c6.8,1.3,14.6,1.9,22.9,2
			l-1.5-3.4l12.5,6.2l0.7-6.2l4.7,6.8c9.5-0.3,13.6,2.7,13.6,2.7l-7.5,3c3.5-0.2,9.2,2.3,9.2,2.3l-1.6,2.4
			c5.6,3.8,9.3,8.3,11.5,13.4c0.1,0.2,0.2,0.4,0.3,0.6l-3.6-0.2c2,2.3,3.1,7.4,3.9,13c0.8,5.5,3.5,8.3,3.5,8.3
			S1417.2,121.6,1417.2,121.4z"/>
		<path class="st6" d="M1336.8,157v0.3c0,0-4.2,3.9-6.4,5.8c-2.2,1.9-7.4,2.9-11.8-1.2c-0.9-0.8-1.6-1.6-2.2-2.4
			c0.4,0.2,0.7,0.5,1.1,0.9c7.7,6.7,7.2-4,7.2-4l4.8-4.5c0.7-0.6,1.7-0.6,2.4,0L1336.8,157z"/>
		<path class="st6" d="M1417.2,121.4c0,0.3,0.6,6.2,0.6,6.2l-2.8-1c0,5.2-3.6,12.7-3.6,12.7l-3.5-0.6c0,0-2.5,6.9-5.3,11.4
			c-2.8,4.5-4.3,9.5-4.3,9.5c-1.7-3-4.8-2.8-4.8-2.8c-2.7,4.2-6.1,7.6-7.5,12.9c-2.7-1.5-3.7-4.2-3.7-4.2c-6,3.5-16.2,4.4-16.2,4.4
			s-1.1,0.8-5.1,4.8c-4,4-10.5,3-14.4-2.3c-0.8-1-1.2-2-1.4-2.9c0.3,0.1,0.6,0.3,0.8,0.6c6.6,5.7,8.6,0.8,10.8-1.2
			c2.2-2.1,6.5-8.2,6.5-8.2c29.4-1.5,34-24.5,39.4-33.2c5.4-8.7,7-11.6,7-11.6s4.9,2,4.9-4.7c0-6.6-3.1-11.7-3.1-11.7l3.1,0.9
			c2,2.3,3.1,7.4,3.9,13c0.8,5.5,3.5,8.3,3.5,8.3S1417.2,121.6,1417.2,121.4z"/>
		<path class="st3" d="M1351.3,78.6l1.7,2.5c-8.4,5.2-15.9,12.7-23,21.3l2.1,1.3c-3,4.9-7,9.3-11.5,13.6l1.7,1.9
			c0,0-3.2,17.1,3,26.2c0,0-6,5.1-8.3,7.9c-1.4,1.7-1.6,4.1-0.4,6.6c-2.7-3.4-3-6.8-1.2-9.1c2.3-2.8,8.2-7.9,8.2-7.9
			c-6.2-9.1-3-26.2-3-26.2l-1.7-1.9c4.5-4.2,8.5-8.7,11.5-13.6l-2.1-1.3C1335.5,91.3,1343,83.8,1351.3,78.6z"/>
		<path class="st3" d="M1403.9,79.5c-2.2-0.6-5.4-1.1-9.6-1l-4.7-6.8l-0.7,6.2l-12.5-6.2l1.6,3.4c-8.3-0.1-16.1-0.6-22.9-2l1.4,4.3
			l-4.9,1.1l-1.8-2.6l5-1.1l-1.4-4.3c6.8,1.3,14.6,1.9,22.9,2l-1.5-3.4l12.5,6.2l0.7-6.2l4.7,6.8c9.5-0.3,13.6,2.7,13.6,2.7
			L1403.9,79.5z"/>
		<path class="st3" d="M1404.3,82.5c2,0.6,3.6,1.3,3.6,1.3l-1,1.6c-1.9-0.7-4.6-1.4-6.6-1.3L1404.3,82.5z"/>
		<path class="st3" d="M1421.8,121.4c0,0,0,0-0.1,0c-0.1-0.1-0.1-0.3-0.2-0.4C1421.7,121.3,1421.8,121.4,1421.8,121.4z"/>
		<path class="st3" d="M1351.5,78.5L1351.5,78.5c0,0.1-0.1,0.1-0.1,0.1l-0.1-0.1L1351.5,78.5z"/>
		<path class="st36" d="M1392.6,75.9l-4.7-6.8l-0.7,6.2l-12.5-6.2l1.6,3.4c-8.3-0.1-16-0.7-22.9-2l1.3,4.2l-5,1.1l1.8,2.6
			c-8.4,5.3-15.9,12.7-23,21.3l2.1,1.3c-3,4.9-7,9.3-11.5,13.6l1.7,1.9c0,0-3.2,17.1,3,26.2c0,0-6,5.1-8.3,7.9s-1.3,7.2,3.1,11.3
			c4.4,4.1,9.6,3,11.8,1.2c2.2-1.9,6.4-5.8,6.4-5.8s4.4,3.1,9.9,5.7c0,0-4.1,3.9-0.3,9.2s10.4,6.3,14.4,2.3c4-4,5.1-4.8,5.1-4.8
			s10.2-0.9,16.2-4.4c0,0,1,2.8,3.7,4.2c1.4-5.3,4.8-8.7,7.5-12.9c0,0,3.1-0.2,4.8,2.8c0,0,1.5-5,4.3-9.5c2.8-4.5,5.3-11.4,5.3-11.4
			l3.5,0.6c0,0,3.6-7.4,3.6-12.7l2.8,1c0,0-0.6-6.4-0.6-6.2c0,0.2,4.6,0,4.6,0s-2.8-2.8-3.5-8.3s-1.9-10.7-3.9-13l3.6,0.2
			c-2.1-5.4-5.9-10.1-11.7-14l1.6-2.4c0,0-5.7-2.6-9.2-2.3l7.5-3C1406.2,78.6,1402.1,75.6,1392.6,75.9z"/>
		<ellipse transform="matrix(0.5 -0.866 0.866 0.5 597.7361 1221.4874)" class="st38" cx="1356.7" cy="93.1" rx="12" ry="9.9"/>
		<ellipse transform="matrix(0.5 -0.866 0.866 0.5 597.7361 1221.4874)" class="st35" cx="1356.7" cy="93.1" rx="12" ry="9.9"/>
		<ellipse transform="matrix(0.5 -0.866 0.866 0.5 600.2371 1253.6803)" class="st38" cx="1385.8" cy="107" rx="12" ry="9.9"/>
		<ellipse transform="matrix(0.5 -0.866 0.866 0.5 600.2371 1253.6803)" class="st35" cx="1385.8" cy="107" rx="12" ry="9.9"/>
		<g>
			<path class="st15" d="M1366.1,99.5l3.7-5.9c0.7-1.1,0.3-2.6-0.9-3.2l-17.9-8.9c-1.1-0.6-2.5-0.3-3.3,0.6c-1.3,1.5-3.4,3.9-5,6.2
				c-2.7,3.7-2.3,10.5,3.5,14.6c1.7,1.2,3.5,2,5.3,2.5C1357.1,107,1363,104.4,1366.1,99.5z"/>
			<path class="st39" d="M1369.9,93.5l-3.7,5.9c-3.1,4.9-9,7.5-14.6,6c-1.8-0.5-3.6-1.3-5.3-2.5c-1.1-0.8-2.1-1.7-2.8-2.7
				c0.4,0.3,0.8,0.7,1.2,1c1.7,1.2,3.5,2.1,5.3,2.5c5.6,1.5,11.5-1.1,14.6-6l3.7-5.9c0.3-0.5,0.4-1.2,0.3-1.7l0.4,0.2
				C1370.2,90.9,1370.6,92.4,1369.9,93.5z"/>
			<path class="st24" d="M1365.2,93.1l-0.1,0.2l0,0l-2.5,4c-1.7,2.8-4.8,4.5-7.9,4.5c-0.7,0-1.5-0.1-2.1-0.3
				c-0.4-0.1-0.7-0.2-1.1-0.3c-0.9-0.3-1.8-0.8-2.6-1.4c-0.1-0.1-0.2-0.1-0.3-0.2c-1-0.7-1.6-1.4-2.1-2.1c-0.7-1-1-2-1.1-2.8
				c-0.1-0.4-0.1-0.7-0.1-1.1c0-1.1,0.3-2.1,0.8-2.8c1.3-1.8,2.9-3.8,4.1-5.1l4.7,2.4l4.3,2.1l3.5,1.7L1365.2,93.1z"/>
			<path class="st15" d="M1411.4,121.8c-1.1,1.2-2.9,1.1-4,0l-7.8-8.6c-0.3,0.4-0.5,0.9-0.8,1.3c-2.5,3.9-6.7,6.5-11.4,6.6
				c-4,0.1-8-1-11.2-3c0,0,0,0,0,0c-0.3-0.2-0.7-0.4-1-0.6c-5.8-4.2-6.1-10.9-3.5-14.6c1.7-2.3,3.7-4.7,5-6.2
				c0.8-0.9,2.2-1.2,3.3-0.6l19,9.5c2.7,1.3,5,3.2,6.8,5.6l2.1,2.7l3.5,4.5C1412.5,119.3,1412.4,120.9,1411.4,121.8z"/>
			<path class="st24" d="M1397.3,109.1l-2,3.2c-1.8,2.9-4.8,4.6-8,4.7h-0.3c-2.3,0-4.6-0.5-6.6-1.4c-0.9-0.4-1.8-0.9-2.5-1.4
				c-0.1,0-0.1-0.1-0.2-0.1c-1.1-0.7-1.8-1.6-2.3-2.3c-0.6-0.9-0.9-1.8-1-2.6c-0.1-0.5-0.1-0.9-0.1-1.4c0-1,0.3-1.8,0.8-2.5
				c1.3-1.8,2.8-3.6,4.1-5.1l4.4,2.2l4.3,2.1l3.7,1.8l2.7,1.3L1397.3,109.1z"/>
			<path class="st15" d="M1347.2,81.3l-2-0.6c-0.8-0.2-1.6,0-2.2,0.6l0,0c-1,1.1-0.6,2.9,0.8,3.4l0.4,0.2"/>
			<path class="st40" d="M1388,104.5l-12.6,7.3c-0.6-0.9-0.9-1.8-1-2.6c-0.1-0.5-0.1-0.9-0.1-1.4l9.3-5.4L1388,104.5z"/>
			<path class="st40" d="M1394.3,107.6l-13.8,8c-0.9-0.4-1.8-0.9-2.5-1.4l13.7-7.9L1394.3,107.6z"/>
			<path class="st40" d="M1359.2,90.1l-12.7,7.3c-0.7-1-1-2-1.1-2.8c-0.1-0.4-0.1-0.7-0.1-1.1l9.6-5.6L1359.2,90.1z"/>
			<path class="st35" d="M1366.1,99.5l3.7-5.9c0.7-1.1,0.3-2.6-0.9-3.2l-17.9-8.9c-1.1-0.6-2.5-0.3-3.3,0.6c-1.3,1.5-3.4,3.9-5,6.2
				c-2.7,3.7-2.3,10.5,3.5,14.6c1.7,1.2,3.5,2,5.3,2.5C1357.1,107,1363,104.4,1366.1,99.5z"/>
			<path class="st40" d="M1365.2,93.1l-0.1,0.2l0,0l-13.6,7.8c-0.9-0.3-1.8-0.8-2.6-1.4l13.7-7.9L1365.2,93.1z"/>
			<path class="st41" d="M1365.2,93.1l-0.1,0.2l0,0l-2.5,4c-1.7,2.8-4.8,4.5-7.9,4.5c-0.7,0-1.5-0.1-2.1-0.3
				c-0.4-0.1-0.7-0.2-1.1-0.3c-0.9-0.3-1.8-0.8-2.6-1.4c-0.1-0.1-0.2-0.1-0.3-0.2c-1-0.7-1.6-1.4-2.1-2.1c-0.7-1-1-2-1.1-2.8
				c-0.1-0.4-0.1-0.7-0.1-1.1c0-1.1,0.3-2.1,0.8-2.8c1.3-1.8,2.9-3.8,4.1-5.1l4.7,2.4l4.3,2.1l3.5,1.7L1365.2,93.1z"/>
			<path class="st35" d="M1411.4,121.8L1411.4,121.8c-1.1,1.1-2.9,1.1-4-0.1l-7.8-8.6c-0.3,0.4-0.5,0.9-0.8,1.3
				c-2.5,3.9-6.7,6.5-11.4,6.6c-4.4,0.1-8.8-1.3-12.2-3.7c-5.8-4.2-6.1-10.9-3.5-14.6c1.7-2.3,3.7-4.7,5-6.2
				c0.8-0.9,2.2-1.2,3.3-0.6l19,9.5c2.7,1.3,5,3.2,6.8,5.6l5.6,7.2C1412.5,119.3,1412.4,120.9,1411.4,121.8z"/>
			<path class="st35" d="M1347.5,81.4l-2.3-0.7c-0.8-0.2-1.6,0-2.2,0.6l0,0c-1,1.1-0.6,2.9,0.8,3.4l0.4,0.2"/>
			<path class="st15" d="M1376.9,96.6c-1-3.4-4.9-4-6.9-3.3l-2.5,4.1c3.5-1.4,5.8-0.1,6.3,2.9L1376.9,96.6z"/>
			<path class="st41" d="M1397.3,109.1l-2,3.2c-1.8,2.9-4.8,4.6-8,4.7h-0.3c-2.3,0-4.6-0.5-6.6-1.4c-0.9-0.4-1.8-0.9-2.5-1.4
				c-0.1,0-0.1-0.1-0.2-0.1c-1.1-0.7-1.8-1.6-2.3-2.3c-0.6-0.9-0.9-1.8-1-2.6c-0.1-0.5-0.1-0.9-0.1-1.4c0-1,0.3-1.8,0.8-2.5
				c1.3-1.8,2.8-3.6,4.1-5.1l4.4,2.2l4.3,2.1l3.7,1.8l2.7,1.3L1397.3,109.1z"/>
			<path class="st35" d="M1376.9,96.6c-1-3.4-4.9-4-6.9-3.3l-2.5,4.1c3.5-1.4,5.8-0.1,6.3,2.9L1376.9,96.6z"/>
			<path class="st39" d="M1411.4,121.8c-1.1,1.2-2.9,1.1-4,0l-7.8-8.6c-0.3,0.4-0.5,0.9-0.8,1.3c-2.5,3.9-6.7,6.5-11.4,6.6
				c-4,0.1-8-1-11.2-3c9.5,3.4,16.8,1.8,22.2-6.8c0.6-1,2.1-1.1,2.9-0.1c1.3,1.6,3.2,3.9,4.6,5.8c2.4,3.2,4.5,1.1,2.6-2.5
				c-0.1-0.3-0.2-0.5-0.3-0.7l3.5,4.5C1412.5,119.3,1412.4,120.9,1411.4,121.8z"/>
		</g>
		<g>
			<path class="st42" d="M1374.4,142.9c11.3-3.6,11-18-2.4-22.1c-7.3-2.6-14-5.5-20-9.8c-1.3-1-2.8-1.8-4.4-2.3
				c-10.5-3.3-16,8-11.7,15.2C1345.1,139.8,1366.2,145.1,1374.4,142.9z"/>
			<path class="st3" d="M1380.5,138.6c2.8-5.7-0.2-13.5-9.5-16.4c-7.3-2.6-14-5.5-20-9.8c-1.3-1-2.8-1.8-4.4-2.3
				c-5-1.5-8.9,0.2-11.1,3.2c1.9-3.9,6.2-6.5,12-4.7c1.6,0.5,3,1.3,4.4,2.3c6,4.4,12.7,7.2,20,9.8
				C1382.1,123.9,1384.7,132.9,1380.5,138.6z"/>
			<path class="st24" d="M1370,139.2c-8.5,0-23.6-5.4-30.6-17.5c-1.2-2-1.2-4.8,0-6.9c0.7-1.2,2-2.7,4.5-2.7c0.7,0,1.5,0.1,2.4,0.4
				c1,0.3,2,0.9,3.2,1.7c6.9,5,14.5,8,21,10.4l0.2,0.1c5.6,1.7,7.6,5.3,7.6,8c0,2.8-1.9,5.1-5.1,6.1
				C1372.6,139,1371.6,139.2,1370,139.2C1370,139.2,1370,139.2,1370,139.2z"/>
			<path class="st15" d="M1371,139.2c-1.7-8.4-22.4-18.7-30.9-16.5C1345.5,132.2,1355.9,137.6,1371,139.2z"/>
			<path class="st8" d="M1369.4,130.1l0.6-5.6l-5.8,2.6v-4.8l-6.2,2.1l0.4-4.7l-5.9,2l-0.5-5.6l-5.7,1.9l0.6-5.1
				c8.7,5.6,18.2,10.3,28.4,14.2L1369.4,130.1z"/>
			<path class="st8" d="M1367.9,139.1l-1.9-4.3l-5.9,2.6l-1-5.3l-5.9,2.3l-0.7-5.9l-5.5,1.5v-5.3l-5.1,0.3
				C1341.7,125,1349.3,136.6,1367.9,139.1z"/>
			<path class="st35" d="M1374.4,142.9c11.3-3.6,11-18-2.4-22.1c-7.3-2.6-14-5.5-20-9.8c-1.3-1-2.8-1.8-4.4-2.3
				c-10.5-3.3-16,8-11.7,15.2C1345.1,139.8,1366.2,145.1,1374.4,142.9z"/>
			<path class="st41" d="M1370,139.2c-8.5,0-23.6-5.4-30.6-17.5c-1.2-2-1.2-4.8,0-6.9c0.7-1.2,2-2.7,4.5-2.7c0.7,0,1.5,0.1,2.4,0.4
				c1,0.3,2,0.9,3.2,1.7c6.9,5,14.5,8,21,10.4l0.2,0.1c5.6,1.7,7.6,5.3,7.6,8c0,2.8-1.9,5.1-5.1,6.1
				C1372.6,139,1371.6,139.2,1370,139.2C1370,139.2,1370,139.2,1370,139.2z"/>
			<path class="st41" d="M1340,122.7c8.5-2.1,29.3,8.1,30.9,16.5"/>
		</g>
		<g>
			<path class="st24" d="M1324.8,142.1c0.3,0.7,0.6,1.4,1,2.1c0.4,0.7,0.7,1.4,1.1,2c0.8,1.4,1.6,2.7,2.4,4c-1.2-1-2.3-2.1-3.4-3.3
				c-0.6-0.6-1.1-1.1-1.6-1.7c-0.5-0.6-1.1-1.2-1.6-1.8c-0.4-0.5-0.4-1.3,0.2-1.8c0.5-0.4,1.3-0.4,1.8,0.2
				C1324.7,141.9,1324.7,142,1324.8,142.1z"/>
		</g>
		<g>
			<path class="st24" d="M1346.1,162l8.3-4.2l-6.9,6.2c-0.5,0.5-1.3,0.4-1.8-0.1s-0.4-1.3,0.1-1.8C1345.9,162.1,1346,162,1346.1,162
				z"/>
		</g>
		<g>
			<path class="st24" d="M1344.3,165.9c-0.1,0-0.2,0.1-0.3,0.2c-0.1,0.1-0.1,0.2-0.1,0.2l0.1-0.1c0-0.1,0.1-0.2,0.2-0.3
				c0.1-0.2,0.2-0.4,0.4-0.7c0.3-0.4,0.7-0.9,1.1-1.3c0.5-0.4,1-0.7,1.7-0.8c0.3-0.1,0.6,0,0.9,0c0.3,0,0.5,0.1,0.8,0.2
				c1,0.4,1.7,1.1,2.3,1.8c0.6,0.7,1.2,1.5,1.7,2.2c-0.7-0.6-1.4-1.2-2.1-1.8c-0.7-0.5-1.5-1-2.3-1.1c-0.8-0.1-1.3,0.1-1.7,0.6
				c-0.2,0.3-0.4,0.6-0.5,1c-0.1,0.2-0.1,0.4-0.2,0.6c0,0.1-0.1,0.2-0.1,0.3l-0.1,0.2c0,0-0.1,0.2-0.2,0.3c-0.1,0.1-0.3,0.3-0.4,0.4
				c-0.6,0.3-1.4,0.1-1.7-0.5S1343.7,166.2,1344.3,165.9z"/>
		</g>
		<g>
			<path class="st24" d="M1313.2,152.7c0.4-0.6,0.8-1.2,1.4-1.7c0.7-0.5,1.5-0.7,2.3-0.7c1.5,0.1,2.6,0.9,3.5,1.6
				c1.9,1.5,3.4,3.3,4.8,5.1c-1.7-1.5-3.6-3-5.5-4c-1-0.5-2-0.9-2.8-0.8c-0.4,0.1-0.7,0.2-0.9,0.5c-0.2,0.3-0.4,0.7-0.6,1.1l0,0
				c-0.2,0.6-1,1-1.6,0.7c-0.6-0.2-1-1-0.7-1.6C1313.1,152.9,1313.2,152.8,1313.2,152.7z"/>
		</g>
		<g>
			<path class="st43" d="M1306.9,121.4l-3.4,2.6c-0.5,0.4-0.4,1.2,0.2,1.4c3.1,1.2,7,1.2,10,0.2c0.6-0.2,0.7-0.9,0.3-1.4l-3-3"/>
			<path class="st38" d="M1313.8,108c-2.6-2.1-7.7-2.2-11.5-0.5l1.2,1c0,0-2.3,1.9-3.6,4.5l2.2-0.8c0,0-1.8,3.8-0.9,7.3l1.3-1.1
				c0,0,1.5,3.7,7.7,3.1C1316.3,120.8,1317.5,110.9,1313.8,108z"/>
			<path class="st6" d="M1310.1,121.4c-4,0.4-6.1-1-7-2c1.1,0.3,2.4,0.5,4.2,0.3c5.8-0.6,7.2-9.4,4.3-12.8c0.9,0.3,1.6,0.7,2.2,1.2
				C1317.5,110.9,1316.3,120.8,1310.1,121.4z"/>
			<path class="st3" d="M1304,112.4c0,0-1.8,2.9-1.8,6.1l-1.1,0.9c-0.6-2.6,0.1-5.2,0.6-6.5L1304,112.4z"/>
			<path class="st3" d="M1304.7,107.9l1.1,1.1c0,0-2.5,1.6-4.1,4c0.2-0.5,0.3-0.7,0.3-0.7l-2.2,0.8c1.3-2.6,3.6-4.5,3.6-4.5l-1.2-1
				c3.8-1.7,8.9-1.6,11.5,0.5c0.1,0,0.1,0.1,0.2,0.1C1311.3,107,1307.7,106.9,1304.7,107.9z"/>
			<path class="st3" d="M1301.7,113C1301.7,113,1301.8,112.9,1301.7,113C1301.8,112.9,1301.8,113,1301.7,113L1301.7,113z"/>
			<path class="st44" d="M1313.8,108c-2.6-2.1-7.7-2.2-11.5-0.5l1.2,1c0,0-2.3,1.9-3.6,4.5l2.2-0.8c0,0-1.8,3.8-0.9,7.3l1.3-1.1
				c0,0,1.5,3.7,7.7,3.1C1316.3,120.8,1317.5,110.9,1313.8,108z"/>
			<circle class="st45" cx="1298.6" cy="92.3" r="6.1"/>
			<circle class="st41" cx="1298.6" cy="92.3" r="6.1"/>
			<circle class="st46" cx="1298.6" cy="92.3" r="3.9"/>
			<circle class="st47" cx="1298.6" cy="92.3" r="3.9"/>
			<path class="st43" d="M1322.9,92.7c0,11.4-10.2,15.4-17.4,12c-3.9-1.8-6.9-5.8-6.9-12H1322.9z"/>
			<path class="st48" d="M1322.3,97.4c-4.4-2.4-9.4,2.7-16,2.4c-2.1-0.1-3.8-1.8-6.8-2.4C1302.5,107.5,1317.8,109.2,1322.3,97.4z"/>
			<path class="st41" d="M1322.3,97.4c-4.4-2.4-9.4,2.7-16,2.4c-2.1-0.1-3.8-1.8-6.8-2.4"/>
			<path class="st17" d="M1301.9,93.1c0,0-0.3,5.8,3.6,8.1c3.9,2.3,3.9-1.1,2.7-3.8c-1.2-2.6-0.6-4.4-0.6-4.4"/>
			<path class="st35" d="M1298.6,92.7c0,17.6,24.3,17.6,24.3,0H1298.6z"/>
			<path class="st6" d="M1322.9,92.7c0,11.4-10.2,15.4-17.4,12c0.2,0,0.3-0.1,0.5-0.1c13.6-2.3,12.5-11.9,12.5-11.9H1322.9z"/>
			<path class="st35" d="M1306.9,121.4l-3.4,2.6c-0.5,0.4-0.4,1.2,0.2,1.4c3.1,1.2,7,1.2,10,0.2c0.6-0.2,0.7-0.9,0.3-1.4l-3-3"/>
		</g>
		<path class="st6" d="M1319.6,119.5c0,0-4.2,1.6-4.9-1l-2.7,3l2,2.7l-0.3,1.4l1.3,0.8l4.6,0.3"/>
	</g>
	<g>
		<path class="st8" d="M1436,88.4c-4.9,12.4,12.1,19.1,17,6.7"/>
		<path class="st6" d="M1453,95.2c-4.3,10.7-17.6,7.1-17.9-2.1c2.8,5.4,11,6.9,15.3,1.1L1453,95.2z"/>
		<path class="st15" d="M1471.8,100.9c-4.4,13-23,6.7-18.6-6.3"/>
		<path class="st6" d="M1471.8,100.9c-4,11.7-19.6,7.7-19.3-2.8c2.9,6.1,12,7.9,16.6,1.9L1471.8,100.9z"/>
		<path class="st36" d="M1471.8,100.9c-4.4,13-23,6.7-18.6-6.3"/>
		<path class="st8" d="M1490.3,103.3c-2.1,12.9-20.7,9.8-18.7-3"/>
		<path class="st6" d="M1490.3,103.3c-1.9,12.1-18.5,10.2-18.8-0.8c2.9,6.7,13.4,7.7,17,0.5L1490.3,103.3z"/>
		<path class="st36" d="M1490.3,103.3c-2.1,12.9-20.7,9.8-18.7-3"/>
		<path class="st8" d="M1402.9,68.7c-7.3,10.8,8.4,21.4,15.7,10.6"/>
		<path class="st6" d="M1418.5,79.3c-5.8,8.5-16.8,3.7-17.5-4c3,4.5,9.7,6.4,14.4,1.9L1418.5,79.3z"/>
		<path class="st15" d="M1403.1,68c-3.7,6.9-17.9,4.4-7-14.3"/>
		<path class="st6" d="M1403.1,68c-2.8,5.2-11.7,5-11-3.6c1.5,4.4,7,4.4,9.8,1.2L1403.1,68z"/>
		<path class="st36" d="M1403.1,68c-3.7,6.9-17.9,4.4-7-14.3"/>
		<path class="st15" d="M1490.7,102.6c-2,7.6,10.1,15.5,15-5.6"/>
		<path class="st6" d="M1505.7,97c-4.3,18.6-14.2,14.7-15.1,8.3c2.7,3.5,8.9,3.8,12.7-7.4L1505.7,97z"/>
		<path class="st15" d="M1418.4,79.7c-5.7,12.5,12.2,20.6,17.9,8.1"/>
		<path class="st6" d="M1436.2,87.9c-4.8,10.5-18.2,6.4-18.9-2.5c3.3,4.9,11.1,6.3,15.6,1L1436.2,87.9z"/>
		<path class="st15" d="M1505.7,97c-5.3,13.4-48.3,2.3-78.9-13.2c0,0,0,0,0,0c-19.5-9.9-34-21.6-30.6-30.1
			c13.9-18.2,42.3-24.6,68.9-14.1c9.5,3.7,17.6,9.2,24.1,15.7h0C1500.9,67,1507.2,82.3,1505.7,97z"/>
		<path class="st3" d="M1502,74c-2.9-6.1-6.9-11.8-12-16.9h0c-6.5-6.5-14.6-11.9-24.1-15.7c-26.7-10.6-55-4.1-68.9,14.1
			c-0.7,1.7-0.6,3.6,0,5.5c-1.4-2.6-1.8-5.1-0.9-7.4c13.9-18.2,42.3-24.6,68.9-14.1c9.5,3.7,17.6,9.2,24.1,15.7h0
			C1494.8,60.9,1499.1,67.3,1502,74z"/>
		<g>
			<path class="st8" d="M1464.2,39.2c0,0-16.4,17.2-28.1,49l16.8,6.6c13.2-31.2,13.1-55,13.1-55"/>
			<path class="st49" d="M1418.3,53.6c-5.1-9,5.8-14.4,17.8-10.4c13.6,12.7,28.9,19.6,46.2,20.5c0,0,8.6,10.1,0.6,17.1
				C1474.8,87.8,1433.7,76.3,1418.3,53.6z"/>
		</g>
		<path class="st8" d="M1418.9,78.9c12-22.7,28.6-35.2,44.8-39.9c-22.8-1-41.8,7.4-60.4,29.5"/>
		<path class="st8" d="M1472.2,100c6.8-24.8,3.2-45.2-5.3-59.7c17.3,14.9,25.5,34,23.8,62.9"/>
		<path class="st36" d="M1505.7,97c-8.6,21.8-118.2-21.5-109.6-43.4c13.9-18.2,42.3-24.6,68.9-14.1C1491.7,50.1,1508,74.2,1505.7,97
			z"/>
		<g>
			<path class="st35" d="M1464.2,39.2c0,0-16.4,17.2-28.1,49"/>
			<path class="st35" d="M1452.9,94.9c13.2-31.2,13.1-55,13.1-55"/>
		</g>
		<path class="st35" d="M1418.9,78.9c12-22.7,28.6-35.2,44.8-39.9c-22.8-1-41.8,7.4-60.4,29.5"/>
		<path class="st35" d="M1472.2,100c6.8-24.8,3.2-45.2-5.3-59.7c17.3,14.9,25.5,34,23.8,62.9"/>
		<path class="st36" d="M1490.7,102.6c-2,7.6,10.1,15.5,15-5.6"/>
		<path class="st36" d="M1402.9,68.7c-7.3,10.8,8.4,21.4,15.7,10.6"/>
		<path class="st36" d="M1418.4,79.7c-5.7,12.5,12.2,20.6,17.9,8.1"/>
		<path class="st36" d="M1436,88.4c-4.9,12.4,12.1,19.1,17,6.7"/>
		<path class="st6" d="M1505.7,97c-5.3,13.4-48.3,2.3-78.9-13.2c0,0,0,0,0,0c51.3,17,89.4,22.6,62.4-28.5h0
			C1500.9,67,1507.2,82.3,1505.7,97z"/>
	</g>
	<path class="st35" d="M1463.4,38.9c3.1-5,6.2-4.8,4,1.6"/>
</g>
<g>
	<path class="st50" d="M661.8,243.1c0,4.9-1.5,9.5-4.1,13.4c-10.5,6.2-28.4,6.3-39.2,0c-1.1-1.6-2-3.4-2.7-5.2
		c-0.9-2.5-1.4-5.3-1.4-8.2c0-13.1,10.6-23.7,23.7-23.7c6.1,0,11.7,2.3,15.9,6.1l0,0C658.8,229.8,661.8,236.1,661.8,243.1z"/>
	<path class="st14" d="M655.6,227c-4.1-3.4-9.3-5.4-15.1-5.4c-13.1,0-23.7,10.6-23.7,23.7c0,4.3,1.2,8.4,3.2,11.9
		c-0.5-0.2-1-0.5-1.5-0.8c-2.6-3.8-4.1-8.4-4.1-13.4c0-13.1,10.6-23.7,23.7-23.7C645,219.3,651.3,222.3,655.6,227z"/>
	<path class="st16" d="M661.8,243.1c0,4.9-1.5,9.5-4.1,13.4c-10.5,6.2-28.4,6.3-39.2,0c-2.6-3.8-4.1-8.4-4.1-13.4
		c0-13.1,10.6-23.7,23.7-23.7C651.2,219.3,661.8,230,661.8,243.1z"/>
	<path class="st6" d="M661.8,243.1c0,4.9-1.5,9.5-4.1,13.4c-10.5,6.2-28.4,6.3-39.2,0c-1.1-1.6-2-3.4-2.7-5.2
		c16.8,15.5,49.7-3.2,38.2-25.8C658.8,229.8,661.8,236.1,661.8,243.1z"/>
	<g>
		<polygon class="st51" points="642.2,224 636.1,245.6 647.4,242.4 		"/>
		<polygon class="st52" points="636.1,245.6 638.9,235.7 647.4,242.4 		"/>
		<polygon class="st53" points="642.2,224 636.1,245.6 628.2,237 		"/>
		<polygon class="st54" points="636.1,245.6 638.9,235.7 628.2,237 		"/>
		<polygon class="st55" points="646.8,244.6 635.5,247.6 633.4,255.3 		"/>
		<polygon class="st53" points="627.6,239.1 635.5,247.6 633.4,255.3 		"/>
	</g>
</g>
<g>
	<path class="st29" d="M776.7,131.8H221.4c-6.2,0-11.2-5-11.2-11.2V37.4c0-6.2,5-11.2,11.2-11.2h555.2c6.2,0,11.2,5,11.2,11.2v83.2
		C787.8,126.8,782.8,131.8,776.7,131.8z"/>
	<g>
		<path class="st8" d="M268.6,70.7l1.5,24l-9.3,0.8l-0.5-12.3l-1.9,8.4l-8.3,1.2l-3.4-8.7l1.2,10.3l-8.5,1.7l1.2-25.5l8.3-1.1
			l4.6,14.6l5.6-14.1L268.6,70.7z"/>
		<path class="st8" d="M288.4,96.2c-4.1,0-7.6-1.2-10.5-3.7c-2.9-2.5-4.3-5.5-4.3-9c0-3.5,1.4-6.5,4.3-9c2.9-2.5,6.4-3.7,10.5-3.7
			c4.1,0,7.6,1.2,10.5,3.7c2.9,2.5,4.3,5.5,4.3,9c0,3.5-1.4,6.5-4.3,9C295.9,95,292.4,96.2,288.4,96.2z M291.8,86.7
			c1.2-1.1,1.9-2.4,1.9-3.9c0-1.5-0.6-2.8-1.9-3.9c-1.2-1.1-2.7-1.6-4.5-1.6c-1.8,0-3.3,0.5-4.5,1.6c-1.2,1.1-1.9,2.4-1.9,3.9
			c0,1.5,0.6,2.8,1.9,3.9c1.2,1.1,2.7,1.6,4.5,1.6C289.1,88.3,290.6,87.7,291.8,86.7z"/>
		<path class="st8" d="M315.6,83.5l1.8,10.4l-9.1,2.3l-1.8-23.9l9.1-1.6l9,11.9l0.1-11.9l11.3-1.2l-4,26.6l-7.2,1.1L315.6,83.5z"/>
		<path class="st8" d="M344.9,86.1c-4.4-0.6-6.3-3.3-5.8-8.2c0.5-4.8,6.1-7.7,16.9-8.6l1.5,8.2c-5.3-0.1-8.2,0.5-8.6,1.9
			c-0.4,1.4,1.6,2.2,6.1,2.4c4.5,0.2,6.6,2.9,6.5,8.1c-0.1,5.2-6,8-17.6,8.4l-3.2-8.6c6,0.6,9.2,0.3,9.8-0.9
			C351.2,87.7,349.3,86.8,344.9,86.1z"/>
		<path class="st8" d="M376.2,78.5l0.9,15.5l-9.9,2.5l1.7-18.5l-7.4-0.6l0.6-6.7l21.3-1.3l0.8,9.9L376.2,78.5z"/>
		<path class="st8" d="M405.7,67.5l0.5,9.6l-11.3,1.2l0.1,2.2l7.4-0.7l0.7,6.6l-7.7,0.6l0.1,1.8l11-0.8l1.6,8.3L386.4,97l2.2-26.2
			L405.7,67.5z"/>
		<path class="st8" d="M421.6,94.7l-10.1,1.4l2.1-27.2c15.6,1.2,23.7,4.3,24.2,9.4c0.5,5.1-2.2,8.6-8.1,10.6l7.3,3.9l-7.5,6.6
			L421,88.9L421.6,94.7z M420.4,76.7l0.3,4.9c6.1,0,9.1-0.6,9.1-1.8C429.7,78.6,426.6,77.6,420.4,76.7z"/>
		<path class="st8" d="M460.2,86.1c-4.4-0.6-6.3-3.3-5.8-8.2c0.5-4.8,6.1-7.7,16.9-8.6l1.5,8.2c-5.3-0.1-8.2,0.5-8.6,1.9
			c-0.4,1.4,1.6,2.2,6.1,2.4c4.5,0.2,6.6,2.9,6.5,8.1c-0.1,5.2-6,8-17.6,8.4l-3.2-8.6c6,0.6,9.2,0.3,9.8-0.9
			C466.5,87.7,464.6,86.8,460.2,86.1z"/>
		<path class="st8" d="M491.5,78.5l0.9,15.5l-9.9,2.5l1.7-18.5l-7.4-0.6l0.6-6.7l21.3-1.3l0.8,9.9L491.5,78.5z"/>
		<path class="st8" d="M506.7,92.6l-1.3,3.6l-7.2-4.3l9-21.1l6.8-0.5l10.7,21.9l-8.5,4.1l-1.9-5.1L506.7,92.6z M512.9,84.6l-2-6.6
			l-2.4,7.3L512.9,84.6z"/>
		<path class="st8" d="M534.9,80.1l5.9-11l11.1,1.6l-10.4,12.7l9.7,6l-8.3,6.7l-7.3-9.1l1.3,7.5l-8.5,1.6V70.7l5.8,0.6L534.9,80.1z"
			/>
		<path class="st8" d="M563.7,70.9l1.9,24.5l-10.3,1.9l0.5-25.8L563.7,70.9z"/>
		<path class="st8" d="M578,83.5l1.8,10.4l-9.1,2.3l-1.8-23.9l9.1-1.6l9,11.9l0.1-11.9l11.3-1.2l-4,26.6l-7.2,1.1L578,83.5z"/>
		<path class="st8" d="M629.8,96l-10.3,2.6l0.2-2.9c-1.3,0.3-2.8,0.5-4.3,0.5c-4.1,0-7.5-1.2-10.4-3.7c-2.9-2.5-4.3-5.5-4.3-9
			c0-3.5,1.4-6.5,4.3-9c2.9-2.5,6.3-3.7,10.4-3.7c4.1,0,7.5,1.2,10.4,3.7c1.4,1.2,2.5,2.6,3.3,4.1l-8.7,2.2
			c-0.3-0.8-0.8-1.5-1.5-2.1c-1.2-1.1-2.7-1.6-4.5-1.6c-1.7,0-3.2,0.5-4.5,1.6c-1.2,1.1-1.9,2.4-1.9,3.9c0,1.5,0.6,2.8,1.9,3.9
			c1.2,1.1,2.7,1.6,4.5,1.6c1.7,0,3.2-0.5,4.5-1.6c0.7-0.6,1.2-1.2,1.5-1.9l8.3-0.4L629.8,96z"/>
		<path class="st8" d="M654.7,88.9l1.5,5.4l-9.5,1.9l-1.8-24.4c16.2-2.6,24.6,0.1,25.4,8C670.3,85.9,665.1,88.9,654.7,88.9z
			 M652.2,78.1l1,3.5c6.5,0,9.6-0.9,9.2-2.6C662.1,77.4,658.7,77,652.2,78.1z"/>
		<path class="st8" d="M688.5,96.2c-4.1,0-7.6-1.2-10.5-3.7c-2.9-2.5-4.3-5.5-4.3-9c0-3.5,1.4-6.5,4.3-9c2.9-2.5,6.4-3.7,10.5-3.7
			c4.1,0,7.6,1.2,10.5,3.7c2.9,2.5,4.3,5.5,4.3,9c0,3.5-1.4,6.5-4.3,9C696.1,95,692.6,96.2,688.5,96.2z M692,86.7
			c1.2-1.1,1.9-2.4,1.9-3.9c0-1.5-0.6-2.8-1.9-3.9c-1.2-1.1-2.7-1.6-4.5-1.6c-1.8,0-3.3,0.5-4.5,1.6c-1.2,1.1-1.9,2.4-1.9,3.9
			c0,1.5,0.6,2.8,1.9,3.9c1.2,1.1,2.7,1.6,4.5,1.6C689.2,88.3,690.7,87.7,692,86.7z"/>
		<path class="st8" d="M721.5,96.2c-4.1,0-7.6-1.2-10.5-3.7c-2.9-2.5-4.3-5.5-4.3-9c0-3.5,1.4-6.5,4.3-9c2.9-2.5,6.4-3.7,10.5-3.7
			c4.1,0,7.6,1.2,10.5,3.7c2.9,2.5,4.3,5.5,4.3,9c0,3.5-1.4,6.5-4.3,9C729.1,95,725.6,96.2,721.5,96.2z M725,86.7
			c1.2-1.1,1.9-2.4,1.9-3.9c0-1.5-0.6-2.8-1.9-3.9c-1.2-1.1-2.7-1.6-4.5-1.6c-1.8,0-3.3,0.5-4.5,1.6c-1.2,1.1-1.9,2.4-1.9,3.9
			c0,1.5,0.6,2.8,1.9,3.9c1.2,1.1,2.7,1.6,4.5,1.6C722.2,88.3,723.7,87.7,725,86.7z"/>
		<path class="st8" d="M740.9,70.4l9,0.5L747,88.9l9.1-1.4l-2,9.7l-14.4-1L740.9,70.4z"/>
	</g>
	<path class="st14" d="M787.8,37.4v4.9c0-6.2-5-11.2-11.2-11.2H221.4c-6.2,0-11.2,5-11.2,11.2v-4.9c0-6.2,5-11.2,11.2-11.2h555.2
		C782.8,26.3,787.8,31.3,787.8,37.4z"/>
	<path class="st56" d="M776.7,131.8H221.4c-6.2,0-11.2-5-11.2-11.2V37.4c0-6.2,5-11.2,11.2-11.2h555.2c6.2,0,11.2,5,11.2,11.2v83.2
		C787.8,126.8,782.8,131.8,776.7,131.8z"/>
	<g>
		<g>
			<rect x="267.7" y="131.8" class="st13" width="15.3" height="21.4"/>
			<rect x="267.7" y="131.8" class="st11" width="15.3" height="6.2"/>
			<rect x="267.7" y="131.8" class="st56" width="15.3" height="21.4"/>
		</g>
		<g>
			<rect x="416.8" y="131.8" class="st13" width="15.3" height="21.4"/>
			<rect x="416.8" y="131.8" class="st11" width="15.3" height="6.2"/>
			<rect x="416.8" y="131.8" class="st56" width="15.3" height="21.4"/>
		</g>
		<g>
			<rect x="566" y="131.8" class="st13" width="15.3" height="21.4"/>
			<rect x="566" y="131.8" class="st11" width="15.3" height="6.2"/>
			<rect x="566" y="131.8" class="st56" width="15.3" height="21.4"/>
		</g>
		<g>
			<rect x="715.1" y="131.8" class="st13" width="15.3" height="21.4"/>
			<rect x="715.1" y="131.8" class="st11" width="15.3" height="6.2"/>
			<rect x="715.1" y="131.8" class="st56" width="15.3" height="21.4"/>
		</g>
	</g>
	<g>
		<linearGradient id="SVGID_2_" gradientUnits="userSpaceOnUse" x1="275.0027" y1="89.3251" x2="270.69" y2="10.5201">
			<stop  offset="0" style="stop-color:#FFFFFF;stop-opacity:0"/>
			<stop  offset="1" style="stop-color:#F1F2F2"/>
		</linearGradient>
		<polyline class="st57" points="261.3,36 210.2,95.2 340.4,95.2 288.9,36 		"/>
		<path class="st13" d="M281.6,26.3h-13.1c-4,0-7.3,3.3-7.3,7.3V36h27.6v-2.5C288.9,29.5,285.6,26.3,281.6,26.3z"/>
		<path class="st56" d="M281.6,26.3h-13.1c-4,0-7.3,3.3-7.3,7.3V36h27.6v-2.5C288.9,29.5,285.6,26.3,281.6,26.3z"/>
	</g>
	<g>
		<linearGradient id="SVGID_3_" gradientUnits="userSpaceOnUse" x1="424.1481" y1="89.3251" x2="419.8354" y2="10.5201">
			<stop  offset="0" style="stop-color:#FFFFFF;stop-opacity:0"/>
			<stop  offset="1" style="stop-color:#F1F2F2"/>
		</linearGradient>
		<polyline class="st58" points="410.5,36 359.4,95.2 489.5,95.2 438,36 		"/>
		<path class="st13" d="M430.8,26.3h-13.1c-4,0-7.3,3.3-7.3,7.3V36H438v-2.5C438,29.5,434.8,26.3,430.8,26.3z"/>
		<path class="st56" d="M430.8,26.3h-13.1c-4,0-7.3,3.3-7.3,7.3V36H438v-2.5C438,29.5,434.8,26.3,430.8,26.3z"/>
	</g>
	<g>
		<linearGradient id="SVGID_4_" gradientUnits="userSpaceOnUse" x1="573.2935" y1="89.3251" x2="568.9807" y2="10.5201">
			<stop  offset="0" style="stop-color:#FFFFFF;stop-opacity:0"/>
			<stop  offset="1" style="stop-color:#F1F2F2"/>
		</linearGradient>
		<polyline class="st59" points="559.6,36 508.5,95.2 638.7,95.2 587.2,36 		"/>
		<path class="st13" d="M579.9,26.3h-13.1c-4,0-7.3,3.3-7.3,7.3V36h27.6v-2.5C587.2,29.5,583.9,26.3,579.9,26.3z"/>
		<path class="st56" d="M579.9,26.3h-13.1c-4,0-7.3,3.3-7.3,7.3V36h27.6v-2.5C587.2,29.5,583.9,26.3,579.9,26.3z"/>
	</g>
	<g>
		<linearGradient id="SVGID_5_" gradientUnits="userSpaceOnUse" x1="722.4388" y1="89.3251" x2="718.1261" y2="10.5201">
			<stop  offset="0" style="stop-color:#FFFFFF;stop-opacity:0"/>
			<stop  offset="1" style="stop-color:#F1F2F2"/>
		</linearGradient>
		<polyline class="st60" points="708.7,36 657.7,95.2 787.8,95.2 736.3,36 		"/>
		<path class="st13" d="M729.1,26.3H716c-4,0-7.3,3.3-7.3,7.3V36h27.6v-2.5C736.3,29.5,733.1,26.3,729.1,26.3z"/>
		<path class="st56" d="M729.1,26.3H716c-4,0-7.3,3.3-7.3,7.3V36h27.6v-2.5C736.3,29.5,733.1,26.3,729.1,26.3z"/>
	</g>
</g>
<rect x="-6.6" y="-59.1" class="st61" width="1708.9" height="339.1"/>
<g>
	<path class="st8" d="M112.4,40c-0.7,1.8-2.5,3-4.5,3H40.6c-15.7-0.6-7.1-13.1,4.1-7.8c-1-9.3,10-11.7,14.8-8.3
		c-0.9-12.2,7-17.2,14.5-16.2h0c7.1,1,13.6,7.5,11.6,18.6c1.3-2.1,3-2.9,4.6-2.8h0c3.2,0.2,6.1,4,4.1,8.7c4.2-1.9,7.8-2.5,10.7-2.3
		C110.7,33.4,113.6,36.8,112.4,40z"/>
	<path class="st11" d="M85.6,29.3c-0.3,0.8-0.7,1.3-1.1,1.6c-1.2,1-2.8-0.4-2.3-1.8c3.7-9.1-3.8-17.6-8.2-18.4
		C81,11.7,87.5,18.2,85.6,29.3z"/>
	<path class="st11" d="M94.3,35.2C92,38,88,37.3,88,37.3c4.4-0.7,5.9-8.5,2.1-10.8C93.4,26.7,96.3,30.5,94.3,35.2z"/>
	<path class="st11" d="M112.4,40c-0.7,1.8-2.5,3-4.5,3H89.7c11.7-0.4,18-3.2,15.4-10C110.7,33.4,113.6,36.8,112.4,40z"/>
</g>
<g>
	<path class="st8" d="M979.4,51.7c-0.7,1.8-2.5,3-4.5,3h-67.4c-15.7-0.6-7.1-13.1,4.1-7.8c-1-9.3,10-11.7,14.8-8.3
		c-0.9-12.2,7-17.2,14.5-16.2h0c7.1,1,13.6,7.5,11.6,18.6c1.3-2.1,3-2.9,4.6-2.8h0c3.2,0.2,6.1,4,4.1,8.7c4.2-1.9,7.8-2.5,10.7-2.3
		C977.6,45,980.5,48.4,979.4,51.7z"/>
	<path class="st11" d="M952.5,41c-0.3,0.8-0.7,1.3-1.1,1.6c-1.2,1-2.8-0.4-2.3-1.8c3.7-9.1-3.8-17.6-8.2-18.4
		C947.9,23.4,954.5,29.8,952.5,41z"/>
	<path class="st11" d="M961.2,46.9c-2.3,2.7-6.3,2.1-6.3,2.1c4.4-0.7,5.9-8.5,2.1-10.8C960.3,38.3,963.2,42.1,961.2,46.9z"/>
	<path class="st11" d="M979.4,51.7c-0.7,1.8-2.5,3-4.5,3h-18.3c11.7-0.4,18-3.2,15.4-10C977.6,45,980.5,48.4,979.4,51.7z"/>
</g>
<g>
	<path class="st8" d="M1291.6,51.7c-0.7,1.8-2.5,3-4.5,3h-67.4c-15.7-0.6-7.1-13.1,4.1-7.8c-1-9.3,10-11.7,14.8-8.3
		c-0.9-12.2,7-17.2,14.5-16.2h0c7.1,1,13.6,7.5,11.6,18.6c1.3-2.1,3-2.9,4.6-2.8h0c3.2,0.2,6.1,4,4.1,8.7c4.2-1.9,7.8-2.5,10.7-2.3
		C1289.9,45,1292.8,48.4,1291.6,51.7z"/>
	<path class="st11" d="M1264.7,41c-0.3,0.8-0.7,1.3-1.1,1.6c-1.2,1-2.8-0.4-2.3-1.8c3.7-9.1-3.8-17.6-8.2-18.4
		C1260.2,23.4,1266.7,29.8,1264.7,41z"/>
	<path class="st11" d="M1273.5,46.9c-2.3,2.7-6.3,2.1-6.3,2.1c4.4-0.7,5.9-8.5,2.1-10.8C1272.6,38.3,1275.4,42.1,1273.5,46.9z"/>
	<path class="st11" d="M1291.6,51.7c-0.7,1.8-2.5,3-4.5,3h-18.3c11.7-0.4,18-3.2,15.4-10C1289.9,45,1292.8,48.4,1291.6,51.7z"/>
</g>
<g>
	<path class="st8" d="M1621.4,44.3c-0.7,1.8-2.5,3-4.5,3h-67.4c-15.7-0.6-7.1-13.1,4.1-7.8c-1-9.3,10-11.7,14.8-8.3
		c-0.9-12.2,7-17.2,14.5-16.2h0c7.1,1,13.6,7.5,11.6,18.6c1.3-2.1,3-2.9,4.6-2.8h0c3.2,0.2,6.1,4,4.1,8.7c4.2-1.9,7.8-2.5,10.7-2.3
		C1619.7,37.7,1622.6,41.1,1621.4,44.3z"/>
	<path class="st11" d="M1594.6,33.6c-0.3,0.8-0.7,1.3-1.1,1.6c-1.2,1-2.8-0.4-2.3-1.8c3.7-9.1-3.8-17.6-8.2-18.4
		C1590,16,1596.6,22.5,1594.6,33.6z"/>
	<path class="st11" d="M1603.3,39.6c-2.3,2.7-6.3,2.1-6.3,2.1c4.4-0.7,5.9-8.5,2.1-10.8C1602.4,31,1605.3,34.8,1603.3,39.6z"/>
	<path class="st11" d="M1621.4,44.3c-0.7,1.8-2.5,3-4.5,3h-18.3c11.7-0.4,18-3.2,15.4-10C1619.7,37.7,1622.6,41.1,1621.4,44.3z"/>
</g>
<g>
	<path class="st8" d="M151.6,38.3c0,2.6-3.2,4.7-7.8,4.7s-7.4-2.8-7.4-5.4s2.7-3.9,7.4-3.9S151.6,35.8,151.6,38.3z"/>
	<path class="st11" d="M151.6,38.3c0,2.6-3.2,4.7-7.8,4.7c-3,0-5.3-1.2-6.4-2.8c1,0.4,2.2,0.6,3.5,0.6c4.6,0,7.8-2.1,7.8-4.7
		c0-0.6-0.2-1.2-0.6-1.8C150.3,35.3,151.6,36.7,151.6,38.3z"/>
</g>
<g>
	<path class="st8" d="M1652.2,42.3c0,2.6-3.2,4.7-7.8,4.7s-7.4-2.8-7.4-5.4s2.7-3.9,7.4-3.9S1652.2,39.7,1652.2,42.3z"/>
	<path class="st11" d="M1652.2,42.3c0,2.6-3.2,4.7-7.8,4.7c-3,0-5.3-1.2-6.4-2.8c1,0.4,2.2,0.6,3.5,0.6c4.6,0,7.8-2.1,7.8-4.7
		c0-0.6-0.2-1.2-0.6-1.8C1650.9,39.2,1652.2,40.6,1652.2,42.3z"/>
</g>
<rect x="-6.6" class="st61" width="1708.9" height="280"/>
</svg>
