<svg width="231" height="236" viewBox="0 0 231 236" fill="none" xmlns="http://www.w3.org/2000/svg">
<path d="M22.1214 169.542C20.7777 167.683 19.6236 165.694 18.6766 163.605C17.6959 161.53 16.7907 159.492 15.8101 157.518L20.663 156.185C20.8642 158.486 20.9522 160.75 21.1031 162.964C21.2188 165.185 21.56 167.389 22.1214 169.542Z" fill="#370379"/>
<path d="M205.428 160.323C202.989 164.184 200.675 168.573 197.608 172.158C199.23 167.706 199.77 163.203 200.751 158.449L205.428 160.323Z" fill="#370379"/>
<path d="M227.782 180.761C225.167 195.64 210.457 200.57 192.478 196.684C192.478 196.684 180.333 212.204 166.705 219.537V213.248C138.756 239.66 90.9807 239.66 61.3349 213.248V219.537C47.7063 212.204 35.5613 196.684 35.5613 196.684C35.5613 196.684 11.8748 206.544 4.54504 191.238C3.60444 189.271 3.08622 187.129 3.02377 184.949C2.45801 171.454 17.721 157.367 18.2365 156.851C17.5567 145.38 19.1285 133.886 22.8631 123.018L11.7742 123.836C15.2113 120.286 19.2565 117.381 23.718 115.258L9.96377 103.863L31.2489 109.07C42.2121 87.1353 60.92 72.596 86.8318 64.8735C88.9442 60.2771 91.8129 56.0681 95.3182 52.4219L97.2669 61.6663C106.633 52.0069 116.465 44.2718 126.963 39.4673C123.103 46.6198 120.147 54.2245 118.162 62.1065C124.803 58.8729 132.053 57.0853 139.435 56.8617L135.563 64.8609C158.834 73.0487 179.378 84.7331 190.215 108.882L190.316 109.108L211.588 103.901L197.847 115.296C202.307 117.421 206.351 120.326 209.79 123.874L198.702 123.056C202.533 134.187 204.081 145.976 203.253 157.719C203.253 158.285 203.165 158.864 203.115 159.43L209.627 162.977C209.627 162.977 209.891 153.229 215.913 152.286C221.935 151.343 222.2 157.417 222.099 162.247C224.066 163.321 225.639 164.995 226.587 167.026C227.958 169.831 228.938 174.208 227.782 180.761Z" fill="#43BAA7"/>
<path opacity="0.7" d="M27.2006 124.062C23.466 134.93 21.8942 146.423 22.574 157.895C22.0208 158.411 6.79553 172.46 7.33615 185.993C7.3986 188.172 7.91682 190.314 8.85742 192.281C9.63696 193.978 10.7484 195.501 12.1261 196.76C13.5038 198.019 15.1198 198.99 16.8787 199.614C11.8497 198.985 7.14756 196.734 4.51991 191.237C3.57932 189.271 3.0611 187.128 2.99865 184.949C2.45803 171.453 17.721 157.367 18.2365 156.851C17.5759 145.872 18.992 134.868 22.4105 124.414L27.2006 124.062Z" fill="white"/>
<path opacity="0.7" d="M14.3264 104.932L28.0555 116.252C24.2342 118.066 20.718 120.463 17.6329 123.358L11.7742 123.786C15.2113 120.236 19.2565 117.331 23.718 115.208L9.96375 103.813L14.3264 104.932Z" fill="white"/>
<path opacity="0.7" d="M31.249 109.07L14.3264 104.932L31.2867 109.083L31.249 109.07Z" fill="white"/>
<path d="M227.782 180.761C225.167 195.64 210.457 200.57 192.478 196.684C192.478 196.684 180.333 212.204 166.705 219.537V213.248C138.756 239.66 90.9808 239.66 61.3349 213.248V219.537C47.7063 212.204 35.5613 196.684 35.5613 196.684C35.5613 196.684 11.8748 206.544 4.54507 191.238C-2.67153 176.145 17.6204 157.443 18.2616 156.851C17.5819 145.38 19.1536 133.886 22.8883 123.018L11.7994 123.836C15.2365 120.286 19.2817 117.381 23.7432 115.258L9.98894 103.863L31.2741 109.07C42.2373 87.1353 60.9451 72.5959 86.857 64.8735C88.9694 60.2771 91.838 56.0681 95.3434 52.4219L97.2921 61.6663C106.659 52.0069 116.49 44.2718 126.988 39.4673C123.129 46.6198 120.172 54.2245 118.188 62.1065C124.828 58.8729 132.078 57.0853 139.46 56.8617L135.588 64.8609C158.935 73.0739 179.529 84.8085 190.341 109.058L211.614 103.851L197.872 115.246C202.332 117.371 206.377 120.276 209.816 123.823L198.727 123.006C202.745 134.683 204.249 147.079 203.14 159.379L209.652 162.926C209.652 162.926 209.916 153.179 215.938 152.236C221.961 151.292 222.225 157.367 222.124 162.197C222.024 162.209 230.409 165.869 227.782 180.761Z" stroke="#370379" stroke-width="4" stroke-linecap="round" stroke-linejoin="round"/>
<path d="M221.697 164.7C221.023 164.642 220.346 164.642 219.672 164.7C218.962 164.739 218.255 164.835 217.56 164.989C216.216 165.253 214.936 165.774 213.789 166.523C212.698 167.238 211.8 168.21 211.173 169.353C210.574 170.592 210.081 171.879 209.702 173.202C209.277 174.665 208.982 176.164 208.822 177.679C208.643 179.166 208.685 180.671 208.948 182.144C209.22 183.627 209.864 185.017 210.821 186.182C211.915 187.426 213.186 188.502 214.593 189.376C212.885 188.997 211.256 188.325 209.778 187.389C208.232 186.309 207 184.838 206.207 183.125C205.438 181.417 204.954 179.595 204.774 177.73C204.682 176.823 204.64 175.912 204.648 175.001C204.622 174.072 204.664 173.143 204.774 172.221C205.066 170.223 205.776 168.309 206.86 166.605C207.943 164.901 209.375 163.446 211.06 162.335C212.728 161.24 214.588 160.472 216.542 160.071C217.482 159.867 218.436 159.737 219.396 159.681C220.391 159.595 221.393 159.595 222.388 159.681C223.055 159.753 223.666 160.087 224.087 160.609C224.508 161.132 224.704 161.8 224.632 162.467C224.561 163.134 224.227 163.746 223.705 164.167C223.182 164.588 222.514 164.784 221.847 164.712H221.734L221.697 164.7Z" fill="#370379"/>
<path d="M33.3235 197.879L29.1997 184.949L37.749 195.489L33.3235 197.879Z" fill="#370379"/>
<path d="M190.039 195.979L194.578 189.351L194.867 197.375L190.039 195.979Z" fill="#370379"/>
<path d="M101.542 12.6649C101.542 -0.226842 120.4 -0.226842 120.4 12.6649H101.542Z" fill="#EF565D"/>
<path d="M181.389 80.1423H171.683C171.835 79.7972 171.97 79.4445 172.086 79.0858C168.084 75.6445 163.817 72.5241 159.325 69.7534L158.797 69.439C154.265 66.6764 149.498 64.3195 144.552 62.3957C139.265 60.3378 133.791 58.7962 128.208 57.7924C127.868 57.7924 127.542 57.6666 127.202 57.6289C122.117 56.7763 116.969 56.3556 111.813 56.3711C89.6434 56.5794 68.2636 64.6355 51.4655 79.1109C51.5816 79.4697 51.7159 79.8223 51.8679 80.1674H42.1619C37.0449 11.8223 111.776 11.8223 111.776 11.8223C111.776 11.8223 151.153 11.8223 170.778 37.9705C178.196 47.8186 182.785 61.4146 181.389 80.1423Z" fill="#EF565D"/>
<path d="M140.755 17.1926C140.755 17.1926 175.644 28.5122 166.189 74.4697C127.755 49.5918 91.5842 51.0005 57.2991 74.4697C47.8949 28.4619 82.7206 17.1926 82.7206 17.1926C101.396 9.99243 122.08 9.99243 140.755 17.1926Z" fill="white"/>
<path d="M181.389 80.1294C186.494 11.7969 111.776 11.7969 111.776 11.7969C111.776 11.7969 37.0449 11.7969 42.1619 80.1294" stroke="#370379" stroke-width="4" stroke-linecap="round" stroke-linejoin="round"/>
<path d="M191.862 110.064C225.732 91.9651 206.61 39.0901 185.086 32.7637C197.658 59.176 187.5 73.1494 169.445 82.8843C164.102 93.9398 171.935 115.183 191.862 110.064Z" fill="#EFD03A"/>
<path opacity="0.3" d="M191.862 110.064C182.647 112.428 176.021 109.158 172.086 103.876C175.916 105.486 180.156 105.851 184.206 104.92C211.312 92.3423 207.213 56.7233 194.037 38.1089C210.998 53.5035 220.879 94.5559 191.862 110.064Z" fill="#370379"/>
<path d="M172.966 84.9595C169.483 92.1789 171.621 103.75 179.063 109.473C168.817 105.071 165.46 91.1476 169.446 82.8843C187.5 73.1494 197.633 59.1132 185.086 32.7637C187.297 33.4458 189.379 34.4915 191.246 35.8577C190.398 35.4509 189.519 35.1103 188.619 34.8389C201.178 61.1884 191.032 75.2247 172.966 84.9595Z" fill="white"/>
<path d="M43.4066 110.051C39.7354 111.115 35.8379 111.115 32.1668 110.051C-1.70346 91.9651 17.4318 39.0901 38.9433 32.7637C37.9627 34.8389 37.1077 36.8387 36.4288 38.7631C28.0556 61.3016 37.9752 73.9796 54.6212 82.8843C58.7701 91.5501 54.8726 106.454 43.4066 110.051Z" fill="#EFD03A"/>
<path d="M35.9637 110.756C34.6912 110.618 33.4305 110.387 32.1919 110.064C-1.70345 91.9651 17.4318 39.0901 38.9433 32.7637C38.2896 34.1472 37.6861 35.4929 37.158 36.8136C18.6765 49.894 6.06633 94.1661 35.9637 110.756Z" fill="white"/>
<path d="M191.862 110.064C225.732 91.9651 206.61 39.0901 185.086 32.7637C197.658 59.176 187.5 73.1494 169.445 82.8843C164.102 93.9398 171.935 115.183 191.862 110.064Z" stroke="#370379" stroke-width="4" stroke-linecap="round" stroke-linejoin="round"/>
<path d="M32.1668 110.064C-1.70345 91.9651 17.4193 39.0901 38.9433 32.7637C26.3709 59.176 36.5294 73.1494 54.5835 82.8843C59.9268 93.9398 52.1067 115.183 32.1668 110.064Z" stroke="#370379" stroke-width="4" stroke-linecap="round" stroke-linejoin="round"/>
<path opacity="0.3" d="M43.4066 110.051C43.8748 109.217 44.4221 108.429 45.041 107.699C53.5148 97.6374 45.041 90.9588 45.041 90.9588C31.6513 85.1481 20.311 56.6605 34.983 37.958L36.4163 38.763C28.043 61.3015 37.9627 73.9795 54.6086 82.8842C58.7701 91.55 54.8726 106.454 43.4066 110.051Z" fill="#370379"/>
<path d="M172.086 79.0859C171.97 79.4447 171.835 79.7973 171.683 80.1424C170.602 82.595 167.195 88.3051 159.463 86.0663C156.362 83.8779 153.261 81.9032 150.159 80.1424C141.555 75.1158 132.104 71.7058 122.274 70.0806C105.98 67.5651 89.6857 70.919 73.3918 80.1424C70.2906 81.9032 67.1894 83.8779 64.0882 86.0663C56.3436 88.3051 52.9364 82.595 51.8552 80.1424C51.7032 79.7973 51.5689 79.4447 51.4529 79.0859C68.2509 64.6105 89.6308 56.5543 111.801 56.3461C116.957 56.3306 122.104 56.7513 127.189 57.6038C127.529 57.6038 127.856 57.7045 128.195 57.7674C133.779 58.7712 139.252 60.3128 144.539 62.3706C149.486 64.2945 154.252 66.6514 158.784 69.414L159.312 69.7284C163.809 72.5066 168.08 75.6354 172.086 79.0859Z" fill="#EF565D"/>
<path d="M172.086 79.0855C172.086 79.0855 169.207 88.8832 159.513 86.0533C127.713 63.6238 95.9217 63.6238 64.1385 86.0533C54.3823 88.8832 51.566 79.0855 51.566 79.0855C68.3641 64.6101 89.7439 56.5539 111.914 56.3457C131.879 56.3457 152.875 62.6344 172.086 79.0855Z" stroke="#370379" stroke-width="4" stroke-linecap="round" stroke-linejoin="round"/>
<path d="M82.7206 17.1929C82.7206 17.1929 47.832 28.5125 57.2991 74.47" stroke="#370379" stroke-width="3" stroke-linecap="round" stroke-linejoin="round"/>
<path d="M140.755 17.1929C140.755 17.1929 175.644 28.5125 166.189 74.47" stroke="#370379" stroke-width="3" stroke-linecap="round" stroke-linejoin="round"/>
<path d="M101.542 12.6649C101.542 -0.226842 120.4 -0.226842 120.4 12.6649" stroke="#370379" stroke-width="4" stroke-linejoin="round"/>
<path d="M158.533 175.302C158.533 175.302 148.475 195.212 119.973 198.57" stroke="#370379" stroke-width="4" stroke-linecap="round" stroke-linejoin="round"/>
<path d="M155.025 131.999C155.025 138.213 153.688 144.354 151.105 150.005C148.522 155.657 144.753 160.686 140.055 164.751C135.357 168.816 129.839 171.822 123.877 173.564C117.914 175.307 111.647 175.745 105.5 174.85C99.3529 173.954 93.4707 171.746 88.2527 168.374C83.0347 165.003 78.6032 160.547 75.2591 155.311C71.915 150.074 69.7367 144.179 68.8722 138.025C68.0077 131.871 68.4772 125.604 70.2488 119.648C75.6488 114.612 82.0859 110.822 89.1075 108.542C104.061 103.809 120.15 104.082 134.934 109.322C141.594 111.614 147.778 115.11 153.177 119.635C154.39 123.644 155.013 127.809 155.025 131.999Z" fill="white"/>
<path opacity="0.3" d="M155.025 131.998C155.021 140.882 152.287 149.55 147.193 156.828C142.099 164.105 134.891 169.639 126.547 172.68C118.203 175.721 109.126 176.122 100.546 173.828C91.9665 171.534 84.2995 166.657 78.5842 159.857C85.629 165.653 94.3241 169.075 103.428 169.634C112.533 170.193 121.581 167.861 129.281 162.97C136.982 158.08 142.941 150.88 146.309 142.4C149.677 133.92 150.281 124.592 148.035 115.749C149.85 116.927 151.585 118.225 153.227 119.635C154.423 123.647 155.029 127.812 155.025 131.998Z" fill="#370379"/>
<path d="M155.628 170.196C156.173 172.411 157.443 174.379 159.237 175.788C161.03 177.197 163.243 177.964 165.523 177.969" stroke="#370379" stroke-width="4" stroke-linecap="round" stroke-linejoin="round"/>
<path d="M141.912 128.552C141.905 133.434 140.714 138.242 138.441 142.563C136.169 146.883 132.883 150.588 128.865 153.359C124.847 156.13 120.217 157.885 115.373 158.473C110.528 159.062 105.613 158.465 101.049 156.736C96.4851 155.006 92.4087 152.195 89.1694 148.544C85.9301 144.892 83.6245 140.509 82.4503 135.77C81.2761 131.031 81.2685 126.078 82.4279 121.336C83.5874 116.594 85.8794 112.203 89.1074 108.542C104.061 103.809 120.15 104.082 134.934 109.322C139.438 114.717 141.907 121.523 141.912 128.552Z" fill="#370379"/>
<path d="M155.025 131.999C155.025 138.213 153.688 144.354 151.105 150.005C148.522 155.657 144.753 160.686 140.055 164.751C135.357 168.816 129.839 171.822 123.877 173.564C117.914 175.307 111.647 175.745 105.5 174.85C99.3529 173.954 93.4707 171.746 88.2527 168.374C83.0347 165.003 78.6032 160.547 75.2591 155.311C71.915 150.074 69.7367 144.179 68.8722 138.025C68.0077 131.871 68.4772 125.604 70.2488 119.648C75.6488 114.612 82.0859 110.822 89.1075 108.542C104.061 103.809 120.15 104.082 134.934 109.322C141.594 111.614 147.778 115.11 153.177 119.635C154.39 123.644 155.013 127.809 155.025 131.999V131.999Z" stroke="#370379" stroke-width="4" stroke-linecap="round" stroke-linejoin="round"/>
<path d="M123.745 134.64C129.07 134.64 133.388 130.321 133.388 124.993C133.388 119.665 129.07 115.346 123.745 115.346C118.419 115.346 114.102 119.665 114.102 124.993C114.102 130.321 118.419 134.64 123.745 134.64Z" fill="white"/>
<path opacity="0.3" d="M181.603 76.1555L171.683 80.1425C170.602 82.595 167.195 88.3051 159.463 86.0664C156.362 83.8779 153.26 81.9033 150.159 80.1425C141.555 75.1159 132.104 71.7058 122.274 70.0806L123.745 68.2066C154.685 75.3505 158.859 70.5585 159.325 69.7662C159.328 69.7327 159.328 69.699 159.325 69.6656L158.746 69.4517L127.164 57.6291L123.745 56.3713L128.17 57.8177C133.916 59.6666 139.485 61.2891 144.514 62.421C164.53 66.886 177.919 63.9303 170.74 37.9707C178.196 47.8187 182.999 57.4278 181.603 76.1555Z" fill="#370379"/>
<path opacity="0.3" d="M227.782 180.761C225.167 195.64 210.457 200.57 192.478 196.684C192.478 196.684 180.333 212.204 166.705 219.537V213.248C138.756 239.66 90.9808 239.66 61.3349 213.248V219.537C47.7063 212.204 35.5613 196.684 35.5613 196.684C35.5613 196.684 11.8748 206.544 4.54507 191.238C3.60447 189.271 3.08625 187.128 3.0238 184.949C20.3487 197.929 29.2122 177.956 29.2122 177.956C81.5891 229.598 151.014 229.284 193.534 177.956C203.793 180.396 207.037 174.183 207.037 174.183L206.823 177.214C220.301 190.219 226.537 167.014 226.537 167.014C227.958 169.831 228.938 174.208 227.782 180.761Z" fill="#370379"/>
<path opacity="0.3" d="M73.4044 80.1297C73.4044 80.1297 119.344 63.3641 145.96 91.0342C145.96 91.0342 150.21 95.9645 158.218 92.8202C166.227 89.6758 169.068 100.995 169.068 100.995L164.932 86.3303C162.422 86.4802 159.907 86.1306 157.533 85.3015C155.159 84.4725 152.974 83.1806 151.102 81.5006C144.979 75.8408 130.986 71.5897 118.263 71.1243C105.54 70.6589 98.5116 71.1243 97.3927 71.1243C96.2737 71.1243 84.1664 75.0484 84.1664 75.0484" fill="#370379"/>
<path opacity="0.3" d="M48.3098 109.07C48.3098 109.07 66.125 103.272 65.9113 86.5693L57.1105 88.305L55.6647 99.8384" fill="#370379"/>
<path opacity="0.3" d="M209.765 123.836L198.676 123.018C202.508 134.149 204.056 145.938 203.228 157.681L202.121 159.392H193.509C197.897 139.909 189.021 120.176 189.021 120.176L193.509 118.503L185.563 116.591L194.578 112H183.464L190.19 108.843L190.291 109.07L211.563 103.863L197.822 115.258C202.282 117.383 206.326 120.288 209.765 123.836Z" fill="#370379"/>
</svg>
